SplineFontDB: 3.2
FontName: brcxyz-Title
FullName: brcxyz
FamilyName: brcxyz
Weight: Title
Copyright: Copyright (c) Typographer Yining Chen, 2017. All rights reserved.
Version: 1.00
ItalicAngle: 0
UnderlinePosition: -292
UnderlineWidth: 150
Ascent: 1638
Descent: 410
InvalidEm: 0
sfntRevision: 0x00010000
LayerCount: 2
Layer: 0 1 "Back" 1
Layer: 1 1 "Fore" 0
XUID: [1021 213 1692261384 14586]
StyleMap: 0x0020
FSType: 8
OS2Version: 3
OS2_WeightWidthSlopeOnly: 0
OS2_UseTypoMetrics: 0
CreationTime: 1509724806
ModificationTime: 1574194037
PfmFamily: 17
TTFWeight: 700
TTFWidth: 5
LineGap: 67
VLineGap: 0
Panose: 2 11 8 0 2 2 2 2 2 4
OS2TypoAscent: 1491
OS2TypoAOffset: 0
OS2TypoDescent: -431
OS2TypoDOffset: 0
OS2TypoLinegap: 307
OS2WinAscent: 2040
OS2WinAOffset: 0
OS2WinDescent: 431
OS2WinDOffset: 0
HheadAscent: 1854
HheadAOffset: 0
HheadDescent: -434
HheadDOffset: 0
OS2SubXSize: 1434
OS2SubYSize: 1331
OS2SubXOff: 0
OS2SubYOff: 283
OS2SupXSize: 1434
OS2SupYSize: 1331
OS2SupXOff: 0
OS2SupYOff: 977
OS2StrikeYSize: 102
OS2StrikeYPos: 530
OS2CapHeight: 1464
OS2XHeight: 958
OS2Vendor: 'HL  '
OS2CodePages: 20000111.41000000
OS2UnicodeRanges: 800000a7.5000004a.00000000.00000000
MarkAttachClasses: 1
DEI: 91125
ShortTable: maxp 16
  1
  0
  238
  177
  5
  0
  0
  0
  0
  0
  0
  0
  0
  0
  0
  0
EndShort
LangName: 1033 "" "Louis George Caf+AOkA" "" "" "" "Version 1.00 November 3, 2017, initial release" "" "" "" " Yining Chen" "This font was created using FontCreator 5.6 from High-Logic.com"
LangName: 1027 "" "" "Negreta"
LangName: 1029 "" "" "tu+AQ0A-n+AOkA"
LangName: 1030 "" "" "fed"
LangName: 1031 "" "" "Fett"
LangName: 1032 "" "" "+A4gDvQPEA78DvQOx"
LangName: 1034 "" "" "Negrita"
LangName: 1035 "" "" "Lihavoitu"
LangName: 1036 "" "" "Gras"
LangName: 1038 "" "" "F+AOkA-lk+APYA-v+AOkA-r"
LangName: 1040 "" "" "Grassetto"
LangName: 1043 "" "" "Vet"
LangName: 1044 "" "" "Halvfet"
LangName: 1045 "" "" "Pogrubiony"
LangName: 1046 "" "" "Negrito"

StartChar: exclam
Encoding: 33 33 4
Width: 711
GlyphClass: 2
Flags: W
LayerCount: 2
Fore
SplineSet
267 1464 m 1,0,-1
 519 1464 l 1,1,-1
 520 1463 l 1,2,-1
 490 306 l 1,3,-1
 489 305 l 1,4,-1
 297 305 l 1,5,-1
 296 306 l 1,6,-1
 266 1463 l 1,7,-1
 267 1464 l 1,0,-1
394 252 m 0,8,9
 454 252 454 252 495 200 c 0,10,11
 519 165 519 165 519 130 c 2,12,-1
 519 122 l 2,13,14
 519 74 519 74 480 34 c 0,15,16
 451 9 451 9 423 3 c 0,17,18
 408 0 408 0 400 0 c 2,19,-1
 386 0 l 2,20,21
 354 0 354 0 319 23 c 0,22,23
 285 48 285 48 272 89 c 0,24,25
 267 107 267 107 267 122 c 2,26,-1
 267 130 l 2,27,28
 267 177 267 177 305 217 c 0,29,30
 343 252 343 252 394 252 c 0,8,9
EndSplineSet
EndChar

StartChar: quotedbl
Encoding: 34 34 5
Width: 957
GlyphClass: 2
Flags: W
LayerCount: 2
Fore
SplineSet
372 1500 m 1,0,-1
 372 1101 l 1,1,-1
 371 1100 l 1,2,-1
 180 1100 l 1,3,-1
 179 1101 l 1,4,-1
 179 1500 l 1,5,-1
 372 1500 l 1,0,-1
702 1500 m 1,6,-1
 702 1101 l 1,7,-1
 701 1100 l 1,8,-1
 510 1100 l 1,9,-1
 509 1101 l 1,10,-1
 509 1500 l 1,11,-1
 702 1500 l 1,6,-1
EndSplineSet
EndChar

StartChar: numbersign
Encoding: 35 35 6
Width: 997
GlyphClass: 2
Flags: W
LayerCount: 2
Fore
SplineSet
411 803 m 1,0,-1
 379 618 l 1,1,-1
 572 618 l 1,2,-1
 604 803 l 1,3,-1
 411 803 l 1,0,-1
311 1344 m 1,4,5
 494 1312 494 1312 500 1310 c 1,6,-1
 445 997 l 1,7,-1
 638 997 l 1,8,-1
 698 1334 l 1,9,10
 886 1301 886 1301 888 1300 c 2,11,-1
 835 997 l 1,12,-1
 960 997 l 1,13,-1
 960 803 l 1,14,-1
 801 803 l 1,15,-1
 768 618 l 1,16,-1
 904 618 l 1,17,-1
 905 617 l 1,18,-1
 905 425 l 1,19,-1
 904 424 l 1,20,-1
 734 424 l 1,21,-1
 665 30 l 1,22,-1
 664 30 l 1,23,-1
 475 63 l 1,24,-1
 475 64 l 1,25,-1
 538 424 l 1,26,-1
 345 424 l 1,27,-1
 277 39 l 1,28,-1
 86 73 l 1,29,-1
 148 424 l 1,30,-1
 37 424 l 1,31,-1
 36 425 l 1,32,-1
 36 617 l 1,33,-1
 37 618 l 1,34,-1
 182 618 l 1,35,-1
 215 803 l 1,36,-1
 92 803 l 1,37,-1
 91 804 l 1,38,-1
 91 996 l 1,39,-1
 92 997 l 1,40,-1
 249 997 l 1,41,-1
 309 1343 l 1,42,-1
 311 1344 l 1,4,5
EndSplineSet
EndChar

StartChar: dollar
Encoding: 36 36 7
Width: 1143
GlyphClass: 2
Flags: W
LayerCount: 2
Fore
SplineSet
467 1493 m 1,0,-1
 658 1493 l 1,1,-1
 659 1492 l 1,2,-1
 659 1385 l 2,3,4
 659 1384 659 1384 682 1381 c 0,5,6
 786 1361 786 1361 876 1297 c 0,7,8
 901 1279 901 1279 937 1242 c 0,9,10
 976 1200 976 1200 985 1183 c 0,11,12
 994 1170 994 1170 1000 1158 c 1,13,-1
 1000 1157 l 1,14,15
 877 1093 877 1093 830 1067 c 1,16,17
 823 1080 823 1080 793 1113 c 0,18,19
 707 1197 707 1197 580 1197 c 0,20,21
 474 1197 474 1197 399 1147 c 0,22,23
 386 1138 386 1138 365 1117 c 0,24,25
 318 1064 318 1064 318 1002 c 0,26,27
 318 948 318 948 353 921 c 0,28,29
 370 907 370 907 386 898 c 0,30,31
 426 874 426 874 502 850 c 0,32,33
 589 824 589 824 724 797 c 0,34,35
 783 782 783 782 823 763 c 0,36,37
 864 743 864 743 906 712 c 0,38,39
 921 700 921 700 946 674 c 0,40,41
 994 621 994 621 1017 559 c 0,42,43
 1038 499 1038 499 1038 442 c 2,44,-1
 1038 432 l 2,45,46
 1038 327 1038 327 975 227 c 0,47,48
 959 203 959 203 931 172 c 0,49,50
 903 144 903 144 880 128 c 0,51,52
 844 103 844 103 811 87 c 0,53,54
 776 69 776 69 730 55 c 0,55,56
 702 46 702 46 659 39 c 1,57,-1
 659 -70 l 1,58,-1
 658 -71 l 1,59,-1
 467 -71 l 1,60,-1
 466 -70 l 1,61,-1
 466 42 l 2,62,63
 466 43 466 43 443 47 c 0,64,65
 328 74 328 74 231 152 c 0,66,67
 183 195 183 195 164 221 c 0,68,69
 127 267 127 267 111 299 c 0,70,71
 97 323 97 323 97 325 c 0,72,73
 255 404 255 404 270 410 c 1,74,-1
 270 410 l 1,75,76
 330 290 330 290 451 246 c 0,77,78
 508 226 508 226 571 226 c 0,79,80
 680 226 680 226 764 283 c 0,81,82
 793 304 793 304 811 331 c 0,83,84
 845 381 845 381 845 437 c 0,85,86
 845 523 845 523 764 575 c 0,87,88
 744 587 744 587 723 595 c 0,89,90
 697 606 697 606 624 620 c 0,91,92
 425 663 425 663 332 708 c 0,93,94
 125 804 125 804 125 1001 c 2,95,-1
 125 1002 l 2,96,97
 125 1133 125 1133 215 1240 c 0,98,99
 243 1270 243 1270 260 1284 c 0,100,101
 289 1307 289 1307 314 1322 c 0,102,103
 348 1342 348 1342 379 1354 c 0,104,105
 410 1367 410 1367 460 1378 c 2,106,-1
 466 1379 l 1,107,-1
 466 1492 l 1,108,-1
 467 1493 l 1,0,-1
EndSplineSet
EndChar

StartChar: percent
Encoding: 37 37 8
Width: 1664
GlyphClass: 2
Flags: W
LayerCount: 2
Fore
SplineSet
298 1140 m 0,0,1
 298 1092 298 1092 344 1059 c 0,2,3
 374 1038 374 1038 412 1038 c 0,4,5
 471 1038 471 1038 509 1087 c 0,6,7
 525 1113 525 1113 525 1142 c 0,8,9
 525 1197 525 1197 467 1231 c 0,10,11
 440 1243 440 1243 413 1243 c 2,12,-1
 410 1243 l 2,13,14
 358 1243 358 1243 320 1202 c 0,15,16
 298 1175 298 1175 298 1140 c 0,0,1
411 1449 m 0,17,18
 539 1449 539 1449 638 1359 c 0,19,20
 672 1324 672 1324 684 1301 c 0,21,22
 730 1225 730 1225 730 1141 c 0,23,24
 730 1024 730 1024 646 932 c 0,25,26
 612 898 612 898 590 885 c 0,27,28
 507 832 507 832 418 832 c 2,29,-1
 405 832 l 2,30,31
 322 832 322 832 242 879 c 0,32,33
 217 894 217 894 187 922 c 0,34,35
 156 953 156 953 143 974 c 0,36,37
 93 1053 93 1053 93 1133 c 2,38,-1
 93 1148 l 2,39,40
 93 1227 93 1227 141 1306 c 0,41,42
 155 1327 155 1327 185 1358 c 0,43,44
 228 1396 228 1396 256 1409 c 0,45,46
 330 1449 330 1449 411 1449 c 0,17,18
1248 608 m 2,47,-1
 1257 608 l 2,48,49
 1356 608 1356 608 1446 546 c 0,50,51
 1462 534 1462 534 1490 508 c 1,52,53
 1531 461 1531 461 1550 411 c 0,54,55
 1572 357 1572 357 1572 304 c 2,56,-1
 1572 295 l 2,57,58
 1572 207 1572 207 1515 124 c 0,59,60
 1505 108 1505 108 1475 78 c 0,61,62
 1429 36 1429 36 1378 16 c 0,63,64
 1318 -9 1318 -9 1253 -9 c 0,65,66
 1134 -9 1134 -9 1040 70 c 0,67,68
 1003 105 1003 105 995 120 c 0,69,70
 934 202 934 202 934 300 c 0,71,72
 934 416 934 416 1018 508 c 0,73,74
 1051 540 1051 540 1062 546 c 0,75,76
 1087 565 1087 565 1112 577 c 0,77,78
 1180 608 1180 608 1248 608 c 2,47,-1
1198 1465 m 1,79,-1
 1399 1465 l 1,80,-1
 1400 1464 l 1,81,-1
 453 -13 l 1,82,-1
 451 -14 l 1,83,-1
 250 -14 l 1,84,-1
 250 -13 l 1,85,-1
 1197 1464 l 1,86,-1
 1198 1465 l 1,79,-1
1139 299 m 0,87,88
 1139 251 1139 251 1185 218 c 0,89,90
 1216 197 1216 197 1254 197 c 0,91,92
 1312 197 1312 197 1350 246 c 0,93,94
 1367 272 1367 272 1367 301 c 0,95,96
 1367 356 1367 356 1309 390 c 0,97,98
 1282 402 1282 402 1255 402 c 2,99,-1
 1251 402 l 2,100,101
 1199 402 1199 402 1162 361 c 0,102,103
 1139 334 1139 334 1139 299 c 0,87,88
EndSplineSet
EndChar

StartChar: ampersand
Encoding: 38 38 9
Width: 1305
GlyphClass: 2
Flags: W
LayerCount: 2
Fore
SplineSet
515 1143 m 0,0,1
 515 1101 515 1101 535 1072 c 0,2,3
 568 1015 568 1015 617 940 c 0,4,5
 628 921 628 921 629 920 c 0,6,7
 693 956 693 956 756 1004 c 0,8,9
 779 1022 779 1022 809 1052 c 0,10,11
 850 1095 850 1095 850 1127 c 2,12,-1
 850 1135 l 2,13,14
 850 1221 850 1221 769 1251 c 0,15,16
 725 1269 725 1269 684 1269 c 2,17,-1
 682 1269 l 2,18,19
 610 1269 610 1269 551 1221 c 0,20,21
 524 1195 524 1195 521 1182 c 0,22,23
 515 1172 515 1172 515 1143 c 0,0,1
293 319 m 0,24,25
 293 195 293 195 409 149 c 0,26,27
 443 136 443 136 499 136 c 0,28,29
 669 136 669 136 844 267 c 1,30,31
 689 485 689 485 569 661 c 1,32,33
 518 629 518 629 457 580 c 0,34,35
 433 561 433 561 384 514 c 1,36,-1
 365 493 l 2,37,38
 321 442 321 442 307 406 c 0,39,40
 293 369 293 369 293 319 c 0,24,25
683 1463 m 0,41,42
 782 1463 782 1463 880 1413 c 0,43,44
 908 1398 908 1398 933 1378 c 0,45,46
 1043 1285 1043 1285 1043 1135 c 0,47,48
 1043 1062 1043 1062 1014 1009 c 0,49,50
 953 885 953 885 736 759 c 1,51,52
 849 594 849 594 982 406 c 1,53,-1
 991 395 l 1,54,-1
 1081 485 l 1,55,-1
 1218 349 l 1,56,57
 1126 255 1126 255 1105 236 c 1,58,-1
 1195 112 l 1,59,-1
 1195 111 l 1,60,61
 1189 105 1189 105 1045 0 c 0,62,63
 1041 -3 1041 -3 1040 -3 c 2,64,-1
 957 110 l 1,65,66
 732 -57 732 -57 498 -57 c 0,67,68
 397 -57 397 -57 327 -26 c 0,69,70
 187 33 187 33 129 168 c 0,71,72
 100 240 100 240 100 313 c 2,73,-1
 100 327 l 2,74,75
 100 387 100 387 118 452 c 0,76,77
 132 492 132 492 149 522 c 0,78,79
 169 558 169 558 203 601 c 0,80,81
 256 665 256 665 326 723 c 0,82,83
 393 777 393 777 441 809 c 2,84,-1
 462 822 l 1,85,86
 390 934 390 934 353 1001 c 0,87,88
 321 1066 321 1066 321 1138 c 2,89,-1
 321 1150 l 2,90,91
 321 1299 321 1299 464 1398 c 1,92,93
 567 1463 567 1463 683 1463 c 0,41,42
EndSplineSet
EndChar

StartChar: quotesingle
Encoding: 39 39 10
Width: 515
GlyphClass: 2
Flags: W
LayerCount: 2
Fore
SplineSet
332 1500 m 1,0,-1
 332 1100 l 1,1,-1
 331 1099 l 1,2,-1
 140 1099 l 1,3,-1
 139 1100 l 1,4,-1
 139 1500 l 1,5,-1
 332 1500 l 1,0,-1
EndSplineSet
EndChar

StartChar: parenleft
Encoding: 40 40 11
Width: 783
GlyphClass: 2
Flags: W
LayerCount: 2
Fore
SplineSet
609 1535 m 2,0,-1
 628 1535 l 1,1,-1
 631 1532 l 1,2,-1
 631 1345 l 1,3,-1
 628 1342 l 1,4,-1
 605 1342 l 2,5,6
 486 1342 486 1342 388 1094 c 1,7,8
 326 905 326 905 326 620 c 0,9,10
 326 299 326 299 457 79 c 1,11,12
 530 -28 530 -28 602 -28 c 2,13,-1
 628 -28 l 1,14,-1
 631 -31 l 1,15,-1
 631 -218 l 1,16,-1
 628 -221 l 1,17,-1
 603 -221 l 2,18,19
 381 -221 381 -221 238 80 c 1,20,21
 133 321 133 321 133 624 c 0,22,23
 133 1036 133 1036 268 1294 c 1,24,25
 404 1535 404 1535 609 1535 c 2,0,-1
EndSplineSet
EndChar

StartChar: parenright
Encoding: 41 41 12
Width: 783
GlyphClass: 2
Flags: W
LayerCount: 2
Fore
SplineSet
515 1294 m 1,1,2
 650 1036 650 1036 650 624 c 0,3,4
 650 321 650 321 545 80 c 1,5,6
 402 -221 402 -221 180 -221 c 2,7,-1
 155 -221 l 1,8,-1
 152 -218 l 1,9,-1
 152 -31 l 1,10,-1
 155 -28 l 1,11,-1
 181 -28 l 2,12,13
 253 -28 253 -28 326 79 c 1,14,15
 457 299 457 299 457 620 c 0,16,17
 457 905 457 905 395 1094 c 1,18,19
 297 1342 297 1342 178 1342 c 2,20,-1
 155 1342 l 1,21,-1
 152 1345 l 1,22,-1
 152 1532 l 1,23,-1
 155 1535 l 1,24,-1
 174 1535 l 2,25,0
 379 1535 379 1535 515 1294 c 1,1,2
EndSplineSet
EndChar

StartChar: asterisk
Encoding: 42 42 13
Width: 1071
GlyphClass: 2
Flags: W
LayerCount: 2
Fore
SplineSet
436 1506 m 1,0,-1
 628 1506 l 1,1,-1
 629 1505 l 1,2,-1
 629 1279 l 1,3,-1
 841 1355 l 1,4,-1
 906 1174 l 2,5,6
 905 1172 905 1172 690 1096 c 1,7,-1
 690 1095 l 1,8,-1
 823 915 l 1,9,-1
 667 801 l 1,10,11
 662 806 662 806 610 878 c 0,12,13
 537 977 537 977 532 984 c 1,14,15
 525 976 525 976 409 818 c 2,16,-1
 396 801 l 1,17,-1
 240 915 l 1,18,-1
 240 916 l 1,19,-1
 373 1096 l 1,20,-1
 159 1173 l 1,21,-1
 158 1174 l 1,22,-1
 223 1355 l 1,23,24
 430 1281 430 1281 435 1279 c 1,25,-1
 435 1505 l 1,26,-1
 436 1506 l 1,0,-1
EndSplineSet
EndChar

StartChar: plus
Encoding: 43 43 14
Width: 830
GlyphClass: 2
Flags: W
LayerCount: 2
Fore
SplineSet
329 414 m 1,0,-1
 70 414 l 1,1,-1
 70 607 l 1,2,-1
 329 607 l 1,3,-1
 329 864 l 1,4,-1
 330 865 l 1,5,-1
 521 865 l 1,6,-1
 522 864 l 1,7,-1
 522 607 l 1,8,-1
 779 607 l 1,9,-1
 780 606 l 1,10,-1
 780 415 l 1,11,-1
 779 414 l 1,12,-1
 522 414 l 1,13,-1
 522 155 l 1,14,-1
 329 155 l 1,15,-1
 329 414 l 1,0,-1
EndSplineSet
EndChar

StartChar: comma
Encoding: 44 44 15
Width: 598
GlyphClass: 2
Flags: W
LayerCount: 2
Fore
SplineSet
279 245 m 0,0,1
 342 245 342 245 382 189 c 0,2,3
 405 154 405 154 405 96 c 0,4,5
 405 -60 405 -60 220 -225 c 0,6,7
 169 -271 169 -271 154 -278 c 1,8,-1
 103 -212 l 1,9,10
 231 -93 231 -93 231 0 c 1,11,12
 186 19 186 19 165 62 c 0,13,14
 150 88 150 88 150 119 c 0,15,16
 150 182 150 182 207 223 c 0,17,18
 239 245 239 245 279 245 c 0,0,1
EndSplineSet
EndChar

StartChar: hyphen
Encoding: 45 45 16
AltUni2: 0000ad.ffffffff.0
Width: 863
GlyphClass: 2
Flags: W
LayerCount: 2
Fore
SplineSet
76 607 m 1,0,-1
 781 607 l 1,1,-1
 782 606 l 1,2,-1
 782 415 l 1,3,-1
 781 414 l 1,4,-1
 76 414 l 1,5,-1
 76 607 l 1,0,-1
EndSplineSet
EndChar

StartChar: period
Encoding: 46 46 17
Width: 554
GlyphClass: 2
Flags: W
LayerCount: 2
Fore
SplineSet
278 252 m 0,0,1
 338 252 338 252 379 200 c 0,2,3
 403 165 403 165 403 130 c 2,4,-1
 403 122 l 2,5,6
 403 74 403 74 364 34 c 0,7,8
 335 9 335 9 307 3 c 0,9,10
 292 0 292 0 284 0 c 2,11,-1
 270 0 l 2,12,13
 238 0 238 0 203 23 c 0,14,15
 169 48 169 48 156 89 c 0,16,17
 151 107 151 107 151 122 c 2,18,-1
 151 130 l 2,19,20
 151 177 151 177 189 217 c 0,21,22
 227 252 227 252 278 252 c 0,0,1
EndSplineSet
EndChar

StartChar: slash
Encoding: 47 47 18
Width: 715
GlyphClass: 2
Flags: W
LayerCount: 2
Fore
SplineSet
500 1374 m 1,0,-1
 691 1374 l 1,1,-1
 692 1373 l 1,2,-1
 194 -49 l 1,3,-1
 193 -50 l 1,4,-1
 2 -50 l 1,5,-1
 1 -49 l 1,6,-1
 499 1373 l 1,7,-1
 500 1374 l 1,0,-1
EndSplineSet
EndChar

StartChar: zero
Encoding: 48 48 19
Width: 1412
GlyphClass: 2
Flags: W
LayerCount: 2
Fore
SplineSet
705 1402 m 2,0,-1
 707 1402 l 2,1,2
 963 1402 963 1402 1150 1168 c 1,3,4
 1307 955 1307 955 1307 678 c 0,5,6
 1307 385 1307 385 1127 161 c 1,7,8
 944 -43 944 -43 705 -43 c 0,9,10
 453 -43 453 -43 263 188 c 1,11,12
 105 406 105 406 105 681 c 0,13,14
 105 972 105 972 284 1197 c 1,15,16
 469 1402 469 1402 705 1402 c 2,0,-1
298 678 m 0,17,18
 298 443 298 443 444 273 c 1,19,20
 562 149 562 149 706 149 c 0,21,22
 892 149 892 149 1024 347 c 1,23,24
 1115 498 1115 498 1115 679 c 0,25,26
 1115 939 1115 939 943 1112 c 1,27,28
 832 1210 832 1210 710 1210 c 2,29,-1
 705 1210 l 2,30,31
 523 1210 523 1210 391 1016 c 1,32,33
 298 863 298 863 298 678 c 0,17,18
EndSplineSet
EndChar

StartChar: one
Encoding: 49 49 20
Width: 713
GlyphClass: 2
Flags: W
LayerCount: 2
Fore
SplineSet
496 1375 m 1,0,-1
 496 1 l 1,1,-1
 495 0 l 1,2,-1
 305 0 l 1,3,-1
 304 1 l 1,4,-1
 304 1184 l 1,5,-1
 151 1184 l 1,6,-1
 150 1185 l 1,7,-1
 150 1375 l 1,8,-1
 496 1375 l 1,0,-1
EndSplineSet
EndChar

StartChar: two
Encoding: 50 50 21
Width: 1083
GlyphClass: 2
Flags: W
LayerCount: 2
Fore
SplineSet
543 1424 m 0,0,1
 692 1424 692 1424 799 1346 c 0,2,3
 819 1333 819 1333 856 1296 c 0,4,5
 898 1251 898 1251 919 1214 c 0,6,7
 984 1099 984 1099 984 973 c 0,8,9
 984 857 984 857 927 764 c 1,10,-1
 611 417 l 1,11,-1
 383 167 l 1,12,-1
 383 166 l 1,13,-1
 589 167 l 1,14,-1
 977 167 l 1,15,-1
 978 166 l 1,16,-1
 978 -26 l 1,17,-1
 977 -27 l 1,18,-1
 116 -27 l 1,19,-1
 115 -26 l 1,20,-1
 115 160 l 1,21,-1
 424 499 l 1,22,-1
 623 718 l 1,23,-1
 770 880 l 1,24,25
 790 921 790 921 790 970 c 2,26,-1
 790 976 l 2,27,28
 790 1053 790 1053 745 1126 c 0,29,30
 733 1145 733 1145 711 1168 c 0,31,32
 685 1192 685 1192 664 1203 c 0,33,34
 616 1230 616 1230 547 1230 c 2,35,-1
 539 1230 l 2,36,37
 361 1230 361 1230 308 1064 c 0,38,39
 291 1006 291 1006 291 970 c 1,40,-1
 98 970 l 1,41,-1
 98 974 l 2,42,43
 98 1038 98 1038 125 1127 c 0,44,45
 144 1183 144 1183 167 1221 c 0,46,47
 234 1337 234 1337 357 1389 c 0,48,49
 441 1424 441 1424 543 1424 c 0,0,1
EndSplineSet
EndChar

StartChar: three
Encoding: 51 51 22
Width: 1140
GlyphClass: 2
Flags: W
LayerCount: 2
Fore
SplineSet
571 1409 m 2,0,-1
 572 1409 l 2,1,2
 721 1409 721 1409 841 1314 c 0,3,4
 881 1280 881 1280 906 1247 c 0,5,6
 929 1217 929 1217 944 1187 c 0,7,8
 990 1099 990 1099 990 1008 c 2,9,-1
 990 997 l 2,10,11
 990 903 990 903 940 810 c 0,12,13
 925 782 925 782 900 751 c 0,14,15
 884 731 884 731 846 696 c 1,16,17
 863 685 863 685 902 647 c 0,18,19
 944 601 944 601 961 571 c 0,20,21
 1025 465 1025 465 1025 349 c 2,22,-1
 1025 341 l 2,23,24
 1025 218 1025 218 952 105 c 0,25,26
 932 76 932 76 905 46 c 0,27,28
 868 9 868 9 849 -3 c 0,29,30
 812 -31 812 -31 776 -49 c 0,31,32
 748 -64 748 -64 700 -79 c 0,33,34
 629 -100 629 -100 571 -100 c 2,35,-1
 543 -100 l 2,36,37
 471 -100 471 -100 382 -68 c 0,38,39
 334 -49 334 -49 288 -19 c 0,40,41
 259 1 259 1 225 32 c 0,42,43
 192 65 192 65 174 91 c 0,44,45
 146 132 146 132 132 161 c 0,46,47
 91 251 91 251 91 338 c 2,48,-1
 91 345 l 1,49,-1
 92 346 l 1,50,-1
 283 346 l 1,51,-1
 284 345 l 1,52,53
 284 258 284 258 346 186 c 0,54,55
 370 161 370 161 382 152 c 0,56,57
 415 128 415 128 440 118 c 0,58,59
 498 93 498 93 557 93 c 0,60,61
 672 93 672 93 758 172 c 1,62,63
 832 249 832 249 832 345 c 0,64,65
 832 430 832 430 773 501 c 0,66,67
 687 598 687 598 553 598 c 2,68,-1
 454 598 l 1,69,-1
 454 598 l 1,70,-1
 454 790 l 1,71,-1
 454 791 l 1,72,-1
 565 791 l 1,73,-1
 583 790 l 2,74,75
 602 790 602 790 641 800 c 0,76,77
 665 808 665 808 685 819 c 0,78,79
 703 828 703 828 732 853 c 0,80,81
 796 918 796 918 796 1003 c 0,82,83
 796 1089 796 1089 729 1155 c 1,84,85
 660 1215 660 1215 572 1215 c 0,86,87
 476 1215 476 1215 405 1145 c 0,88,89
 380 1118 380 1118 367 1092 c 0,90,91
 347 1050 347 1050 347 995 c 1,92,-1
 346 994 l 1,93,-1
 154 994 l 1,94,-1
 153 995 l 1,95,-1
 153 1003 l 2,96,97
 153 1145 153 1145 249 1261 c 0,98,99
 284 1300 284 1300 300 1311 c 0,100,101
 336 1341 336 1341 373 1360 c 0,102,103
 467 1409 467 1409 571 1409 c 2,0,-1
EndSplineSet
EndChar

StartChar: four
Encoding: 52 52 23
Width: 1126
GlyphClass: 2
Flags: W
LayerCount: 2
Fore
SplineSet
727 1002 m 1,0,-1
 552 706 l 2,1,2
 384 423 384 423 378 412 c 0,3,4
 375 410 375 410 364 389 c 1,5,-1
 670 389 l 1,6,-1
 728 390 l 1,7,-1
 728 1002 l 1,8,-1
 727 1002 l 1,0,-1
729 1383 m 1,9,-1
 920 1383 l 1,10,-1
 921 1382 l 1,11,-1
 921 390 l 1,12,-1
 1039 390 l 1,13,-1
 1040 389 l 1,14,-1
 1040 198 l 1,15,-1
 1039 197 l 1,16,-1
 922 197 l 1,17,-1
 922 -15 l 1,18,-1
 921 -16 l 1,19,-1
 729 -16 l 1,20,-1
 728 -15 l 1,21,-1
 728 196 l 1,22,-1
 24 196 l 1,23,-1
 24 197 l 1,24,-1
 267 606 l 1,25,-1
 504 1005 l 1,26,-1
 710 1352 l 1,27,-1
 729 1383 l 1,9,-1
EndSplineSet
EndChar

StartChar: five
Encoding: 53 53 24
Width: 1237
GlyphClass: 2
Flags: W
LayerCount: 2
Fore
SplineSet
987 1383 m 1,0,-1
 988 1382 l 1,1,-1
 988 1191 l 1,2,-1
 987 1190 l 1,3,-1
 562 1190 l 1,4,-1
 496 946 l 1,5,-1
 497 946 l 1,6,7
 537 951 537 951 572 951 c 2,8,-1
 588 951 l 2,9,10
 709 951 709 951 829 894 c 0,11,12
 873 873 873 873 922 837 c 0,13,14
 939 824 939 824 963 801 c 0,15,16
 1007 758 1007 758 1018 741 c 0,17,18
 1045 707 1045 707 1060 680 c 0,19,20
 1128 559 1128 559 1128 425 c 0,21,22
 1128 256 1128 256 1021 113 c 0,23,24
 1005 91 1005 91 966 52 c 0,25,26
 926 15 926 15 891 -8 c 0,27,28
 747 -100 747 -100 582 -100 c 2,29,-1
 577 -100 l 2,30,31
 417 -100 417 -100 276 -12 c 0,32,33
 244 8 244 8 204 43 c 0,34,35
 164 81 164 81 153 96 c 0,36,37
 116 143 116 143 100 173 c 0,38,39
 81 207 81 207 81 210 c 0,40,41
 244 287 244 287 256 292 c 1,42,43
 314 171 314 171 446 118 c 0,44,45
 512 93 512 93 580 93 c 0,46,47
 713 93 713 93 818 179 c 0,48,49
 848 207 848 207 862 224 c 0,50,51
 934 316 934 316 934 423 c 2,52,-1
 934 428 l 2,53,54
 934 540 934 540 855 635 c 0,55,56
 827 666 827 666 812 677 c 0,57,58
 709 758 709 758 579 758 c 0,59,60
 479 758 479 758 388 705 c 2,61,-1
 205 606 l 1,62,-1
 330 1071 l 2,63,64
 403 1342 403 1342 403 1345 c 2,65,-1
 414 1383 l 1,66,-1
 987 1383 l 1,0,-1
EndSplineSet
EndChar

StartChar: six
Encoding: 54 54 25
Width: 1250
GlyphClass: 2
Flags: W
LayerCount: 2
Fore
SplineSet
289 415 m 0,0,1
 289 285 289 285 390 185 c 1,2,3
 422 159 422 159 423 159 c 0,4,5
 516 93 516 93 624 93 c 2,6,-1
 629 93 l 2,7,8
 754 93 754 93 854 178 c 0,9,10
 884 204 884 204 896 220 c 0,11,12
 965 309 965 309 965 414 c 0,13,14
 965 513 965 513 905 599 c 0,15,16
 892 617 892 617 861 646 c 0,17,18
 835 669 835 669 817 681 c 0,19,20
 728 736 728 736 631 736 c 2,21,-1
 623 736 l 2,22,23
 513 736 513 736 416 667 c 0,24,25
 399 653 399 653 374 628 c 0,26,27
 289 534 289 534 289 415 c 0,0,1
601 1382 m 1,28,29
 763 1285 763 1285 766 1281 c 1,30,-1
 548 925 l 1,31,32
 587 930 587 930 627 930 c 0,33,34
 800 930 800 930 946 826 c 0,35,36
 972 808 972 808 1007 774 c 0,37,38
 1046 734 1046 734 1057 715 c 0,39,40
 1081 683 1081 683 1100 650 c 0,41,42
 1158 538 1158 538 1158 416 c 2,43,-1
 1158 414 l 2,44,45
 1158 257 1158 257 1063 120 c 0,46,47
 1046 96 1046 96 1009 58 c 0,48,49
 963 13 963 13 935 -5 c 0,50,51
 899 -28 899 -28 874 -41 c 0,52,53
 838 -59 838 -59 807 -70 c 0,54,55
 718 -100 718 -100 637 -100 c 2,56,-1
 616 -100 l 2,57,58
 521 -100 521 -100 418 -58 c 0,59,60
 377 -42 377 -42 332 -13 c 0,61,62
 189 79 189 79 128 238 c 0,63,64
 96 325 96 325 96 406 c 2,65,-1
 96 423 l 2,66,67
 96 537 96 537 154 650 c 0,68,69
 170 678 170 678 294 879 c 2,70,-1
 507 1231 l 1,71,-1
 601 1382 l 1,28,29
EndSplineSet
EndChar

StartChar: seven
Encoding: 55 55 26
Width: 976
GlyphClass: 2
Flags: W
LayerCount: 2
Fore
SplineSet
58 1384 m 1,0,-1
 923 1384 l 1,1,-1
 924 1383 l 1,2,-1
 924 1218 l 2,3,4
 922 1213 922 1213 872 1124 c 2,5,-1
 606 644 l 1,6,-1
 345 174 l 1,7,-1
 222 -47 l 1,8,-1
 221 -47 l 1,9,-1
 53 47 l 1,10,-1
 271 439 l 1,11,-1
 475 808 l 1,12,-1
 688 1190 l 1,13,-1
 58 1190 l 1,14,-1
 57 1191 l 1,15,-1
 57 1383 l 1,16,-1
 58 1384 l 1,0,-1
EndSplineSet
EndChar

StartChar: eight
Encoding: 56 56 27
Width: 1174
GlyphClass: 2
Flags: W
LayerCount: 2
Fore
SplineSet
371 1020 m 0,0,1
 371 942 371 942 433 880 c 1,2,3
 499 820 499 820 586 820 c 0,4,5
 674 820 674 820 741 882 c 1,6,7
 801 943 801 943 801 1021 c 0,8,9
 801 1101 801 1101 739 1161 c 0,10,11
 704 1193 704 1193 666 1207 c 0,12,13
 627 1220 627 1220 589 1220 c 2,14,-1
 583 1220 l 2,15,16
 501 1220 501 1220 435 1163 c 1,17,18
 371 1101 371 1101 371 1020 c 0,0,1
292 363 m 0,19,20
 292 257 292 257 378 176 c 0,21,22
 412 148 412 148 434 137 c 0,23,24
 504 98 504 98 586 98 c 0,25,26
 703 98 703 98 794 175 c 1,27,28
 830 211 830 211 836 224 c 0,29,30
 880 290 880 290 880 358 c 2,31,-1
 880 368 l 2,32,33
 880 444 880 444 826 516 c 0,34,35
 797 550 797 550 773 566 c 0,36,37
 688 627 688 627 586 627 c 0,38,39
 474 627 474 627 386 556 c 0,40,41
 362 535 362 535 346 516 c 0,42,43
 292 445 292 445 292 363 c 0,19,20
586 1414 m 0,44,45
 733 1414 733 1414 852 1320 c 0,46,47
 892 1285 892 1285 908 1263 c 0,48,49
 965 1192 965 1192 986 1104 c 0,50,51
 995 1062 995 1062 995 1027 c 2,52,-1
 995 1015 l 2,53,54
 995 914 995 914 936 817 c 0,55,56
 919 791 919 791 894 763 c 0,57,58
 889 756 889 756 868 736 c 1,59,60
 893 720 893 720 928 689 c 0,61,62
 971 648 971 648 976 637 c 0,63,64
 1001 607 1001 607 1021 570 c 0,65,66
 1074 471 1074 471 1074 363 c 0,67,68
 1074 205 1074 205 966 75 c 0,69,70
 938 43 938 43 912 21 c 0,71,72
 880 -4 880 -4 857 -18 c 0,73,74
 732 -95 732 -95 588 -95 c 2,75,-1
 584 -95 l 2,76,77
 426 -95 426 -95 293 -3 c 0,78,79
 264 17 264 17 232 49 c 0,80,81
 200 82 200 82 184 103 c 0,82,83
 154 145 154 145 140 180 c 0,84,85
 99 268 99 268 99 355 c 2,86,-1
 99 370 l 2,87,88
 99 473 99 473 155 577 c 0,89,90
 176 614 176 614 213 658 c 0,91,92
 250 696 250 696 264 707 c 0,93,94
 288 726 288 726 304 736 c 1,95,96
 269 770 269 770 256 789 c 0,97,98
 177 895 177 895 177 1020 c 0,99,100
 177 1164 177 1164 277 1279 c 0,101,102
 316 1318 316 1318 328 1326 c 0,103,104
 362 1352 362 1352 389 1365 c 0,105,106
 483 1414 483 1414 586 1414 c 0,44,45
EndSplineSet
EndChar

StartChar: nine
Encoding: 57 57 28
Width: 1245
GlyphClass: 2
Flags: W
LayerCount: 2
Fore
SplineSet
286 895 m 0,0,1
 286 783 286 783 361 693 c 0,2,3
 387 663 387 663 406 648 c 0,4,5
 504 574 504 574 623 574 c 0,6,7
 748 574 748 574 846 653 c 0,8,9
 873 678 873 678 891 700 c 0,10,11
 961 789 961 789 961 895 c 0,12,13
 961 1011 961 1011 882 1103 c 0,14,15
 848 1137 848 1137 833 1148 c 0,16,17
 738 1218 738 1218 624 1218 c 0,18,19
 495 1218 495 1218 395 1132 c 0,20,21
 357 1096 357 1096 353 1089 c 0,22,23
 286 1001 286 1001 286 895 c 0,0,1
624 1411 m 0,24,25
 792 1411 792 1411 934 1314 c 0,26,27
 959 1296 959 1296 997 1262 c 0,28,29
 1041 1217 1041 1217 1054 1197 c 0,30,31
 1080 1162 1080 1162 1099 1125 c 0,32,33
 1154 1015 1154 1015 1154 897 c 2,34,-1
 1154 892 l 2,35,36
 1154 746 1154 746 1067 612 c 1,37,-1
 804 181 l 2,38,39
 656 -62 656 -62 651 -69 c 1,40,-1
 650 -69 l 1,41,-1
 487 30 l 1,42,-1
 487 31 l 2,43,44
 487 32 487 32 551 136 c 2,45,-1
 703 385 l 1,46,47
 663 380 663 380 631 380 c 2,48,-1
 616 380 l 2,49,50
 493 380 493 380 373 441 c 0,51,52
 336 460 336 460 293 491 c 0,53,54
 270 509 270 509 237 541 c 0,55,56
 196 585 196 585 175 619 c 0,57,58
 148 661 148 661 131 701 c 0,59,60
 92 797 92 797 92 887 c 2,61,-1
 92 904 l 2,62,63
 92 1022 92 1022 156 1141 c 0,64,65
 177 1178 177 1178 211 1221 c 0,66,67
 232 1247 232 1247 267 1278 c 0,68,69
 343 1344 343 1344 430 1376 c 0,70,71
 523 1411 523 1411 624 1411 c 0,24,25
EndSplineSet
EndChar

StartChar: colon
Encoding: 58 58 29
Width: 590
GlyphClass: 2
Flags: W
LayerCount: 2
Fore
SplineSet
309 958 m 2,0,-1
 317 958 l 2,1,2
 363 958 363 958 403 921 c 1,3,4
 439 882 439 882 439 836 c 2,5,-1
 439 829 l 2,6,7
 439 779 439 779 397 738 c 0,8,9
 359 706 359 706 317 706 c 2,10,-1
 309 706 l 2,11,12
 261 706 261 706 221 745 c 1,13,14
 187 784 187 784 187 828 c 2,15,-1
 187 837 l 2,16,17
 187 880 187 880 221 919 c 1,18,19
 261 958 261 958 309 958 c 2,0,-1
314 252 m 0,20,21
 374 252 374 252 415 200 c 0,22,23
 439 165 439 165 439 130 c 2,24,-1
 439 122 l 2,25,26
 439 74 439 74 400 34 c 0,27,28
 371 9 371 9 343 3 c 0,29,30
 328 0 328 0 320 0 c 2,31,-1
 306 0 l 2,32,33
 274 0 274 0 239 23 c 0,34,35
 205 48 205 48 192 89 c 0,36,37
 187 107 187 107 187 122 c 2,38,-1
 187 130 l 2,39,40
 187 177 187 177 225 217 c 0,41,42
 263 252 263 252 314 252 c 0,20,21
EndSplineSet
EndChar

StartChar: semicolon
Encoding: 59 59 30
Width: 572
GlyphClass: 2
Flags: W
LayerCount: 2
Fore
SplineSet
291 958 m 2,0,-1
 299 958 l 2,1,2
 345 958 345 958 385 921 c 1,3,4
 421 882 421 882 421 836 c 2,5,-1
 421 829 l 2,6,7
 421 779 421 779 380 738 c 1,8,9
 341 706 341 706 299 706 c 2,10,-1
 291 706 l 2,11,12
 241 706 241 706 200 749 c 0,13,14
 169 787 169 787 169 832 c 0,15,16
 169 881 169 881 204 920 c 1,17,18
 244 958 244 958 291 958 c 2,0,-1
295 245 m 0,19,20
 358 245 358 245 398 189 c 0,21,22
 421 154 421 154 421 96 c 0,23,24
 421 -60 421 -60 236 -225 c 0,25,26
 185 -271 185 -271 170 -278 c 1,27,-1
 119 -212 l 1,28,29
 247 -93 247 -93 247 0 c 1,30,31
 202 19 202 19 181 62 c 0,32,33
 166 88 166 88 166 119 c 0,34,35
 166 182 166 182 223 223 c 0,36,37
 255 245 255 245 295 245 c 0,19,20
EndSplineSet
EndChar

StartChar: less
Encoding: 60 60 31
Width: 986
GlyphClass: 2
Flags: W
LayerCount: 2
Fore
SplineSet
674 1026 m 1,0,-1
 675 1026 l 1,1,-1
 793 874 l 2,2,3
 793 872 793 872 512 654 c 2,4,-1
 335 516 l 1,5,-1
 531 363 l 1,6,-1
 793 158 l 1,7,-1
 675 6 l 1,8,-1
 674 6 l 1,9,-1
 334 271 l 2,10,11
 121 436 121 436 116 441 c 1,12,-1
 116 591 l 1,13,-1
 404 816 l 1,14,-1
 674 1026 l 1,0,-1
EndSplineSet
EndChar

StartChar: equal
Encoding: 61 61 32
Width: 839
GlyphClass: 2
Flags: W
LayerCount: 2
Fore
SplineSet
94 780 m 1,0,-1
 743 780 l 1,1,-1
 744 779 l 1,2,-1
 744 588 l 1,3,-1
 743 587 l 1,4,-1
 94 587 l 1,5,-1
 94 780 l 1,0,-1
94 394 m 1,6,-1
 743 394 l 1,7,-1
 744 393 l 1,8,-1
 744 202 l 1,9,-1
 743 201 l 1,10,-1
 94 201 l 1,11,-1
 94 394 l 1,6,-1
EndSplineSet
EndChar

StartChar: greater
Encoding: 62 62 33
Width: 986
GlyphClass: 2
Flags: W
LayerCount: 2
Fore
SplineSet
582 816 m 1,0,-1
 870 591 l 1,1,-1
 870 441 l 1,2,3
 865 436 865 436 652 271 c 2,4,-1
 312 6 l 1,5,-1
 311 6 l 1,6,-1
 193 158 l 1,7,-1
 455 363 l 1,8,-1
 651 516 l 1,9,-1
 474 654 l 2,10,11
 193 872 193 872 193 874 c 2,12,-1
 311 1026 l 1,13,-1
 312 1026 l 1,14,-1
 582 816 l 1,0,-1
EndSplineSet
EndChar

StartChar: question
Encoding: 63 63 34
Width: 1111
GlyphClass: 2
Flags: W
LayerCount: 2
Fore
SplineSet
566 252 m 0,0,1
 623 252 623 252 663 205 c 0,2,3
 691 169 691 169 691 129 c 2,4,-1
 691 123 l 2,5,6
 691 72 691 72 650 32 c 0,7,8
 612 0 612 0 571 0 c 2,9,-1
 558 0 l 2,10,11
 527 0 527 0 492 23 c 0,12,13
 457 47 457 47 443 93 c 0,14,15
 439 111 439 111 439 126 c 0,16,17
 439 183 439 183 486 224 c 0,18,19
 521 252 521 252 566 252 c 0,0,1
569 1512 m 2,20,-1
 583 1512 l 2,21,22
 670 1512 670 1512 761 1471 c 0,23,24
 800 1453 800 1453 842 1422 c 0,25,26
 864 1405 864 1405 889 1380 c 0,27,28
 927 1340 927 1340 945 1310 c 0,29,30
 1017 1196 1017 1196 1017 1064 c 0,31,32
 1017 946 1017 946 950 831 c 0,33,34
 932 801 932 801 904 768 c 0,35,36
 871 730 871 730 845 709 c 0,37,38
 809 681 809 681 729 625 c 0,39,40
 709 610 709 610 685 588 c 0,41,42
 673 573 673 573 667 563 c 0,43,44
 662 549 662 549 662 537 c 2,45,-1
 662 306 l 1,46,-1
 661 305 l 1,47,-1
 470 305 l 1,48,-1
 469 306 l 1,49,-1
 468 534 l 2,50,51
 468 669 468 669 596 766 c 0,52,53
 627 791 627 791 705 845 c 0,54,55
 748 877 748 877 776 917 c 0,56,57
 808 965 808 965 820 1024 c 0,58,59
 824 1048 824 1048 824 1064 c 0,60,61
 824 1164 824 1164 755 1241 c 1,62,63
 678 1319 678 1319 575 1319 c 0,64,65
 476 1319 476 1319 399 1245 c 1,66,67
 326 1167 326 1167 326 1064 c 2,68,-1
 326 1030 l 1,69,-1
 133 1030 l 1,70,-1
 133 1073 l 2,71,72
 133 1171 133 1171 183 1272 c 0,73,74
 200 1306 200 1306 230 1345 c 0,75,76
 243 1362 243 1362 275 1393 c 0,77,78
 303 1419 303 1419 324 1433 c 0,79,80
 362 1459 362 1459 402 1477 c 0,81,82
 487 1512 487 1512 569 1512 c 2,20,-1
EndSplineSet
EndChar

StartChar: at
Encoding: 64 64 35
Width: 2184
GlyphClass: 2
Flags: W
LayerCount: 2
Fore
SplineSet
879 504 m 2,0,-1
 879 498 l 2,1,2
 879 426 879 426 915 364 c 0,3,4
 923 348 923 348 948 322 c 0,5,6
 993 279 993 279 1050 279 c 2,7,-1
 1051 279 l 2,8,9
 1124 279 1124 279 1189 351 c 1,10,11
 1258 436 1258 436 1258 548 c 0,12,13
 1258 636 1258 636 1209 704 c 1,14,15
 1157 768 1157 768 1087 768 c 2,16,-1
 1086 768 l 2,17,18
 1019 768 1019 768 957 706 c 0,19,20
 916 660 916 660 896 604 c 0,21,22
 879 552 879 552 879 504 c 2,0,-1
1097 1465 m 2,23,-1
 1119 1465 l 2,24,25
 1305 1465 1305 1465 1486 1401 c 0,26,27
 1736 1307 1736 1307 1887 1106 c 0,28,29
 1923 1057 1923 1057 1950 1007 c 0,30,31
 2055 811 2055 811 2055 578 c 0,32,33
 2055 476 2055 476 2020 343 c 0,34,35
 2002 289 2002 289 1980 246 c 0,36,37
 1957 202 1957 202 1921 155 c 0,38,39
 1885 113 1885 113 1857 92 c 0,40,41
 1746 6 1746 6 1627 6 c 0,42,43
 1567 6 1567 6 1502 26 c 0,44,45
 1400 60 1400 60 1342 141 c 0,46,47
 1322 170 1322 170 1313 192 c 2,48,-1
 1310 198 l 1,49,50
 1279 168 1279 168 1256 153 c 0,51,52
 1158 86 1158 86 1050 86 c 0,53,54
 938 86 938 86 842 157 c 0,55,56
 802 190 802 190 777 223 c 256,57,58
 752 256 752 256 740 280 c 0,59,60
 686 383 686 383 686 501 c 0,61,62
 686 649 686 649 767 777 c 0,63,64
 823 859 823 859 901 908 c 0,65,66
 991 962 991 962 1087 962 c 0,67,68
 1204 962 1204 962 1302 885 c 0,69,70
 1335 856 1335 856 1355 831 c 0,71,72
 1369 814 1369 814 1382 794 c 1,73,-1
 1383 794 l 1,74,75
 1394 824 1394 824 1408 859 c 1,76,-1
 1409 859 l 1,77,-1
 1588 790 l 1,78,-1
 1588 789 l 1,79,80
 1554 703 1554 703 1533 640 c 0,81,82
 1474 466 1474 466 1474 357 c 0,83,84
 1474 264 1474 264 1522 230 c 0,85,86
 1542 213 1542 213 1587 204 c 0,87,88
 1611 200 1611 200 1626 200 c 2,89,-1
 1627 200 l 2,90,91
 1690 200 1690 200 1756 260 c 1,92,93
 1788 296 1788 296 1805 330 c 0,94,95
 1825 367 1825 367 1835 401 c 0,96,97
 1845 434 1845 434 1852 481 c 0,98,99
 1862 531 1862 531 1862 576 c 2,100,-1
 1862 580 l 2,101,102
 1862 819 1862 819 1725 999 c 0,103,104
 1665 1074 1665 1074 1602 1120 c 0,105,106
 1556 1154 1556 1154 1514 1176 c 0,107,108
 1334 1272 1334 1272 1108 1272 c 2,109,-1
 1107 1272 l 2,110,111
 878 1272 878 1272 682 1141 c 0,112,113
 645 1116 645 1116 600 1077 c 0,114,115
 557 1036 557 1036 538 1014 c 0,116,117
 490 956 490 956 469 921 c 0,118,119
 353 736 353 736 353 520 c 0,120,121
 353 302 353 302 472 112 c 0,122,123
 494 77 494 77 530 33 c 0,124,125
 548 11 548 11 594 -34 c 0,126,127
 654 -89 654 -89 692 -112 c 0,128,129
 775 -168 775 -168 873 -200 c 0,130,131
 987 -237 987 -237 1103 -237 c 2,132,-1
 1111 -237 l 2,133,134
 1322 -237 1322 -237 1512 -120 c 1,135,-1
 1616 -283 l 1,136,137
 1566 -314 1566 -314 1516 -338 c 0,138,139
 1473 -360 1473 -360 1401 -385 c 0,140,141
 1255 -431 1255 -431 1121 -431 c 2,142,-1
 1093 -431 l 2,143,144
 949 -431 949 -431 792 -377 c 0,145,146
 702 -344 702 -344 629 -301 c 0,147,148
 570 -266 570 -266 512 -219 c 0,149,150
 488 -202 488 -202 424 -139 c 1,151,152
 355 -63 355 -63 322 -12 c 0,153,154
 287 40 287 40 260 94 c 0,155,156
 232 150 232 150 206 226 c 0,157,158
 160 373 160 373 160 510 c 2,159,-1
 160 531 l 2,160,161
 160 697 160 697 225 867 c 0,162,163
 250 930 250 930 284 989 c 0,164,165
 313 1041 313 1041 363 1106 c 0,166,167
 387 1137 387 1137 440 1192 c 1,168,-1
 454 1205 l 2,169,170
 517 1263 517 1263 551 1286 c 0,171,172
 607 1326 607 1326 659 1354 c 0,173,174
 718 1386 718 1386 795 1413 c 0,175,176
 949 1465 949 1465 1097 1465 c 2,23,-1
EndSplineSet
EndChar

StartChar: A
Encoding: 65 65 36
Width: 1432
GlyphClass: 2
Flags: W
LayerCount: 2
Fore
SplineSet
449 509 m 1,0,-1
 985 509 l 1,1,-1
 718 1169 l 2,2,3
 715 1169 715 1169 608 899 c 2,4,-1
 449 509 l 1,0,-1
810 1464 m 2,5,6
 813 1464 813 1464 897 1249 c 2,7,-1
 1405 1 l 1,8,-1
 1403 0 l 1,9,-1
 1194 0 l 2,10,11
 1190 0 1190 0 1165 67 c 2,12,-1
 1064 315 l 1,13,-1
 369 315 l 1,14,-1
 242 0 l 1,15,-1
 35 0 l 1,16,-1
 35 1 l 1,17,-1
 541 1250 l 1,18,-1
 629 1464 l 1,19,-1
 810 1464 l 2,5,6
EndSplineSet
EndChar

StartChar: B
Encoding: 66 66 37
Width: 1240
GlyphClass: 2
Flags: W
LayerCount: 2
Fore
SplineSet
364 665 m 1,0,-1
 364 194 l 1,1,-1
 697 194 l 2,2,3
 869 194 869 194 939 320 c 0,4,5
 959 362 959 362 959 426 c 2,6,-1
 959 461 l 2,7,8
 959 592 959 592 825 640 c 1,9,10
 760 668 760 668 666 668 c 2,11,-1
 367 668 l 1,12,-1
 364 665 l 1,0,-1
366 1272 m 1,13,-1
 366 860 l 1,14,-1
 645 860 l 2,15,16
 821 860 821 860 894 985 c 0,17,18
 911 1021 911 1021 911 1054 c 2,19,-1
 911 1099 l 2,20,21
 911 1209 911 1209 757 1258 c 0,22,23
 712 1272 712 1272 630 1272 c 2,24,-1
 366 1272 l 1,13,-1
175 1464 m 1,25,-1
 659 1464 l 2,26,27
 892 1464 892 1464 1030 1307 c 1,28,29
 1104 1214 1104 1214 1104 1087 c 2,30,-1
 1104 1066 l 2,31,32
 1104 899 1104 899 976 782 c 1,33,-1
 976 780 l 1,34,35
 1005 766 1005 766 1056 716 c 1,36,37
 1151 611 1151 611 1151 478 c 2,38,-1
 1151 406 l 2,39,40
 1151 200 1151 200 966 72 c 1,41,42
 872 22 872 22 849 22 c 1,43,44
 787 0 787 0 670 0 c 2,45,-1
 175 0 l 1,46,-1
 172 3 l 1,47,-1
 172 1461 l 1,48,-1
 175 1464 l 1,25,-1
EndSplineSet
EndChar

StartChar: C
Encoding: 67 67 38
Width: 1458
GlyphClass: 2
Flags: W
LayerCount: 2
Fore
SplineSet
788 1464 m 2,0,-1
 790 1464 l 2,1,2
 1073 1464 1073 1464 1285 1244 c 1,3,4
 1360 1158 1360 1158 1391 1096 c 1,5,6
 1383 1089 1383 1089 1222 1003 c 1,7,8
 1195 1052 1195 1052 1141 1116 c 1,9,10
 986 1272 986 1272 790 1272 c 0,11,12
 591 1272 591 1272 437 1114 c 1,13,14
 289 947 289 947 289 733 c 0,15,16
 289 485 289 485 478 310 c 1,17,18
 621 194 621 194 781 194 c 2,19,-1
 802 194 l 2,20,21
 978 194 978 194 1131 339 c 1,22,23
 1196 411 1196 411 1223 464 c 1,24,-1
 1392 375 l 1,25,-1
 1392 371 l 1,26,27
 1358 308 1358 308 1302 238 c 1,28,29
 1084 0 1084 0 790 0 c 0,30,31
 498 0 498 0 280 234 c 1,32,33
 97 455 97 455 97 729 c 2,34,-1
 97 735 l 2,35,36
 97 1012 97 1012 283 1232 c 1,37,38
 499 1464 499 1464 788 1464 c 2,0,-1
EndSplineSet
EndChar

StartChar: D
Encoding: 68 68 39
Width: 1382
GlyphClass: 2
Flags: W
LayerCount: 2
Fore
SplineSet
175 1463 m 1,0,-1
 556 1463 l 2,1,2
 820 1463 820 1463 1035 1285 c 1,3,4
 1118 1207 1118 1207 1141 1172 c 0,5,6
 1289 971 1289 971 1289 737 c 2,7,-1
 1289 726 l 2,8,9
 1289 434 1289 434 1067 206 c 1,10,11
 945 96 945 96 828 52 c 0,12,13
 694 0 694 0 565 0 c 2,14,-1
 175 0 l 1,15,-1
 172 3 l 1,16,-1
 172 1460 l 1,17,-1
 175 1463 l 1,0,-1
365 1268 m 1,18,-1
 365 193 l 1,19,-1
 541 193 l 2,20,21
 797 193 797 193 966 381 c 1,22,23
 1097 538 1097 538 1097 731 c 0,24,25
 1097 927 1097 927 963 1084 c 1,26,27
 884 1167 884 1167 840 1188 c 1,28,29
 801 1216 801 1216 716 1246 c 0,30,31
 641 1270 641 1270 520 1270 c 2,32,-1
 367 1270 l 1,33,-1
 365 1268 l 1,18,-1
EndSplineSet
EndChar

StartChar: E
Encoding: 69 69 40
Width: 1068
GlyphClass: 2
Flags: W
LayerCount: 2
Fore
SplineSet
173 1464 m 1,0,-1
 959 1464 l 1,1,-1
 960 1463 l 1,2,-1
 960 1271 l 1,3,-1
 365 1271 l 1,4,-1
 365 828 l 1,5,-1
 836 828 l 1,6,-1
 837 827 l 1,7,-1
 837 637 l 1,8,-1
 836 636 l 1,9,-1
 365 636 l 1,10,-1
 365 193 l 1,11,-1
 960 193 l 1,12,-1
 960 1 l 1,13,-1
 959 0 l 1,14,-1
 173 0 l 1,15,-1
 172 1 l 1,16,-1
 172 1463 l 1,17,-1
 173 1464 l 1,0,-1
EndSplineSet
EndChar

StartChar: F
Encoding: 70 70 41
Width: 1009
GlyphClass: 2
Flags: W
LayerCount: 2
Fore
SplineSet
173 1464 m 1,0,-1
 959 1464 l 1,1,-1
 960 1463 l 1,2,-1
 960 1272 l 1,3,-1
 959 1271 l 1,4,-1
 365 1271 l 1,5,-1
 365 828 l 1,6,-1
 848 828 l 1,7,-1
 848 636 l 1,8,-1
 365 636 l 1,9,-1
 365 1 l 1,10,-1
 364 0 l 1,11,-1
 173 0 l 1,12,-1
 172 1 l 1,13,-1
 172 1463 l 1,14,-1
 173 1464 l 1,0,-1
EndSplineSet
EndChar

StartChar: G
Encoding: 71 71 42
Width: 1611
GlyphClass: 2
Flags: W
LayerCount: 2
Fore
SplineSet
793 1464 m 2,0,-1
 796 1464 l 2,1,2
 1075 1464 1075 1464 1288 1254 c 1,3,4
 1364 1173 1364 1173 1403 1101 c 2,5,-1
 1414 1079 l 1,6,7
 1269 1003 1269 1003 1242 991 c 1,8,9
 1217 1043 1217 1043 1167 1100 c 0,10,11
 1105 1165 1105 1165 1074 1182 c 0,12,13
 943 1272 943 1272 796 1272 c 0,14,15
 565 1272 565 1272 400 1075 c 1,16,17
 283 917 283 917 283 733 c 0,18,19
 283 496 283 496 463 322 c 1,20,21
 611 194 611 194 796 194 c 0,22,23
 1008 194 1008 194 1167 364 c 1,24,25
 1261 475 1261 475 1289 597 c 1,26,-1
 921 597 l 1,27,-1
 919 600 l 1,28,-1
 919 787 l 1,29,-1
 920 788 l 1,30,-1
 920 790 l 1,31,-1
 1319 791 l 1,32,-1
 1500 791 l 1,33,-1
 1503 788 l 1,34,35
 1496 635 1496 635 1484 587 c 0,36,37
 1451 432 1451 432 1383 331 c 0,38,39
 1256 129 1256 129 1026 41 c 0,40,41
 908 0 908 0 794 0 c 0,42,43
 536 0 536 0 325 186 c 1,44,45
 91 417 91 417 91 731 c 2,46,-1
 91 735 l 2,47,48
 91 1045 91 1045 323 1277 c 1,49,50
 379 1325 379 1325 393 1333 c 0,51,52
 575 1464 575 1464 793 1464 c 2,0,-1
EndSplineSet
EndChar

StartChar: H
Encoding: 72 72 43
Width: 1364
GlyphClass: 2
Flags: W
LayerCount: 2
Fore
SplineSet
175 1464 m 1,0,-1
 362 1464 l 1,1,-1
 364 1461 l 1,2,-1
 364 829 l 1,3,-1
 998 829 l 1,4,-1
 998 1461 l 1,5,-1
 1001 1464 l 1,6,-1
 1189 1464 l 1,7,-1
 1192 1461 l 1,8,-1
 1192 3 l 1,9,-1
 1189 0 l 1,10,-1
 1002 0 l 1,11,-1
 1000 3 l 1,12,-1
 1000 635 l 1,13,-1
 364 635 l 1,14,-1
 364 3 l 1,15,-1
 362 0 l 1,16,-1
 175 0 l 1,17,-1
 172 3 l 1,18,-1
 172 1461 l 1,19,-1
 175 1464 l 1,0,-1
EndSplineSet
EndChar

StartChar: I
Encoding: 73 73 44
Width: 537
GlyphClass: 2
Flags: W
LayerCount: 2
Fore
SplineSet
173 1464 m 1,0,-1
 364 1464 l 1,1,-1
 365 1463 l 1,2,-1
 365 1 l 1,3,-1
 364 0 l 1,4,-1
 173 0 l 1,5,-1
 172 1 l 1,6,-1
 172 1463 l 1,7,-1
 173 1464 l 1,0,-1
EndSplineSet
EndChar

StartChar: J
Encoding: 74 74 45
Width: 1136
GlyphClass: 2
Flags: W
LayerCount: 2
Fore
SplineSet
775 1464 m 1,0,-1
 967 1464 l 1,1,-1
 967 436 l 2,2,3
 967 335 967 335 912 231 c 0,4,5
 894 198 894 198 864 161 c 0,6,7
 824 114 824 114 797 95 c 0,8,9
 755 62 755 62 716 43 c 0,10,11
 624 0 624 0 538 0 c 2,12,-1
 436 0 l 2,13,14
 342 0 342 0 244 51 c 0,15,16
 208 70 208 70 168 102 c 0,17,18
 149 118 149 118 124 145 c 0,19,20
 85 190 85 190 69 219 c 0,21,22
 56 239 56 239 37 284 c 0,23,24
 7 363 7 363 7 435 c 2,25,-1
 7 512 l 1,26,-1
 8 513 l 1,27,-1
 199 513 l 1,28,-1
 200 512 l 1,29,-1
 200 442 l 2,30,31
 200 352 200 352 267 275 c 0,32,33
 296 245 296 245 310 238 c 0,34,35
 373 193 373 193 444 193 c 2,36,-1
 532 193 l 2,37,38
 607 193 607 193 676 246 c 0,39,40
 707 272 707 272 723 294 c 0,41,42
 774 364 774 364 774 445 c 2,43,-1
 774 1463 l 1,44,-1
 775 1464 l 1,0,-1
EndSplineSet
EndChar

StartChar: K
Encoding: 75 75 46
Width: 1327
GlyphClass: 2
Flags: W
LayerCount: 2
Fore
SplineSet
175 1464 m 1,0,-1
 362 1464 l 1,1,-1
 364 1461 l 1,2,-1
 364 710 l 1,3,4
 382 728 382 728 1014 1460 c 1,5,-1
 1019 1464 l 1,6,-1
 1269 1464 l 1,7,-1
 1272 1461 l 1,8,-1
 664 759 l 1,9,-1
 1279 3 l 1,10,-1
 1279 1 l 1,11,-1
 1023 1 l 1,12,-1
 535 610 l 1,13,-1
 364 412 l 1,14,-1
 364 3 l 1,15,-1
 362 0 l 1,16,-1
 175 0 l 1,17,-1
 172 3 l 1,18,-1
 172 1461 l 1,19,-1
 175 1464 l 1,0,-1
EndSplineSet
EndChar

StartChar: L
Encoding: 76 76 47
Width: 1019
GlyphClass: 2
Flags: W
LayerCount: 2
Fore
SplineSet
173 1464 m 1,0,-1
 364 1464 l 1,1,-1
 365 1463 l 1,2,-1
 365 193 l 1,3,-1
 1000 193 l 1,4,-1
 1001 192 l 1,5,-1
 1001 1 l 1,6,-1
 1000 0 l 1,7,-1
 173 0 l 1,8,-1
 172 1 l 1,9,-1
 172 1463 l 1,10,-1
 173 1464 l 1,0,-1
EndSplineSet
EndChar

StartChar: M
Encoding: 77 77 48
Width: 1880
GlyphClass: 2
Flags: W
LayerCount: 2
Fore
SplineSet
175 1464 m 1,0,-1
 409 1464 l 1,1,2
 415 1458 415 1458 670 885 c 2,3,-1
 939 285 l 1,4,-1
 941 285 l 1,5,-1
 1470 1464 l 1,6,-1
 1705 1464 l 1,7,-1
 1708 1461 l 1,8,-1
 1708 3 l 1,9,-1
 1705 0 l 1,10,-1
 1506 0 l 1,11,-1
 1504 3 l 1,12,-1
 1504 1069 l 1,13,-1
 1502 1069 l 1,14,-1
 1026 5 l 1,15,-1
 1022 1 l 1,16,-1
 858 1 l 2,17,18
 855 1 855 1 828 65 c 2,19,-1
 378 1069 l 1,20,-1
 376 1069 l 1,21,-1
 376 3 l 1,22,-1
 374 0 l 1,23,-1
 175 0 l 1,24,-1
 172 3 l 1,25,-1
 172 1461 l 1,26,-1
 175 1464 l 1,0,-1
EndSplineSet
EndChar

StartChar: N
Encoding: 78 78 49
Width: 1516
GlyphClass: 2
Flags: W
LayerCount: 2
Fore
SplineSet
175 1464 m 1,0,-1
 383 1464 l 1,1,-1
 1085 418 l 1,2,-1
 1149 321 l 1,3,-1
 1150 321 l 1,4,-1
 1150 1461 l 1,5,-1
 1153 1464 l 1,6,-1
 1341 1464 l 1,7,-1
 1344 1461 l 1,8,-1
 1344 3 l 1,9,-1
 1341 0 l 1,10,-1
 1133 0 l 1,11,12
 1079 76 1079 76 734 596 c 1,13,-1
 364 1144 l 1,14,-1
 364 3 l 1,15,-1
 362 0 l 1,16,-1
 175 0 l 1,17,-1
 172 3 l 1,18,-1
 172 1461 l 1,19,-1
 175 1464 l 1,0,-1
EndSplineSet
EndChar

StartChar: O
Encoding: 79 79 50
Width: 1597
GlyphClass: 2
Flags: W
LayerCount: 2
Fore
SplineSet
801 1464 m 2,0,-1
 804 1464 l 2,1,2
 1094 1464 1094 1464 1313 1237 c 1,3,4
 1507 1015 1507 1015 1507 732 c 0,5,6
 1507 422 1507 422 1278 191 c 1,7,8
 1065 0 1065 0 804 0 c 0,9,10
 542 0 542 0 332 187 c 1,11,12
 239 283 239 283 212 335 c 1,13,14
 99 518 99 518 99 731 c 2,15,-1
 99 735 l 2,16,17
 99 1045 99 1045 331 1277 c 1,18,-1
 398 1332 l 1,19,20
 585 1464 585 1464 801 1464 c 2,0,-1
291 733 m 0,21,22
 291 496 291 496 471 322 c 1,23,24
 619 194 619 194 804 194 c 0,25,26
 1044 194 1044 194 1209 406 c 1,27,28
 1313 558 1313 558 1313 724 c 2,29,-1
 1313 737 l 2,30,31
 1313 942 1313 942 1170 1107 c 1,32,33
 1010 1272 1010 1272 804 1272 c 0,34,35
 573 1272 573 1272 408 1075 c 1,36,37
 291 917 291 917 291 733 c 0,21,22
EndSplineSet
EndChar

StartChar: P
Encoding: 80 80 51
Width: 1227
GlyphClass: 2
Flags: W
LayerCount: 2
Fore
SplineSet
175 1464 m 1,0,-1
 657 1464 l 2,1,2
 889 1464 889 1464 1051 1290 c 1,3,4
 1166 1150 1166 1150 1166 982 c 0,5,6
 1166 764 1166 764 981 609 c 1,7,8
 836 500 836 500 654 500 c 2,9,-1
 364 500 l 1,10,-1
 364 3 l 1,11,-1
 362 0 l 1,12,-1
 175 0 l 1,13,-1
 172 3 l 1,14,-1
 172 1461 l 1,15,-1
 175 1464 l 1,0,-1
364 1269 m 1,16,-1
 364 694 l 1,17,-1
 666 694 l 2,18,19
 810 694 810 694 914 813 c 1,20,21
 972 893 972 893 972 976 c 2,22,-1
 972 989 l 2,23,24
 972 1120 972 1120 846 1214 c 0,25,26
 768 1272 768 1272 629 1272 c 2,27,-1
 367 1272 l 1,28,-1
 364 1269 l 1,16,-1
EndSplineSet
EndChar

StartChar: Q
Encoding: 81 81 52
Width: 1574
GlyphClass: 2
Flags: W
LayerCount: 2
Fore
SplineSet
287 749 m 0,0,1
 287 517 287 517 463 347 c 1,2,3
 608 222 608 222 788 222 c 0,4,5
 922 222 922 222 1044 296 c 1,6,-1
 1044 297 l 1,7,-1
 930 409 l 1,8,-1
 1061 544 l 1,9,-1
 1183 428 l 1,10,11
 1286 573 1286 573 1286 740 c 2,12,-1
 1286 753 l 2,13,14
 1286 954 1286 954 1147 1114 c 1,15,16
 990 1276 990 1276 788 1276 c 0,17,18
 563 1276 563 1276 401 1084 c 1,19,20
 287 929 287 929 287 749 c 0,0,1
786 1464 m 2,21,-1
 788 1464 l 2,22,23
 1072 1464 1072 1464 1286 1242 c 1,24,25
 1476 1024 1476 1024 1476 748 c 0,26,27
 1476 498 1476 498 1320 295 c 1,28,-1
 1484 136 l 1,29,-1
 1484 134 l 1,30,-1
 1353 0 l 1,31,-1
 1184 163 l 1,32,33
 999 32 999 32 788 32 c 0,34,35
 532 32 532 32 327 215 c 1,36,37
 236 309 236 309 209 360 c 0,38,39
 99 539 99 539 99 747 c 2,40,-1
 99 751 l 2,41,42
 99 1054 99 1054 326 1281 c 1,43,-1
 391 1335 l 1,44,45
 574 1464 574 1464 786 1464 c 2,21,-1
EndSplineSet
EndChar

StartChar: R
Encoding: 82 82 53
Width: 1214
GlyphClass: 2
Flags: W
LayerCount: 2
Fore
SplineSet
175 1464 m 1,0,-1
 657 1464 l 2,1,2
 889 1464 889 1464 1051 1290 c 1,3,4
 1166 1150 1166 1150 1166 982 c 0,5,6
 1166 776 1166 776 1001 626 c 1,7,8
 912 554 912 554 845 534 c 1,9,10
 845 529 845 529 1041 195 c 2,11,-1
 1153 3 l 1,12,-1
 1151 1 l 1,13,-1
 924 1 l 2,14,15
 920 1 920 1 869 97 c 0,16,17
 657 469 657 469 642 500 c 1,18,-1
 364 500 l 1,19,-1
 364 3 l 1,20,-1
 362 0 l 1,21,-1
 175 0 l 1,22,-1
 172 3 l 1,23,-1
 172 1461 l 1,24,-1
 175 1464 l 1,0,-1
364 1269 m 1,25,-1
 364 694 l 1,26,-1
 666 694 l 2,27,28
 810 694 810 694 914 813 c 1,29,30
 972 893 972 893 972 976 c 2,31,-1
 972 989 l 2,32,33
 972 1120 972 1120 846 1214 c 0,34,35
 768 1272 768 1272 629 1272 c 2,36,-1
 367 1272 l 1,37,-1
 364 1269 l 1,25,-1
EndSplineSet
EndChar

StartChar: S
Encoding: 83 83 54
Width: 1127
GlyphClass: 2
Flags: W
LayerCount: 2
Fore
SplineSet
569 1481 m 2,0,-1
 586 1481 l 2,1,2
 700 1481 700 1481 810 1426 c 0,3,4
 845 1407 845 1407 879 1382 c 0,5,6
 896 1370 896 1370 933 1336 c 0,7,8
 972 1294 972 1294 989 1268 c 0,9,10
 1004 1246 1004 1246 1016 1224 c 1,11,-1
 842 1138 l 1,12,13
 834 1156 834 1156 804 1190 c 0,14,15
 712 1288 712 1288 576 1288 c 0,16,17
 442 1288 442 1288 359 1209 c 0,18,19
 328 1175 328 1175 320 1155 c 0,20,21
 296 1109 296 1109 296 1060 c 2,22,-1
 296 1053 l 2,23,24
 296 984 296 984 347 946 c 0,25,26
 370 928 370 928 391 917 c 0,27,28
 443 889 443 889 545 860 c 0,29,30
 621 838 621 838 728 815 c 1,31,32
 788 798 788 798 828 779 c 0,33,34
 867 760 867 760 909 728 c 0,35,36
 946 697 946 697 974 662 c 0,37,38
 1053 555 1053 555 1053 425 c 2,39,-1
 1053 420 l 2,40,41
 1053 292 1053 292 976 177 c 0,42,43
 963 156 963 156 929 120 c 0,44,45
 883 78 883 78 853 60 c 0,46,47
 821 40 821 40 783 24 c 0,48,49
 678 -20 678 -20 566 -20 c 0,50,51
 393 -20 393 -20 249 82 c 0,52,53
 223 102 223 102 195 128 c 0,54,55
 155 168 155 168 139 190 c 0,56,57
 108 232 108 232 91 264 c 0,58,59
 73 298 73 298 71 305 c 1,60,-1
 246 386 l 1,61,62
 262 350 262 350 290 312 c 0,63,64
 303 293 303 293 330 267 c 0,65,66
 369 232 369 232 393 219 c 0,67,68
 474 174 474 174 563 174 c 2,69,-1
 570 174 l 2,70,71
 659 174 659 174 740 218 c 0,72,73
 762 231 762 231 786 252 c 0,74,75
 813 279 813 279 826 301 c 0,76,77
 860 360 860 360 860 423 c 0,78,79
 860 525 860 525 774 587 c 0,80,81
 749 603 749 603 729 611 c 0,82,83
 694 627 694 627 620 641 c 0,84,85
 410 689 410 689 314 739 c 0,86,87
 102 844 102 844 102 1057 c 0,88,89
 102 1199 102 1199 195 1315 c 0,90,91
 225 1351 225 1351 259 1378 c 0,92,93
 300 1409 300 1409 331 1425 c 0,94,95
 365 1443 365 1443 413 1458 c 0,96,97
 491 1481 491 1481 569 1481 c 2,0,-1
EndSplineSet
EndChar

StartChar: T
Encoding: 84 84 55
Width: 1002
GlyphClass: 2
Flags: W
LayerCount: 2
Fore
SplineSet
16 1464 m 1,0,-1
 986 1464 l 1,1,-1
 987 1463 l 1,2,-1
 987 1272 l 1,3,-1
 986 1271 l 1,4,-1
 598 1271 l 1,5,-1
 598 1 l 1,6,-1
 597 0 l 1,7,-1
 405 0 l 1,8,-1
 404 1 l 1,9,-1
 404 1271 l 1,10,-1
 16 1271 l 1,11,-1
 15 1272 l 1,12,-1
 15 1463 l 1,13,-1
 16 1464 l 1,0,-1
EndSplineSet
EndChar

StartChar: U
Encoding: 85 85 56
Width: 1485
GlyphClass: 2
Flags: W
LayerCount: 2
Fore
SplineSet
173 1464 m 1,0,-1
 360 1464 l 1,1,-1
 362 1461 l 1,2,-1
 362 570 l 2,3,4
 362 409 362 409 417 332 c 1,5,6
 467 245 467 245 585 205 c 1,7,8
 630 194 630 194 671 194 c 2,9,-1
 814 194 l 2,10,11
 985 194 985 194 1079 349 c 1,12,13
 1122 432 1122 432 1122 543 c 2,14,-1
 1122 1461 l 1,15,-1
 1125 1464 l 1,16,-1
 1313 1464 l 1,17,-1
 1316 1461 l 1,18,-1
 1316 593 l 2,19,20
 1316 419 1316 419 1285 341 c 0,21,22
 1224 168 1224 168 1085 78 c 0,23,24
 964 0 964 0 791 0 c 2,25,-1
 695 0 l 2,26,27
 467 0 467 0 328 137 c 0,28,29
 267 198 267 198 235 259 c 0,30,31
 170 387 170 387 170 532 c 2,32,-1
 170 1461 l 1,33,-1
 173 1464 l 1,0,-1
EndSplineSet
EndChar

StartChar: V
Encoding: 86 86 57
Width: 1453
GlyphClass: 2
Flags: W
LayerCount: 2
Fore
SplineSet
34 1464 m 1,0,-1
 250 1464 l 2,1,2
 253 1462 253 1462 342 1241 c 2,3,-1
 726 295 l 1,4,-1
 727 295 l 1,5,-1
 1194 1447 l 2,6,7
 1200 1464 1200 1464 1203 1464 c 2,8,-1
 1417 1464 l 1,9,-1
 1418 1463 l 1,10,-1
 1419 1463 l 1,11,-1
 827 29 l 2,12,13
 818 1 818 1 814 0 c 2,14,-1
 640 0 l 2,15,16
 635 1 635 1 620 43 c 0,17,18
 204 1046 204 1046 181 1108 c 0,19,20
 170 1127 170 1127 34 1463 c 1,21,-1
 34 1464 l 1,0,-1
EndSplineSet
EndChar

StartChar: W
Encoding: 87 87 58
Width: 2065
GlyphClass: 2
Flags: W
LayerCount: 2
Fore
SplineSet
269 1464 m 2,0,1
 274 1464 274 1464 289 1400 c 1,2,3
 306 1346 306 1346 550 465 c 1,4,-1
 577 371 l 1,5,-1
 579 371 l 1,6,-1
 938 1388 l 2,7,8
 963 1460 963 1460 967 1464 c 1,9,-1
 1098 1464 l 2,10,11
 1101 1464 1101 1464 1123 1398 c 2,12,-1
 1487 371 l 1,13,-1
 1488 371 l 1,14,-1
 1792 1463 l 1,15,-1
 1794 1464 l 1,16,-1
 2001 1464 l 1,17,-1
 2002 1463 l 1,18,-1
 2003 1463 l 1,19,-1
 1597 45 l 2,20,21
 1586 0 1586 0 1583 0 c 2,22,-1
 1415 0 l 1,23,24
 1410 6 1410 6 1296 334 c 0,25,26
 1268 407 1268 407 1034 1075 c 1,27,28
 1027 1065 1027 1065 998 978 c 2,29,-1
 651 0 l 1,30,-1
 482 0 l 2,31,32
 479 0 479 0 456 88 c 2,33,-1
 61 1463 l 1,34,-1
 62 1464 l 1,35,-1
 269 1464 l 2,0,1
EndSplineSet
EndChar

StartChar: X
Encoding: 88 88 59
Width: 1469
GlyphClass: 2
Flags: W
LayerCount: 2
Fore
SplineSet
328 1464 m 1,0,-1
 733 898 l 1,1,2
 772 948 772 948 1138 1463 c 1,3,-1
 1140 1464 l 1,4,-1
 1386 1464 l 1,5,-1
 1386 1461 l 1,6,-1
 871 756 l 1,7,-1
 1420 3 l 1,8,-1
 1420 0 l 1,9,-1
 1175 0 l 1,10,11
 1166 10 1166 10 850 453 c 0,12,13
 739 607 739 607 736 613 c 1,14,-1
 735 613 l 1,15,-1
 294 0 l 1,16,-1
 51 0 l 1,17,-1
 48 3 l 1,18,-1
 580 731 l 1,19,-1
 598 755 l 1,20,-1
 82 1463 l 1,21,-1
 83 1464 l 1,22,-1
 328 1464 l 1,0,-1
EndSplineSet
EndChar

StartChar: Y
Encoding: 89 89 60
Width: 1360
GlyphClass: 2
Flags: W
LayerCount: 2
Fore
SplineSet
30 1464 m 1,0,-1
 275 1464 l 1,1,2
 286 1453 286 1453 477 1184 c 2,3,-1
 683 898 l 1,4,5
 1068 1439 1068 1439 1089 1464 c 1,6,-1
 1334 1464 l 1,7,-1
 1334 1463 l 1,8,-1
 784 706 l 1,9,-1
 784 3 l 1,10,-1
 781 0 l 1,11,-1
 583 0 l 1,12,-1
 580 3 l 1,13,-1
 580 704 l 2,14,15
 580 710 580 710 515 798 c 2,16,-1
 30 1463 l 1,17,-1
 30 1464 l 1,0,-1
EndSplineSet
EndChar

StartChar: Z
Encoding: 90 90 61
Width: 1286
GlyphClass: 2
Flags: W
LayerCount: 2
Fore
SplineSet
161 1464 m 1,0,-1
 1243 1464 l 1,1,-1
 1243 1461 l 1,2,-1
 415 194 l 1,3,-1
 1238 194 l 1,4,-1
 1240 191 l 1,5,-1
 1240 3 l 1,6,-1
 1238 0 l 1,7,-1
 59 0 l 1,8,-1
 59 3 l 1,9,-1
 887 1272 l 1,10,-1
 161 1272 l 1,11,-1
 159 1274 l 1,12,-1
 159 1461 l 1,13,-1
 161 1464 l 1,0,-1
EndSplineSet
EndChar

StartChar: bracketleft
Encoding: 91 91 62
Width: 827
GlyphClass: 2
Flags: W
LayerCount: 2
Fore
SplineSet
191 1515 m 1,0,-1
 606 1515 l 1,1,-1
 607 1514 l 1,2,-1
 607 1323 l 1,3,-1
 606 1322 l 1,4,-1
 383 1322 l 1,5,-1
 383 22 l 1,6,-1
 606 22 l 1,7,-1
 607 21 l 1,8,-1
 607 -170 l 1,9,-1
 606 -171 l 1,10,-1
 191 -171 l 1,11,-1
 190 -170 l 1,12,-1
 190 1514 l 1,13,-1
 191 1515 l 1,0,-1
EndSplineSet
EndChar

StartChar: backslash
Encoding: 92 92 63
Width: 715
GlyphClass: 2
Flags: W
LayerCount: 2
Fore
SplineSet
194 1373 m 1,0,-1
 692 -49 l 1,1,-1
 691 -50 l 1,2,-1
 500 -50 l 1,3,-1
 499 -49 l 1,4,-1
 1 1373 l 1,5,-1
 2 1374 l 1,6,-1
 193 1374 l 1,7,-1
 194 1373 l 1,0,-1
EndSplineSet
EndChar

StartChar: bracketright
Encoding: 93 93 64
Width: 827
GlyphClass: 2
Flags: W
LayerCount: 2
Fore
SplineSet
637 1514 m 1,0,-1
 637 -170 l 1,1,-1
 636 -171 l 1,2,-1
 221 -171 l 1,3,-1
 220 -170 l 1,4,-1
 220 21 l 1,5,-1
 221 22 l 1,6,-1
 444 22 l 1,7,-1
 444 1322 l 1,8,-1
 221 1322 l 1,9,-1
 220 1323 l 1,10,-1
 220 1514 l 1,11,-1
 221 1515 l 1,12,-1
 636 1515 l 1,13,-1
 637 1514 l 1,0,-1
EndSplineSet
EndChar

StartChar: asciicircum
Encoding: 94 94 65
Width: 1008
GlyphClass: 2
Flags: W
LayerCount: 2
Fore
SplineSet
429 1400 m 1,0,-1
 578 1400 l 1,1,2
 582 1396 582 1396 623 1331 c 0,3,4
 649 1292 649 1292 812 1039 c 2,5,-1
 940 842 l 1,6,-1
 778 737 l 1,7,-1
 777 737 l 1,8,-1
 600 1011 l 1,9,-1
 504 1160 l 1,10,-1
 243 756 l 1,11,-1
 230 737 l 1,12,13
 73 838 73 838 68 842 c 1,14,-1
 330 1247 l 2,15,16
 426 1396 426 1396 429 1400 c 1,0,-1
EndSplineSet
EndChar

StartChar: underscore
Encoding: 95 95 66
Width: 1090
GlyphClass: 2
Flags: W
LayerCount: 2
Fore
SplineSet
70 7 m 1,0,-1
 1018 7 l 1,1,-1
 1020 6 l 1,2,-1
 1020 -185 l 1,3,-1
 1018 -186 l 1,4,-1
 70 -186 l 1,5,-1
 70 7 l 1,0,-1
EndSplineSet
EndChar

StartChar: grave
Encoding: 96 96 67
Width: 968
GlyphClass: 2
Flags: W
LayerCount: 2
Fore
SplineSet
343 2032 m 1,0,-1
 726 1798 l 1,1,-1
 726 1796 l 1,2,-1
 626 1634 l 1,3,-1
 625 1633 l 1,4,-1
 242 1868 l 1,5,-1
 343 2032 l 1,0,-1
EndSplineSet
EndChar

StartChar: a
Encoding: 97 97 68
Width: 1211
GlyphClass: 2
Flags: W
LayerCount: 2
Fore
SplineSet
581 973 m 0,0,1
 748 973 748 973 867 846 c 1,2,-1
 867 956 l 1,3,-1
 870 958 l 1,4,-1
 1059 958 l 1,5,-1
 1061 956 l 1,6,-1
 1061 2 l 1,7,-1
 1059 0 l 1,8,-1
 870 0 l 1,9,-1
 867 2 l 1,10,-1
 867 99 l 1,11,12
 755 -24 755 -24 579 -24 c 2,13,-1
 578 -24 l 2,14,15
 359 -24 359 -24 206 153 c 1,16,17
 92 296 92 296 92 474 c 2,18,-1
 92 475 l 2,19,20
 92 695 92 695 262 855 c 1,21,22
 403 973 403 973 581 973 c 0,0,1
285 475 m 0,23,24
 285 317 285 317 421 216 c 1,25,26
 497 170 497 170 565 170 c 2,27,-1
 587 170 l 2,28,29
 683 170 683 170 773 248 c 1,30,31
 867 344 867 344 867 474 c 2,32,-1
 867 475 l 2,33,34
 867 635 867 635 731 733 c 1,35,36
 656 779 656 779 583 779 c 2,37,-1
 567 779 l 2,38,39
 447 779 447 779 350 668 c 1,40,41
 285 576 285 576 285 475 c 0,23,24
EndSplineSet
EndChar

StartChar: b
Encoding: 98 98 69
Width: 1217
GlyphClass: 2
Flags: W
LayerCount: 2
Fore
SplineSet
346 476 m 2,0,-1
 346 471 l 2,1,2
 346 373 346 373 405 290 c 0,3,4
 423 265 423 265 442 248 c 2,5,-1
 460 232 l 2,6,7
 485 210 485 210 515 197 c 0,8,9
 581 169 581 169 636 169 c 0,10,11
 768 169 768 169 848 263 c 0,12,13
 882 303 882 303 899 340 c 0,14,15
 928 404 928 404 928 472 c 2,16,-1
 928 476 l 2,17,18
 928 589 928 589 853 680 c 1,19,20
 763 780 763 780 633 780 c 0,21,22
 572 780 572 780 508 748 c 0,23,24
 474 731 474 731 448 706 c 0,25,26
 420 679 420 679 413 669 c 0,27,28
 346 584 346 584 346 476 c 2,0,-1
157 2382 m 1,29,-1
 348 2382 l 1,30,-1
 349 2381 l 1,31,-1
 346 845 l 1,32,-1
 347 845 l 1,33,34
 362 865 362 865 388 886 c 0,35,36
 497 973 497 973 637 973 c 2,37,-1
 638 973 l 2,38,39
 797 973 797 973 935 868 c 0,40,41
 964 846 964 846 988 819 c 0,42,43
 1052 749 1052 749 1087 660 c 0,44,45
 1122 570 1122 570 1122 474 c 0,46,47
 1122 350 1122 350 1060 231 c 0,48,49
 1037 187 1037 187 1004 148 c 128,-1,50
 971 109 971 109 941 85 c 0,51,52
 913 63 913 63 889 49 c 0,53,54
 771 -24 771 -24 642 -24 c 2,55,-1
 629 -24 l 2,56,57
 570 -24 570 -24 500 -3 c 0,58,59
 468 7 468 7 432 28 c 0,60,61
 399 48 399 48 379 67 c 0,62,63
 363 82 363 82 346 100 c 1,64,-1
 346 0 l 1,65,-1
 153 0 l 1,66,-1
 156 2381 l 1,67,-1
 157 2382 l 1,29,-1
EndSplineSet
EndChar

StartChar: c
Encoding: 99 99 70
Width: 1043
GlyphClass: 2
Flags: W
LayerCount: 2
Fore
SplineSet
574 973 m 2,0,-1
 576 973 l 2,1,2
 726 973 726 973 856 881 c 0,3,4
 880 863 880 863 910 834 c 0,5,6
 947 796 947 796 959 777 c 0,7,8
 974 757 974 757 974 755 c 2,9,-1
 814 649 l 1,10,-1
 813 649 l 1,11,12
 802 667 802 667 774 696 c 0,13,14
 686 780 686 780 574 780 c 0,15,16
 467 780 467 780 380 702 c 0,17,18
 348 670 348 670 341 656 c 0,19,20
 283 574 283 574 283 474 c 0,21,22
 283 366 283 366 352 277 c 0,23,24
 374 251 374 251 398 231 c 0,25,26
 478 169 478 169 575 169 c 0,27,28
 663 169 663 169 739 223 c 0,29,30
 756 234 756 234 786 264 c 0,31,32
 803 284 803 284 815 303 c 1,33,-1
 816 303 l 1,34,-1
 977 197 l 1,35,36
 960 170 960 170 931 137 c 0,37,38
 897 100 897 100 883 90 c 0,39,40
 850 63 850 63 826 48 c 0,41,42
 707 -24 707 -24 579 -24 c 2,43,-1
 570 -24 l 2,44,45
 433 -24 433 -24 309 57 c 0,46,47
 285 74 285 74 265 90 c 0,48,49
 228 124 228 124 210 146 c 0,50,51
 170 195 170 195 153 228 c 0,52,53
 134 260 134 260 116 313 c 0,54,55
 90 394 90 394 90 466 c 2,56,-1
 90 482 l 2,57,58
 90 594 90 594 145 707 c 0,59,60
 162 738 162 738 184 771 c 0,61,62
 201 794 201 794 235 831 c 0,63,64
 275 869 275 869 304 889 c 0,65,66
 429 973 429 973 574 973 c 2,0,-1
EndSplineSet
EndChar

StartChar: d
Encoding: 100 100 71
Width: 1217
GlyphClass: 2
Flags: W
LayerCount: 2
Fore
SplineSet
805 669 m 0,1,2
 798 679 798 679 770 706 c 0,3,4
 740 733 740 733 710 748 c 0,5,6
 643 780 643 780 585 780 c 0,7,8
 455 780 455 780 365 680 c 1,9,10
 290 589 290 589 290 476 c 2,11,-1
 290 472 l 2,12,13
 290 404 290 404 319 340 c 0,14,15
 336 303 336 303 370 263 c 0,16,17
 460 169 460 169 582 169 c 0,18,19
 642 169 642 169 703 197 c 0,20,21
 726 208 726 208 758 232 c 2,22,-1
 776 248 l 2,23,24
 800 272 800 272 813 290 c 0,25,26
 872 373 872 373 872 471 c 2,27,-1
 872 476 l 2,28,0
 872 584 872 584 805 669 c 0,1,2
1062 2388 m 1,29,-1
 1065 0 l 1,30,-1
 872 0 l 1,31,-1
 872 100 l 1,32,33
 855 82 855 82 839 67 c 0,34,35
 809 42 809 42 786 28 c 0,36,37
 750 7 750 7 718 -3 c 0,38,39
 648 -24 648 -24 589 -24 c 2,40,-1
 576 -24 l 2,41,42
 454 -24 454 -24 329 49 c 0,43,44
 305 63 305 63 277 85 c 0,45,46
 247 109 247 109 214 148 c 128,-1,47
 181 187 181 187 158 231 c 0,48,49
 96 347 96 347 96 474 c 0,50,51
 96 567 96 567 131 660 c 0,52,53
 161 742 161 742 230 819 c 0,54,55
 254 846 254 846 283 868 c 0,56,57
 418 973 418 973 580 973 c 2,58,-1
 581 973 l 2,59,60
 721 973 721 973 830 886 c 0,61,62
 856 865 856 865 871 845 c 1,63,-1
 872 845 l 1,64,-1
 869 2388 l 1,65,-1
 870 2389 l 1,66,-1
 1061 2389 l 1,67,-1
 1062 2388 l 1,29,-1
EndSplineSet
EndChar

StartChar: e
Encoding: 101 101 72
Width: 1066
GlyphClass: 2
Flags: W
LayerCount: 2
Fore
SplineSet
283 598 m 1,0,-1
 768 598 l 1,1,-1
 768 599 l 1,2,3
 751 650 751 650 690 715 c 1,4,5
 614 780 614 780 524 780 c 0,6,7
 387 780 387 780 299 635 c 1,8,-1
 283 598 l 1,0,-1
511 973 m 2,9,-1
 540 973 l 2,10,11
 686 973 686 973 821 856 c 1,12,13
 887 791 887 791 912 744 c 0,14,15
 985 615 985 615 985 474 c 2,16,-1
 985 444 l 2,17,18
 985 416 985 416 981 416 c 2,19,-1
 265 416 l 1,20,21
 288 309 288 309 341 256 c 0,22,23
 422 169 422 169 525 169 c 0,24,25
 655 169 655 169 743 300 c 1,26,27
 760 333 760 333 763 334 c 0,28,29
 935 256 935 256 937 254 c 0,30,31
 923 219 923 219 874 149 c 1,32,33
 727 -24 727 -24 527 -24 c 2,34,-1
 523 -24 l 2,35,36
 317 -24 317 -24 169 159 c 1,37,38
 67 302 67 302 67 472 c 2,39,-1
 67 476 l 2,40,41
 67 710 67 710 246 872 c 1,42,43
 378 973 378 973 511 973 c 2,9,-1
EndSplineSet
EndChar

StartChar: f
Encoding: 102 102 73
Width: 649
GlyphClass: 2
Flags: W
LayerCount: 2
Fore
SplineSet
620 1464 m 6,0,-1
 677 1464 l 5,1,-1
 678 1463 l 5,2,-1
 678 1271 l 5,3,-1
 677 1270 l 5,4,-1
 627 1270 l 6,5,6
 498 1270 498 1270 441 1150 c 4,7,8
 406 1076 406 1076 406 958 c 5,9,-1
 677 958 l 5,10,-1
 678 957 l 5,11,-1
 678 766 l 5,12,-1
 677 765 l 5,13,-1
 406 765 l 5,14,-1
 406 1 l 1,15,-1
 405 0 l 1,16,-1
 213 0 l 1,17,-1
 213 765 l 5,18,-1
 28 765 l 5,19,-1
 27 766 l 5,20,-1
 27 957 l 5,21,-1
 28 958 l 5,22,-1
 213 958 l 5,23,-1
 213 962 l 6,24,25
 213 1223 213 1223 357 1360 c 4,26,27
 411 1410 411 1410 467 1433 c 4,28,29
 544 1464 544 1464 620 1464 c 6,0,-1
EndSplineSet
EndChar

StartChar: g
Encoding: 103 103 74
Width: 1172
GlyphClass: 2
Flags: W
LayerCount: 2
Fore
SplineSet
322 604 m 0,0,1
 322 538 322 538 385 486 c 0,2,3
 452 435 452 435 537 435 c 2,4,-1
 541 435 l 2,5,6
 616 435 616 435 680 476 c 0,7,8
 732 511 732 511 751 566 c 0,9,10
 757 586 757 586 757 604 c 0,11,12
 757 671 757 671 693 723 c 0,13,14
 627 773 627 773 539 773 c 0,15,16
 454 773 454 773 387 724 c 0,17,18
 322 672 322 672 322 604 c 0,0,1
289 -98 m 2,19,-1
 289 -101 l 2,20,21
 289 -146 289 -146 354 -187 c 0,22,23
 442 -238 442 -238 570 -238 c 2,24,-1
 581 -238 l 2,25,26
 694 -238 694 -238 781 -191 c 0,27,28
 802 -180 802 -180 825 -159 c 0,29,30
 862 -122 862 -122 862 -90 c 0,31,32
 862 -45 862 -45 796 -14 c 0,33,34
 774 -4 774 -4 739 4 c 0,35,36
 680 15 680 15 636 15 c 2,37,-1
 524 14 l 2,38,39
 448 14 448 14 384 23 c 1,40,41
 365 14 365 14 344 -1 c 0,42,43
 289 -45 289 -45 289 -98 c 2,19,-1
933 972 m 2,44,-1
 971 972 l 1,45,-1
 972 971 l 1,46,-1
 972 779 l 1,47,-1
 971 778 l 1,48,-1
 927 778 l 2,49,50
 914 778 914 778 903 773 c 1,51,52
 950 694 950 694 950 604 c 0,53,54
 950 497 950 497 883 406 c 0,55,56
 872 389 872 389 838 355 c 0,57,58
 775 299 775 299 709 274 c 0,59,60
 627 242 627 242 539 242 c 0,61,62
 447 242 447 242 360 278 c 1,63,64
 340 262 340 262 340 251 c 2,65,-1
 340 250 l 2,66,67
 340 225 340 225 412 214 c 0,68,69
 461 207 461 207 538 207 c 2,70,-1
 623 208 l 2,71,72
 818 208 818 208 933 131 c 0,73,74
 951 120 951 120 981 90 c 0,75,76
 1008 61 1008 61 1022 36 c 0,77,78
 1056 -26 1056 -26 1056 -90 c 0,79,80
 1056 -189 1056 -189 979 -278 c 0,81,82
 945 -314 945 -314 928 -325 c 0,83,84
 892 -351 892 -351 864 -366 c 0,85,86
 840 -379 840 -379 806 -392 c 0,87,88
 776 -403 776 -403 734 -414 c 0,89,90
 657 -431 657 -431 590 -431 c 2,91,-1
 561 -431 l 2,92,93
 445 -431 445 -431 335 -392 c 0,94,95
 289 -374 289 -374 254 -353 c 0,96,97
 228 -338 228 -338 197 -312 c 0,98,99
 161 -277 161 -277 155 -267 c 0,100,101
 134 -239 134 -239 125 -219 c 0,102,103
 96 -161 96 -161 96 -106 c 2,104,-1
 96 -90 l 2,105,106
 96 -55 96 -55 112 -7 c 0,107,108
 124 24 124 24 143 53 c 0,109,110
 155 71 155 71 182 99 c 2,111,-1
 200 116 l 1,112,113
 171 160 171 160 171 210 c 2,114,-1
 171 217 l 2,115,116
 171 283 171 283 226 370 c 1,117,118
 188 412 188 412 177 434 c 0,119,120
 166 449 166 449 150 487 c 0,121,122
 129 546 129 546 129 598 c 2,123,-1
 129 611 l 2,124,125
 129 701 129 701 186 790 c 0,126,127
 200 811 200 811 222 835 c 0,128,129
 258 871 258 871 272 880 c 0,130,131
 307 906 307 906 348 925 c 0,132,133
 440 966 440 966 534 966 c 2,134,-1
 545 966 l 2,135,136
 658 966 658 966 762 909 c 1,137,138
 785 930 785 930 801 939 c 0,139,140
 859 972 859 972 933 972 c 2,44,-1
EndSplineSet
EndChar

StartChar: h
Encoding: 104 104 75
Width: 1154
GlyphClass: 2
Flags: W
LayerCount: 2
Fore
SplineSet
167 2394 m 1,0,-1
 360 2394 l 1,1,-1
 346 896 l 1,2,-1
 347 896 l 1,3,4
 404 927 404 927 481 948 c 0,5,6
 518 958 518 958 588 958 c 2,7,-1
 597 958 l 2,8,9
 855 958 855 958 967 763 c 1,10,11
 1006 686 1006 686 1006 582 c 2,12,-1
 1006 3 l 1,13,-1
 1004 0 l 1,14,-1
 816 0 l 1,15,-1
 814 3 l 1,16,-1
 814 584 l 2,17,18
 814 705 814 705 711 746 c 0,19,20
 663 765 663 765 601 765 c 2,21,-1
 585 765 l 2,22,23
 463 765 463 765 412 727 c 1,24,25
 346 687 346 687 346 579 c 2,26,-1
 346 0 l 1,27,-1
 153 0 l 1,28,-1
 167 2394 l 1,0,-1
EndSplineSet
EndChar

StartChar: i
Encoding: 105 105 76
Width: 518
GlyphClass: 2
Flags: W
LayerCount: 2
Fore
SplineSet
356 958 m 1,0,-1
 356 1 l 1,1,-1
 355 0 l 1,2,-1
 163 0 l 1,3,-1
 162 1 l 1,4,-1
 162 958 l 1,5,-1
 356 958 l 1,0,-1
255 1464 m 2,6,-1
 263 1464 l 2,7,8
 307 1464 307 1464 346 1430 c 1,9,10
 385 1390 385 1390 385 1341 c 2,11,-1
 385 1335 l 2,12,13
 385 1290 385 1290 351 1251 c 1,14,15
 311 1212 311 1212 262 1212 c 2,16,-1
 256 1212 l 2,17,18
 210 1212 210 1212 172 1247 c 0,19,20
 151 1269 151 1269 144 1286 c 0,21,22
 133 1311 133 1311 133 1334 c 2,23,-1
 133 1342 l 2,24,25
 133 1388 133 1388 170 1428 c 1,26,-1
 185 1441 l 1,27,28
 220 1464 220 1464 255 1464 c 2,6,-1
EndSplineSet
EndChar

StartChar: j
Encoding: 106 106 77
Width: 545
GlyphClass: 2
Flags: W
LayerCount: 2
Fore
SplineSet
281 1464 m 2,0,-1
 290 1464 l 2,1,2
 337 1464 337 1464 378 1424 c 1,3,4
 404 1392 404 1392 409 1363 c 0,5,6
 411 1355 411 1355 411 1345 c 2,7,-1
 411 1331 l 2,8,9
 411 1298 411 1298 386 1262 c 0,10,11
 367 1239 367 1239 359 1235 c 0,12,13
 324 1212 324 1212 289 1212 c 2,14,-1
 281 1212 l 2,15,16
 241 1212 241 1212 205 1241 c 0,17,18
 160 1281 160 1281 160 1337 c 0,19,20
 160 1401 160 1401 214 1442 c 0,21,22
 249 1464 249 1464 281 1464 c 2,0,-1
189 959 m 1,23,-1
 381 959 l 1,24,-1
 382 958 l 1,25,-1
 372 -869 l 2,26,27
 371 -1024 371 -1024 340 -1118 c 0,28,29
 296 -1251 296 -1251 210 -1322 c 0,30,31
 181 -1346 181 -1346 160 -1358 c 0,32,33
 72 -1410 72 -1410 -30 -1410 c 2,34,-1
 -53 -1410 l 1,35,-1
 -53 -1217 l 1,36,37
 51 -1217 51 -1217 138 -1102 c 0,38,39
 178 -1049 178 -1049 179 -890 c 2,40,-1
 189 959 l 1,23,-1
EndSplineSet
EndChar

StartChar: k
Encoding: 107 107 78
Width: 1073
GlyphClass: 2
Flags: W
LayerCount: 2
Fore
SplineSet
161 2388 m 1,0,-1
 348 2388 l 1,1,-1
 351 2385 l 1,2,-1
 346 570 l 1,3,-1
 347 570 l 1,4,-1
 756 958 l 1,5,-1
 1034 958 l 1,6,-1
 1034 957 l 1,7,-1
 592 536 l 1,8,-1
 1015 1 l 1,9,-1
 1014 0 l 1,10,-1
 772 0 l 1,11,12
 746 28 746 28 453 402 c 1,13,-1
 452 402 l 1,14,15
 364 321 364 321 346 301 c 1,16,-1
 346 3 l 1,17,-1
 343 0 l 1,18,-1
 156 0 l 1,19,-1
 153 3 l 1,20,-1
 158 2385 l 1,21,-1
 161 2388 l 1,0,-1
EndSplineSet
EndChar

StartChar: l
Encoding: 108 108 79
Width: 498
GlyphClass: 2
Flags: W
LayerCount: 2
Fore
SplineSet
157 2388 m 1,0,-1
 348 2388 l 1,1,-1
 349 2387 l 1,2,-1
 346 1 l 1,3,-1
 345 0 l 1,4,-1
 154 0 l 1,5,-1
 153 1 l 1,6,-1
 156 2387 l 1,7,-1
 157 2388 l 1,0,-1
EndSplineSet
EndChar

StartChar: m
Encoding: 109 109 80
Width: 1813
GlyphClass: 2
Flags: W
LayerCount: 2
Fore
SplineSet
588 958 m 2,0,-1
 597 958 l 2,1,2
 791 958 791 958 910 841 c 1,3,4
 1024 958 1024 958 1224 958 c 2,5,-1
 1255 958 l 2,6,7
 1519 958 1519 958 1629 759 c 1,8,9
 1665 681 1665 681 1665 605 c 2,10,-1
 1665 3 l 1,11,-1
 1663 0 l 1,12,-1
 1475 0 l 1,13,-1
 1473 3 l 1,14,-1
 1473 603 l 2,15,16
 1473 711 1473 711 1353 752 c 0,17,18
 1316 765 1316 765 1259 765 c 2,19,-1
 1220 765 l 2,20,21
 1064 765 1064 765 1018 661 c 0,22,23
 1006 633 1006 633 1006 598 c 2,24,-1
 1006 3 l 1,25,-1
 1004 0 l 1,26,-1
 816 0 l 1,27,-1
 814 3 l 1,28,-1
 814 581 l 2,29,30
 814 688 814 688 745 727 c 1,31,32
 692 765 692 765 601 765 c 2,33,-1
 585 765 l 2,34,35
 463 765 463 765 412 727 c 1,36,37
 346 687 346 687 346 579 c 2,38,-1
 346 3 l 1,39,-1
 343 0 l 1,40,-1
 156 0 l 1,41,-1
 153 3 l 1,42,-1
 153 950 l 1,43,-1
 156 953 l 1,44,-1
 343 953 l 1,45,-1
 346 950 l 1,46,-1
 346 896 l 1,47,-1
 347 896 l 1,48,49
 398 924 398 924 481 948 c 0,50,51
 524 958 524 958 588 958 c 2,0,-1
EndSplineSet
EndChar

StartChar: n
Encoding: 110 110 81
Width: 1154
GlyphClass: 2
Flags: W
LayerCount: 2
Fore
SplineSet
588 958 m 2,0,-1
 597 958 l 2,1,2
 855 958 855 958 967 763 c 1,3,4
 1006 686 1006 686 1006 582 c 2,5,-1
 1006 3 l 1,6,-1
 1004 0 l 1,7,-1
 816 0 l 1,8,-1
 814 3 l 1,9,-1
 814 584 l 2,10,11
 814 707 814 707 711 746 c 0,12,13
 668 765 668 765 601 765 c 2,14,-1
 585 765 l 2,15,16
 463 765 463 765 412 727 c 1,17,18
 346 687 346 687 346 579 c 2,19,-1
 346 3 l 1,20,-1
 343 0 l 1,21,-1
 156 0 l 1,22,-1
 153 3 l 1,23,-1
 153 950 l 1,24,-1
 156 953 l 1,25,-1
 343 953 l 1,26,-1
 346 950 l 1,27,-1
 346 896 l 1,28,-1
 347 896 l 1,29,30
 398 924 398 924 481 948 c 0,31,32
 524 958 524 958 588 958 c 2,0,-1
EndSplineSet
EndChar

StartChar: o
Encoding: 111 111 82
Width: 1149
GlyphClass: 2
Flags: W
LayerCount: 2
Fore
SplineSet
283 473 m 0,0,1
 283 364 283 364 354 275 c 0,2,3
 385 240 385 240 402 229 c 0,4,5
 481 169 481 169 574 169 c 0,6,7
 688 169 688 169 776 255 c 0,8,9
 811 292 811 292 825 319 c 0,10,11
 866 393 866 393 866 472 c 2,12,-1
 866 475 l 2,13,14
 866 590 866 590 787 682 c 0,15,16
 753 718 753 718 741 723 c 0,17,18
 724 737 724 737 709 745 c 0,19,20
 644 780 644 780 574 780 c 0,21,22
 468 780 468 780 380 701 c 0,23,24
 349 670 349 670 341 655 c 0,25,26
 283 574 283 574 283 473 c 0,0,1
574 973 m 0,27,28
 737 973 737 973 872 868 c 0,29,30
 891 854 891 854 926 818 c 0,31,32
 995 741 995 741 1024 660 c 0,33,34
 1059 570 1059 570 1059 473 c 0,35,36
 1059 347 1059 347 998 231 c 0,37,38
 977 193 977 193 941 148 c 0,39,40
 902 103 902 103 878 85 c 0,41,42
 851 63 851 63 827 48 c 0,43,44
 708 -24 708 -24 579 -24 c 2,45,-1
 570 -24 l 2,46,47
 434 -24 434 -24 309 56 c 0,48,49
 285 74 285 74 266 90 c 0,50,51
 227 123 227 123 210 146 c 0,52,53
 189 170 189 170 171 198 c 0,54,55
 151 230 151 230 137 260 c 0,56,57
 90 364 90 364 90 467 c 2,58,-1
 90 482 l 2,59,60
 90 594 90 594 146 707 c 0,61,62
 162 738 162 738 184 770 c 0,63,64
 201 794 201 794 235 831 c 1,65,66
 284 876 284 876 305 889 c 0,67,68
 428 973 428 973 574 973 c 0,27,28
EndSplineSet
EndChar

StartChar: p
Encoding: 112 112 83
Width: 1216
GlyphClass: 2
Flags: W
LayerCount: 2
Fore
SplineSet
346 493 m 2,0,-1
 346 453 l 2,1,2
 346 425 346 425 361 372 c 0,3,4
 373 339 373 339 387 313 c 0,5,6
 402 291 402 291 430 259 c 0,7,8
 461 228 461 228 473 221 c 0,9,10
 497 205 497 205 515 195 c 0,11,12
 578 168 578 168 628 168 c 2,13,-1
 641 168 l 2,14,15
 730 168 730 168 809 228 c 0,16,17
 823 238 823 238 849 265 c 0,18,19
 897 321 897 321 914 381 c 0,20,21
 928 427 928 427 928 474 c 0,22,23
 928 588 928 588 853 678 c 0,24,25
 821 712 821 712 814 716 c 0,26,27
 734 779 734 779 637 779 c 2,28,-1
 629 779 l 2,29,30
 576 779 576 779 513 751 c 0,31,32
 482 737 482 737 444 703 c 0,33,34
 408 667 408 667 400 652 c 0,35,36
 385 629 385 629 376 611 c 0,37,38
 367 592 367 592 356 561 c 1,39,40
 346 515 346 515 346 493 c 2,0,-1
628 972 m 0,41,42
 630 972 630 972 632 972 c 128,-1,43
 634 972 634 972 636 972 c 256,44,45
 638 972 638 972 640 972 c 0,46,47
 766 972 766 972 888 901 c 0,48,49
 929 877 929 877 963 843 c 0,50,51
 1000 806 1000 806 1010 792 c 0,52,53
 1040 753 1040 753 1053 731 c 0,54,55
 1121 614 1121 614 1121 472 c 0,56,57
 1121 316 1121 316 1019 167 c 0,58,59
 1006 148 1006 148 967 107 c 1,60,-1
 949 92 l 2,61,62
 809 -25 809 -25 636 -25 c 0,63,64
 513 -25 513 -25 408 47 c 0,65,66
 376 69 376 69 356 91 c 2,67,-1
 346 102 l 1,68,-1
 342 -1433 l 1,69,-1
 150 -1433 l 1,70,-1
 149 -1432 l 1,71,-1
 153 953 l 1,72,-1
 154 954 l 1,73,-1
 346 954 l 1,74,-1
 346 849 l 1,75,76
 375 880 375 880 391 892 c 0,77,78
 421 915 421 915 443 927 c 0,79,80
 459 936 459 936 505 953 c 0,81,82
 511 955 511 955 585 970 c 0,83,84
 595 972 595 972 628 972 c 0,41,42
EndSplineSet
EndChar

StartChar: q
Encoding: 113 113 84
Width: 1216
GlyphClass: 2
Flags: W
LayerCount: 2
Fore
SplineSet
861 561 m 1,1,2
 850 592 850 592 841 611 c 0,3,4
 832 629 832 629 817 652 c 0,5,6
 809 667 809 667 773 703 c 0,7,8
 735 737 735 737 704 751 c 0,9,10
 641 779 641 779 588 779 c 2,11,-1
 580 779 l 2,12,13
 483 779 483 779 403 716 c 0,14,15
 396 712 396 712 364 678 c 0,16,17
 289 588 289 588 289 474 c 0,18,19
 289 427 289 427 303 381 c 0,20,21
 320 321 320 321 368 265 c 0,22,23
 394 238 394 238 408 228 c 0,24,25
 487 168 487 168 576 168 c 2,26,-1
 589 168 l 2,27,28
 639 168 639 168 702 195 c 0,29,30
 720 205 720 205 744 221 c 0,31,32
 756 228 756 228 787 259 c 0,33,34
 815 291 815 291 830 313 c 0,35,36
 844 339 844 339 856 372 c 0,37,38
 871 425 871 425 871 453 c 2,39,-1
 871 493 l 2,40,0
 871 515 871 515 861 561 c 1,1,2
632 970 m 0,42,43
 689 960 689 960 712 953 c 0,44,45
 743 944 743 944 774 927 c 0,46,47
 796 915 796 915 826 892 c 0,48,49
 839 882 839 882 871 849 c 1,50,-1
 871 954 l 1,51,-1
 1063 954 l 1,52,-1
 1064 953 l 1,53,-1
 1050 -1432 l 1,54,-1
 1049 -1433 l 1,55,-1
 857 -1433 l 1,56,-1
 871 102 l 1,57,-1
 861 91 l 2,58,59
 842 71 842 71 809 47 c 0,60,61
 707 -25 707 -25 581 -25 c 0,62,63
 408 -25 408 -25 268 92 c 2,64,-1
 250 107 l 1,65,66
 211 148 211 148 198 167 c 0,67,68
 96 307 96 307 96 472 c 0,69,70
 96 618 96 618 164 731 c 0,71,72
 167 736 167 736 207 792 c 0,73,74
 223 815 223 815 254 843 c 0,75,76
 294 879 294 879 329 901 c 0,77,78
 444 972 444 972 585 972 c 0,79,80
 587 972 587 972 589 972 c 0,81,41
 622 972 622 972 632 970 c 0,42,43
EndSplineSet
EndChar

StartChar: r
Encoding: 114 114 85
Width: 836
GlyphClass: 2
Flags: W
LayerCount: 2
Fore
SplineSet
571 964 m 2,0,-1
 596 964 l 2,1,2
 688 964 688 964 754 926 c 1,3,-1
 754 925 l 2,4,5
 755 898 755 898 755 706 c 1,6,7
 659 769 659 769 585 769 c 2,8,-1
 569 769 l 2,9,10
 473 769 473 769 400 698 c 1,11,12
 345 631 345 631 345 444 c 2,13,-1
 345 4 l 1,14,-1
 343 1 l 1,15,-1
 156 1 l 1,16,-1
 153 4 l 1,17,-1
 153 943 l 1,18,-1
 156 945 l 1,19,-1
 343 945 l 1,20,-1
 345 943 l 1,21,-1
 345 871 l 1,22,23
 455 964 455 964 571 964 c 2,0,-1
EndSplineSet
EndChar

StartChar: s
Encoding: 115 115 86
Width: 983
GlyphClass: 2
Flags: W
LayerCount: 2
Fore
SplineSet
499 1013 m 0,0,1
 682 1013 682 1013 810 899 c 0,2,3
 839 871 839 871 851 855 c 2,4,-1
 863 836 l 2,5,6
 861 833 861 833 809 802 c 0,7,8
 758 771 758 771 700 733 c 1,9,10
 682 755 682 755 664 768 c 0,11,12
 597 819 597 819 501 819 c 2,13,-1
 497 819 l 2,14,15
 392 819 392 819 329 769 c 0,16,17
 294 739 294 739 294 704 c 0,18,19
 294 682 294 682 313 670 c 0,20,21
 332 654 332 654 387 635 c 0,22,23
 463 610 463 610 623 582 c 0,24,25
 675 570 675 570 712 554 c 0,26,27
 747 540 747 540 782 516 c 0,28,29
 798 505 798 505 827 476 c 0,30,31
 900 396 900 396 900 296 c 2,32,-1
 900 293 l 2,33,34
 900 191 900 191 824 102 c 0,35,36
 792 69 792 69 778 61 c 0,37,38
 738 33 738 33 712 22 c 0,39,40
 610 -25 610 -25 495 -25 c 2,41,-1
 488 -25 l 2,42,43
 338 -25 338 -25 214 54 c 0,44,45
 187 72 187 72 156 101 c 0,46,47
 127 129 127 129 116 145 c 0,48,49
 96 170 96 170 81 197 c 1,50,-1
 248 293 l 1,51,-1
 249 293 l 1,52,-1
 257 279 l 2,53,54
 268 262 268 262 292 239 c 0,55,56
 337 197 337 197 404 179 c 0,57,58
 448 169 448 169 492 169 c 0,59,60
 580 169 580 169 649 208 c 0,61,62
 662 215 662 215 681 233 c 0,63,64
 707 264 707 264 707 295 c 0,65,66
 707 350 707 350 622 382 c 0,67,68
 594 392 594 392 519 404 c 0,69,70
 358 435 358 435 279 469 c 0,71,72
 245 483 245 483 212 505 c 0,73,74
 136 554 136 554 112 630 c 0,75,76
 100 664 100 664 100 702 c 2,77,-1
 100 708 l 2,78,79
 100 803 100 803 171 886 c 0,80,81
 201 917 201 917 214 926 c 0,82,83
 248 951 248 951 278 966 c 0,84,85
 378 1013 378 1013 499 1013 c 0,0,1
EndSplineSet
EndChar

StartChar: t
Encoding: 116 116 87
Width: 717
GlyphClass: 2
Flags: WO
LayerCount: 2
Fore
SplineSet
180 1456 m 1,0,-1
 372 1456 l 1,1,-1
 373 1455 l 1,2,-1
 371 957 l 1,3,-1
 619 957 l 1,4,-1
 620 956 l 1,5,-1
 620 764 l 1,6,-1
 619 763 l 1,7,-1
 371 763 l 1,8,-1
 369 282 l 1,9,10
 369 282 l 1,11,12
 369 227 369 227 407 207 c 0,13,14
 434 193 434 193 461 193 c 0,15,16
 500 193 500 193 572 219 c 1,17,-1
 580 223 l 1,18,-1
 652 42 l 1,19,20
 619 28 619 28 574 16 c 0,21,22
 515 0 515 0 462 0 c 2,23,-1
 460 0 l 2,24,25
 365 0 365 0 282 58 c 0,26,27
 268 68 268 68 245 90 c 1,28,-1
 228 112 l 2,29,30
 207 139 207 139 203 153 c 0,31,32
 175.943548387 261.225806452 175.943548387 261.225806452 176 275 c 2,33,-1
 178 763 l 1,34,-1
 36 763 l 1,35,-1
 35 764 l 1,36,-1
 35 956 l 1,37,-1
 36 957 l 1,38,-1
 178 957 l 1,39,-1
 180 1456 l 1,0,-1
EndSplineSet
EndChar

StartChar: u
Encoding: 117 117 88
Width: 1153
GlyphClass: 2
Flags: W
LayerCount: 2
Fore
SplineSet
566 0 m 2,0,-1
 557 0 l 2,1,2
 299 0 299 0 187 195 c 1,3,4
 148 272 148 272 148 376 c 2,5,-1
 148 955 l 1,6,-1
 151 958 l 1,7,-1
 338 958 l 1,8,-1
 341 955 l 1,9,-1
 341 374 l 2,10,11
 341 251 341 251 443 212 c 0,12,13
 486 193 486 193 553 193 c 2,14,-1
 569 193 l 2,15,16
 691 193 691 193 742 231 c 1,17,18
 809 271 809 271 809 379 c 2,19,-1
 809 955 l 1,20,-1
 811 958 l 1,21,-1
 999 958 l 1,22,-1
 1001 955 l 1,23,-1
 1001 8 l 1,24,-1
 999 5 l 1,25,-1
 811 5 l 1,26,-1
 809 8 l 1,27,-1
 809 72 l 1,28,-1
 807 72 l 1,29,30
 756 34 756 34 674 10 c 0,31,32
 630 0 630 0 566 0 c 2,0,-1
EndSplineSet
EndChar

StartChar: v
Encoding: 118 118 89
Width: 1102
GlyphClass: 2
Flags: W
LayerCount: 2
Fore
SplineSet
255 958 m 1,0,1
 258 953 258 953 298 858 c 2,2,-1
 480 444 l 1,3,-1
 551 284 l 1,4,-1
 692 608 l 1,5,-1
 845 958 l 1,6,-1
 1068 958 l 1,7,-1
 852 478 l 1,8,-1
 715 173 l 1,9,-1
 638 0 l 1,10,-1
 465 0 l 2,11,12
 464 0 464 0 434 67 c 2,13,-1
 252 472 l 1,14,-1
 57 906 l 1,15,-1
 34 958 l 1,16,-1
 255 958 l 1,0,1
EndSplineSet
EndChar

StartChar: w
Encoding: 119 119 90
Width: 1508
GlyphClass: 2
Flags: W
LayerCount: 2
Fore
SplineSet
266 958 m 2,0,1
 267 958 267 958 290 888 c 2,2,-1
 448 412 l 1,3,-1
 475 332 l 1,4,-1
 616 787 l 1,5,-1
 669 958 l 1,6,-1
 840 958 l 2,7,8
 841 958 841 958 845 941 c 2,9,-1
 980 508 l 1,10,-1
 1034 332 l 2,11,12
 1036 332 1036 332 1059 402 c 2,13,-1
 1214 873 l 1,14,-1
 1243 958 l 1,15,-1
 1456 958 l 1,16,-1
 1456 957 l 1,17,-1
 1297 491 l 1,18,-1
 1149 60 l 1,19,-1
 1129 0 l 1,20,-1
 937 0 l 2,21,22
 935 0 935 0 928 28 c 0,23,24
 885 161 885 161 847 286 c 2,25,-1
 756 580 l 1,26,-1
 755 580 l 1,27,-1
 619 145 l 1,28,-1
 574 0 l 1,29,-1
 381 0 l 2,30,31
 380 0 380 0 363 53 c 2,32,-1
 221 467 l 1,33,-1
 69 909 l 1,34,-1
 53 958 l 1,35,-1
 266 958 l 2,0,1
EndSplineSet
EndChar

StartChar: x
Encoding: 120 120 91
Width: 1186
GlyphClass: 2
Flags: W
LayerCount: 2
Fore
SplineSet
335 958 m 1,0,1
 345 948 345 948 463 800 c 2,2,-1
 592 641 l 1,3,-1
 848 958 l 1,4,-1
 1106 958 l 1,5,-1
 1106 957 l 1,6,-1
 775 558 l 1,7,-1
 734 508 l 1,8,-1
 936 257 l 1,9,-1
 1142 0 l 1,10,-1
 886 0 l 1,11,-1
 822 81 l 1,12,-1
 591 375 l 1,13,-1
 297 0 l 1,14,-1
 41 0 l 1,15,-1
 41 1 l 1,16,-1
 362 399 l 1,17,-1
 449 508 l 1,18,-1
 223 781 l 1,19,-1
 77 958 l 1,20,-1
 335 958 l 1,0,1
EndSplineSet
EndChar

StartChar: y
Encoding: 121 121 92
Width: 1119
GlyphClass: 2
Flags: W
LayerCount: 2
Fore
SplineSet
255 958 m 2,0,1
 256 958 256 958 559 242 c 1,2,-1
 609 356 l 1,3,-1
 873 958 l 1,4,-1
 1084 958 l 1,5,-1
 659 0 l 1,6,-1
 648 -1427 l 1,7,-1
 450 -1425 l 1,8,-1
 465 0 l 1,9,-1
 34 958 l 1,10,-1
 255 958 l 2,0,1
EndSplineSet
EndChar

StartChar: z
Encoding: 122 122 93
Width: 1082
GlyphClass: 2
Flags: W
LayerCount: 2
Fore
SplineSet
137 958 m 1,0,-1
 997 958 l 1,1,-1
 1000 955 l 1,2,-1
 461 193 l 1,3,-1
 985 193 l 1,4,-1
 988 190 l 1,5,-1
 988 3 l 1,6,-1
 985 0 l 1,7,-1
 89 0 l 1,8,-1
 89 1 l 1,9,-1
 628 765 l 1,10,-1
 137 765 l 1,11,-1
 135 768 l 1,12,-1
 135 955 l 1,13,-1
 137 958 l 1,0,-1
EndSplineSet
EndChar

StartChar: braceleft
Encoding: 123 123 94
Width: 848
GlyphClass: 2
Flags: W
LayerCount: 2
Fore
SplineSet
619 1544 m 2,0,-1
 662 1544 l 1,1,-1
 664 1542 l 1,2,-1
 664 1352 l 1,3,-1
 663 1350 l 1,4,-1
 662 1350 l 1,5,-1
 613 1352 l 1,6,7
 497 1346 497 1346 480 1285 c 0,8,9
 474 1270 474 1270 474 1245 c 2,10,-1
 474 780 l 2,11,12
 474 707 474 707 414 632 c 1,13,14
 474 557 474 557 474 484 c 2,15,-1
 474 19 l 2,16,17
 474 -51 474 -51 531 -73 c 0,18,19
 578 -88 578 -88 613 -88 c 2,20,-1
 663 -86 l 1,21,-1
 664 -88 l 1,22,-1
 664 -278 l 1,23,-1
 663 -280 l 1,24,-1
 617 -280 l 2,25,26
 456 -280 456 -280 358 -184 c 0,27,28
 282 -104 282 -104 282 19 c 2,29,-1
 282 480 l 2,30,31
 282 505 282 505 230 535 c 1,32,-1
 156 567 l 1,33,-1
 156 696 l 2,34,35
 156 700 156 700 228 728 c 1,36,37
 282 760 282 760 282 784 c 2,38,-1
 282 1244 l 2,39,40
 282 1432 282 1432 448 1510 c 0,41,42
 525 1544 525 1544 619 1544 c 2,0,-1
EndSplineSet
EndChar

StartChar: bar
Encoding: 124 124 95
Width: 493
GlyphClass: 2
Flags: W
LayerCount: 2
Fore
SplineSet
151 1400 m 1,0,-1
 342 1400 l 1,1,-1
 343 1399 l 1,2,-1
 343 2 l 1,3,-1
 342 1 l 1,4,-1
 151 1 l 1,5,-1
 150 2 l 1,6,-1
 150 1399 l 1,7,-1
 151 1400 l 1,0,-1
EndSplineSet
EndChar

StartChar: braceright
Encoding: 125 125 96
Width: 848
GlyphClass: 2
Flags: W
LayerCount: 2
Fore
SplineSet
400 1510 m 0,1,2
 566 1432 566 1432 566 1244 c 2,3,-1
 566 784 l 2,4,5
 566 760 566 760 620 728 c 1,6,7
 692 700 692 700 692 696 c 2,8,-1
 692 567 l 1,9,-1
 618 535 l 1,10,11
 566 505 566 505 566 480 c 2,12,-1
 566 19 l 2,13,14
 566 -104 566 -104 490 -184 c 0,15,16
 392 -280 392 -280 231 -280 c 2,17,-1
 185 -280 l 1,18,-1
 184 -278 l 1,19,-1
 184 -88 l 1,20,-1
 185 -86 l 1,21,-1
 235 -88 l 2,22,23
 270 -88 270 -88 317 -73 c 0,24,25
 374 -51 374 -51 374 19 c 2,26,-1
 374 484 l 2,27,28
 374 557 374 557 434 632 c 1,29,30
 374 707 374 707 374 780 c 2,31,-1
 374 1245 l 2,32,33
 374 1270 374 1270 368 1285 c 0,34,35
 351 1346 351 1346 235 1352 c 1,36,-1
 186 1350 l 1,37,-1
 185 1350 l 1,38,-1
 184 1352 l 1,39,-1
 184 1542 l 1,40,-1
 186 1544 l 1,41,-1
 229 1544 l 2,42,0
 323 1544 323 1544 400 1510 c 0,1,2
EndSplineSet
EndChar

StartChar: asciitilde
Encoding: 126 126 97
Width: 758
GlyphClass: 2
Flags: W
LayerCount: 2
Fore
SplineSet
701 441 m 1,0,1
 667 411 667 411 634 391 c 0,2,3
 583 362 583 362 534 362 c 0,4,5
 482 362 482 362 380 419 c 128,-1,6
 278 476 278 476 226 476 c 0,7,8
 182 476 182 476 133 443 c 0,9,10
 100 421 100 421 61 370 c 1,11,-1
 61 552 l 1,12,13
 95 593 95 593 128 612 c 0,14,15
 179 643 179 643 226 643 c 0,16,17
 282 643 282 643 384 584.5 c 128,-1,18
 486 526 486 526 534 526 c 0,19,20
 579 526 579 526 628 559 c 0,21,22
 661 582 661 582 701 634 c 1,23,-1
 701 441 l 1,0,1
EndSplineSet
EndChar

StartChar: exclamdown
Encoding: 161 161 98
Width: 711
GlyphClass: 2
Flags: W
LayerCount: 2
Fore
SplineSet
519 0 m 1,0,-1
 267 0 l 1,1,-1
 266 1 l 1,2,-1
 296 1158 l 1,3,-1
 297 1159 l 1,4,-1
 489 1159 l 1,5,-1
 490 1158 l 1,6,-1
 520 1 l 1,7,-1
 519 0 l 1,0,-1
392 1212 m 0,8,9
 332 1212 332 1212 291 1264 c 0,10,11
 267 1299 267 1299 267 1334 c 2,12,-1
 267 1342 l 2,13,14
 267 1390 267 1390 306 1430 c 0,15,16
 335 1455 335 1455 363 1461 c 0,17,18
 378 1464 378 1464 386 1464 c 2,19,-1
 400 1464 l 2,20,21
 432 1464 432 1464 467 1441 c 0,22,23
 501 1416 501 1416 514 1375 c 0,24,25
 519 1357 519 1357 519 1342 c 2,26,-1
 519 1334 l 2,27,28
 519 1287 519 1287 481 1247 c 0,29,30
 443 1212 443 1212 392 1212 c 0,8,9
EndSplineSet
EndChar

StartChar: cent
Encoding: 162 162 99
Width: 1043
GlyphClass: 2
Flags: W
LayerCount: 2
Fore
SplineSet
437 1223 m 1,0,-1
 437 1382 l 1,1,-1
 438 1383 l 1,2,-1
 629 1383 l 1,3,-1
 630 1382 l 1,4,-1
 630 1240 l 1,5,6
 750 1226 750 1226 856 1151 c 0,7,8
 880 1133 880 1133 910 1104 c 0,9,10
 947 1066 947 1066 959 1047 c 0,11,12
 974 1027 974 1027 974 1025 c 2,13,-1
 814 919 l 1,14,-1
 813 919 l 1,15,16
 802 937 802 937 774 966 c 0,17,18
 709 1028 709 1028 630 1044 c 1,19,-1
 630 445 l 1,20,21
 687 456 687 456 739 493 c 0,22,23
 756 504 756 504 786 534 c 0,24,25
 803 554 803 554 815 573 c 1,26,-1
 816 573 l 1,27,-1
 977 467 l 1,28,29
 960 440 960 440 931 407 c 0,30,31
 897 370 897 370 883 360 c 0,32,33
 850 333 850 333 826 318 c 0,34,35
 731 260 731 260 630 249 c 1,36,-1
 630 106 l 1,37,-1
 629 105 l 1,38,-1
 438 105 l 1,39,-1
 437 106 l 1,40,-1
 437 266 l 1,41,42
 371 286 371 286 309 327 c 0,43,44
 285 344 285 344 265 360 c 0,45,46
 228 394 228 394 210 416 c 0,47,48
 170 465 170 465 153 498 c 0,49,50
 134 530 134 530 116 583 c 0,51,52
 90 664 90 664 90 736 c 2,53,-1
 90 752 l 2,54,55
 90 864 90 864 145 977 c 0,56,57
 162 1008 162 1008 184 1041 c 0,58,59
 201 1064 201 1064 235 1101 c 0,60,61
 275 1139 275 1139 304 1159 c 0,62,63
 368 1202 368 1202 437 1223 c 1,0,-1
437 475 m 1,64,-1
 437 1014 l 1,65,66
 408 997 408 997 380 972 c 0,67,68
 348 940 348 940 341 926 c 0,69,70
 283 844 283 844 283 744 c 0,71,72
 283 636 283 636 352 547 c 0,73,74
 374 521 374 521 398 501 c 0,75,76
 417 486 417 486 437 475 c 1,64,-1
EndSplineSet
EndChar

StartChar: sterling
Encoding: 163 163 100
Width: 1296
GlyphClass: 2
Flags: W
LayerCount: 2
Fore
SplineSet
704 1423 m 2,0,-1
 717 1423 l 2,1,2
 824 1423 824 1423 934 1366 c 0,3,4
 969 1347 969 1347 1009 1314 c 1,5,-1
 1019 1304 l 1,6,-1
 885 1165 l 1,7,8
 845 1200 845 1200 791 1217 c 0,9,10
 749 1230 749 1230 710 1230 c 0,11,12
 631 1230 631 1230 559 1180 c 0,13,14
 513 1150 513 1150 499 1113 c 0,15,16
 487 1085 487 1085 487 1051 c 2,17,-1
 487 1045 l 2,18,19
 487 978 487 978 533 889 c 0,20,21
 564 829 564 829 571 813 c 1,22,-1
 901 813 l 1,23,-1
 901 620 l 1,24,-1
 617 620 l 1,25,26
 617 536 617 536 567 436 c 0,27,28
 546 396 546 396 512 348 c 0,29,30
 493 322 493 322 474 299 c 1,31,32
 535 292 535 292 579 273 c 0,33,34
 611 259 611 259 646 236 c 0,35,36
 665 221 665 221 688 201 c 0,37,38
 762 142 762 142 833 142 c 0,39,40
 936 142 936 142 1059 266 c 1,41,-1
 1196 130 l 1,42,43
 1146 80 1146 80 1124 64 c 0,44,45
 1077 26 1077 26 1028 0 c 0,46,47
 929 -51 929 -51 839 -51 c 2,48,-1
 826 -51 l 2,49,50
 735 -51 735 -51 638 2 c 0,51,52
 602 22 602 22 560 56 c 0,53,54
 527 86 527 86 509 91 c 0,55,56
 476 107 476 107 433 107 c 2,57,-1
 431 107 l 2,58,59
 334 107 334 107 201 32 c 1,60,-1
 170 12 l 1,61,-1
 53 166 l 1,62,-1
 122 224 l 2,63,64
 174 268 174 268 240 331 c 0,65,66
 306 398 306 398 327 426 c 0,67,68
 364 471 364 471 382 502 c 0,69,70
 424 573 424 573 424 620 c 1,71,-1
 206 620 l 1,72,-1
 206 812 l 1,73,-1
 207 813 l 1,74,-1
 355 813 l 1,75,76
 294 935 294 935 294 1050 c 0,77,78
 294 1184 294 1184 380 1281 c 0,79,80
 412 1314 412 1314 424 1321 c 0,81,82
 463 1351 463 1351 491 1366 c 0,83,84
 598 1423 598 1423 704 1423 c 2,0,-1
EndSplineSet
EndChar

StartChar: currency
Encoding: 164 164 101
Width: 1436
GlyphClass: 2
Flags: W
LayerCount: 2
Fore
SplineSet
256 759 m 0,0,1
 256 624 256 624 341 508 c 0,2,3
 357 486 357 486 390 453 c 0,4,5
 433 414 433 414 454 403 c 0,6,7
 485 382 485 382 522 365 c 0,8,9
 618 323 618 323 720 323 c 0,10,11
 860 323 860 323 981 400 c 0,12,13
 1068 456 1068 456 1123 545 c 0,14,15
 1183 647 1183 647 1183 761 c 0,16,17
 1183 908 1183 908 1083 1031 c 0,18,19
 1044 1075 1044 1075 1020 1093 c 0,20,21
 977 1126 977 1126 945 1142 c 0,22,23
 840 1197 840 1197 719 1197 c 0,24,25
 579 1197 579 1197 458 1121 c 0,26,27
 333 1039 333 1039 281 901 c 0,28,29
 256 833 256 833 256 759 c 0,0,1
712 1390 m 2,30,-1
 728 1390 l 2,31,32
 872 1390 872 1390 1014 1324 c 0,33,34
 1062 1300 1062 1300 1104 1271 c 1,35,-1
 1106 1270 l 1,36,-1
 1214 1376 l 1,37,38
 1344 1245 1344 1245 1350 1239 c 1,39,-1
 1350 1238 l 1,40,-1
 1247 1137 l 1,41,42
 1280 1094 1280 1094 1304 1050 c 0,43,44
 1376 912 1376 912 1376 762 c 2,45,-1
 1376 758 l 2,46,47
 1376 575 1376 575 1269 414 c 0,48,49
 1254 394 1254 394 1254 393 c 2,50,-1
 1350 298 l 1,51,-1
 1214 161 l 1,52,-1
 1116 257 l 1,53,54
 936 130 936 130 720 130 c 0,55,56
 520 130 520 130 349 240 c 2,57,-1
 323 257 l 1,58,59
 232 166 232 166 226 161 c 1,60,-1
 90 298 l 1,61,-1
 185 393 l 1,62,63
 160 428 160 428 139 465 c 0,64,65
 116 505 116 505 95 563 c 0,66,67
 63 661 63 661 63 752 c 2,68,-1
 63 768 l 2,69,70
 63 900 63 900 127 1032 c 0,71,72
 148 1076 148 1076 185 1127 c 2,73,-1
 193 1137 l 1,74,-1
 90 1239 l 1,75,-1
 226 1376 l 1,76,-1
 333 1270 l 1,77,78
 370 1295 370 1295 411 1317 c 0,79,80
 456 1340 456 1340 522 1361 c 0,81,82
 619 1390 619 1390 712 1390 c 2,30,-1
EndSplineSet
EndChar

StartChar: yen
Encoding: 165 165 102
Width: 1256
GlyphClass: 2
Flags: W
LayerCount: 2
Fore
SplineSet
207 1390 m 1,0,-1
 441 1128 l 1,1,-1
 629 916 l 1,2,-1
 933 1258 l 1,3,-1
 1051 1390 l 1,4,5
 1193 1265 1193 1265 1196 1261 c 1,6,-1
 929 962 l 1,7,-1
 726 734 l 1,8,-1
 726 708 l 1,9,-1
 1058 708 l 1,10,-1
 1058 515 l 1,11,-1
 1057 514 l 1,12,-1
 726 514 l 1,13,-1
 726 473 l 1,14,-1
 1057 473 l 1,15,-1
 1058 472 l 1,16,-1
 1058 282 l 1,17,-1
 1057 281 l 1,18,-1
 726 281 l 1,19,-1
 726 2 l 1,20,-1
 532 2 l 1,21,-1
 532 281 l 1,22,-1
 202 281 l 1,23,-1
 201 282 l 1,24,-1
 201 472 l 1,25,-1
 202 473 l 1,26,-1
 532 473 l 1,27,-1
 532 514 l 1,28,-1
 202 514 l 1,29,-1
 201 515 l 1,30,-1
 201 708 l 1,31,-1
 532 708 l 1,32,-1
 532 734 l 1,33,-1
 231 1072 l 1,34,-1
 63 1261 l 1,35,-1
 63 1262 l 1,36,37
 70 1269 70 1269 207 1390 c 1,0,-1
EndSplineSet
EndChar

StartChar: brokenbar
Encoding: 166 166 103
Width: 593
GlyphClass: 2
Flags: W
LayerCount: 2
Fore
SplineSet
393 1500 m 1,0,-1
 393 851 l 1,1,-1
 392 850 l 1,2,-1
 201 850 l 1,3,-1
 200 851 l 1,4,-1
 200 1500 l 1,5,-1
 393 1500 l 1,0,-1
393 150 m 1,6,-1
 393 -499 l 1,7,-1
 392 -500 l 1,8,-1
 201 -500 l 1,9,-1
 200 -499 l 1,10,-1
 200 150 l 1,11,-1
 393 150 l 1,6,-1
EndSplineSet
EndChar

StartChar: section
Encoding: 167 167 104
Width: 955
GlyphClass: 2
Flags: W
LayerCount: 2
Fore
SplineSet
476 868 m 2,0,1
 417 868 417 868 365 830 c 0,2,3
 311 786 311 786 311 728 c 0,4,5
 311 674 311 674 359 632 c 0,6,7
 412 589 412 589 481 589 c 0,8,9
 559 589 559 589 615 643 c 0,10,11
 628 658 628 658 634 669 c 0,12,13
 651 698 651 698 651 729 c 0,14,15
 651 788 651 788 593 833 c 0,16,17
 542 868 542 868 486 868 c 2,18,-1
 476 868 l 2,0,1
480 1487 m 2,19,-1
 495 1487 l 2,20,21
 592 1487 592 1487 683 1434 c 0,22,23
 711 1417 711 1417 742 1389 c 0,24,25
 778 1353 778 1353 788 1337 c 0,26,27
 805 1312 805 1312 814 1293 c 1,28,-1
 642 1206 l 1,29,-1
 641 1206 l 1,30,31
 616 1255 616 1255 559 1280 c 0,32,33
 526 1294 526 1294 487 1294 c 0,34,35
 422 1294 422 1294 373 1264 c 0,36,37
 361 1258 361 1258 346 1241 c 0,38,39
 325 1215 325 1215 325 1188 c 2,40,-1
 325 1181 l 2,41,42
 325 1146 325 1146 366 1122 c 0,43,44
 390 1104 390 1104 443 1086 c 0,45,46
 492 1068 492 1068 582 1049 c 0,47,48
 619 1038 619 1038 648 1025 c 0,49,50
 680 1009 680 1009 717 982 c 0,51,52
 757 949 757 949 781 917 c 0,53,54
 844 830 844 830 844 729 c 2,55,-1
 844 728 l 2,56,57
 844 602 844 602 749 503 c 1,58,-1
 725 481 l 1,59,60
 758 455 758 455 783 421 c 0,61,62
 829 355 829 355 829 277 c 2,63,-1
 829 268 l 2,64,65
 829 187 829 187 779 112 c 0,66,67
 767 95 767 95 741 67 c 0,68,69
 709 39 709 39 690 28 c 0,70,71
 667 13 667 13 628 -3 c 0,72,73
 554 -30 554 -30 474 -30 c 2,74,-1
 473 -30 l 2,75,76
 319 -30 319 -30 209 78 c 0,77,78
 179 111 179 111 168 128 c 0,79,80
 155 148 155 148 146 164 c 1,81,82
 291 238 291 238 320 251 c 1,83,84
 345 202 345 202 403 177 c 0,85,86
 436 163 436 163 474 163 c 0,87,88
 534 163 534 163 583 190 c 0,89,90
 636 222 636 222 636 273 c 0,91,92
 636 304 636 304 614 322 c 0,93,94
 589 344 589 344 556 357 c 0,95,96
 504 381 504 381 401 403 c 0,97,98
 367 411 367 411 341 420 c 0,99,100
 300 437 300 437 266 460 c 0,101,102
 243 474 243 474 210 506 c 0,103,104
 175 544 175 544 160 572 c 0,105,106
 118 647 118 647 118 722 c 2,107,-1
 118 735 l 2,108,109
 118 817 118 817 168 898 c 0,110,111
 182 921 182 921 214 954 c 2,112,-1
 237 976 l 1,113,114
 203 1001 203 1001 176 1039 c 0,115,116
 132 1102 132 1102 132 1186 c 0,117,118
 132 1292 132 1292 207 1376 c 0,119,120
 238 1407 238 1407 255 1418 c 0,121,122
 300 1451 300 1451 360 1469 c 0,123,124
 422 1487 422 1487 480 1487 c 2,19,-1
EndSplineSet
EndChar

StartChar: dieresis
Encoding: 168 168 105
Width: 1116
GlyphClass: 2
Flags: W
LayerCount: 2
Fore
SplineSet
369 1949 m 0,0,1
 429 1949 429 1949 470 1897 c 0,2,3
 494 1862 494 1862 494 1827 c 2,4,-1
 494 1819 l 2,5,6
 494 1771 494 1771 455 1731 c 0,7,8
 426 1706 426 1706 398 1700 c 0,9,10
 383 1697 383 1697 375 1697 c 2,11,-1
 361 1697 l 2,12,13
 329 1697 329 1697 294 1720 c 0,14,15
 260 1745 260 1745 247 1786 c 0,16,17
 242 1804 242 1804 242 1819 c 2,18,-1
 242 1827 l 2,19,20
 242 1874 242 1874 280 1914 c 0,21,22
 318 1949 318 1949 369 1949 c 0,0,1
749 1949 m 0,23,24
 809 1949 809 1949 850 1897 c 0,25,26
 874 1862 874 1862 874 1827 c 2,27,-1
 874 1819 l 2,28,29
 874 1771 874 1771 835 1731 c 0,30,31
 806 1706 806 1706 778 1700 c 0,32,33
 763 1697 763 1697 755 1697 c 2,34,-1
 741 1697 l 2,35,36
 709 1697 709 1697 674 1720 c 0,37,38
 640 1745 640 1745 627 1786 c 0,39,40
 622 1804 622 1804 622 1819 c 2,41,-1
 622 1827 l 2,42,43
 622 1874 622 1874 660 1914 c 0,44,45
 698 1949 698 1949 749 1949 c 0,23,24
EndSplineSet
EndChar

StartChar: copyright
Encoding: 169 169 106
Width: 2025
GlyphClass: 2
Flags: W
LayerCount: 2
Fore
SplineSet
1048 1208 m 2,0,-1
 1060 1208 l 2,1,2
 1187 1208 1187 1208 1306 1138 c 0,3,4
 1339 1119 1339 1119 1373 1090 c 0,5,6
 1408 1058 1408 1058 1427 1034 c 0,7,8
 1441 1018 1441 1018 1453 1000 c 1,9,-1
 1453 999 l 1,10,-1
 1295 889 l 1,11,12
 1283 906 1283 906 1260 930 c 0,13,14
 1225 963 1225 963 1199 977 c 0,15,16
 1131 1015 1131 1015 1054 1015 c 0,17,18
 965 1015 965 1015 889 963 c 0,19,20
 842 931 842 931 809 882 c 0,21,22
 763 808 763 808 763 725 c 0,23,24
 763 612 763 612 844 525 c 0,25,26
 873 496 873 496 893 484 c 0,27,28
 968 435 968 435 1053 435 c 2,29,-1
 1056 435 l 2,30,31
 1166 435 1166 435 1254 514 c 0,32,33
 1284 544 1284 544 1295 562 c 1,34,-1
 1297 563 l 1,35,-1
 1456 455 l 1,36,37
 1440 429 1440 429 1402 388 c 0,38,39
 1364 351 1364 351 1337 332 c 0,40,41
 1307 311 1307 311 1282 298 c 0,42,43
 1247 279 1247 279 1204 265 c 0,44,45
 1129 242 1129 242 1063 242 c 2,46,-1
 1045 242 l 2,47,48
 953 242 953 242 854 285 c 0,49,50
 676 368 676 368 603 549 c 0,51,52
 570 636 570 636 570 717 c 2,53,-1
 570 733 l 2,54,55
 570 842 570 842 625 950 c 0,56,57
 644 986 644 986 677 1029 c 0,58,59
 716 1075 716 1075 755 1105 c 0,60,61
 795 1135 795 1135 830 1154 c 0,62,63
 938 1208 938 1208 1048 1208 c 2,0,-1
1012 1577 m 0,64,65
 1271 1577 1271 1577 1491 1427 c 0,66,67
 1532 1400 1532 1400 1585 1350 c 0,68,69
 1641 1296 1641 1296 1653 1280 c 0,70,71
 1693 1231 1693 1231 1716 1196 c 0,72,73
 1850 983 1850 983 1850 739 c 0,74,75
 1850 500 1850 500 1721 292 c 0,76,77
 1693 246 1693 246 1643 187 c 0,78,79
 1591 130 1591 130 1556 101 c 0,80,81
 1503 57 1503 57 1465 33 c 0,82,83
 1253 -99 1253 -99 1012 -99 c 0,84,85
 769 -99 769 -99 555 36 c 0,86,87
 510 66 510 66 454 115 c 0,88,89
 394 172 394 172 381 188 c 0,90,91
 324 258 324 258 298 301 c 0,92,93
 266 351 266 351 241 410 c 0,94,95
 175 570 175 570 175 728 c 2,96,-1
 175 751 l 2,97,98
 175 909 175 909 243 1072 c 0,99,100
 271 1135 271 1135 316 1207 c 0,101,102
 344 1247 344 1247 388 1297 c 0,103,104
 444 1357 444 1357 468 1374 c 0,105,106
 528 1426 528 1426 577 1455 c 0,107,108
 780 1577 780 1577 1012 1577 c 0,64,65
365 740 m 2,109,-1
 365 736 l 2,110,111
 365 539 365 539 481 368 c 0,112,113
 503 337 503 337 539 298 c 0,114,115
 580 256 580 256 597 243 c 0,116,117
 641 207 641 207 683 181 c 0,118,119
 838 92 838 92 1010 92 c 2,120,-1
 1015 92 l 2,121,122
 1202 92 1202 92 1366 198 c 0,123,124
 1391 212 1391 212 1425 241 c 0,125,126
 1442 253 1442 253 1491 301 c 1,127,-1
 1509 325 l 2,128,129
 1548 371 1548 371 1571 412 c 0,130,131
 1660 566 1660 566 1660 738 c 0,132,133
 1660 942 1660 942 1538 1116 c 0,134,135
 1516 1147 1516 1147 1471 1195 c 0,136,137
 1417 1247 1417 1247 1381 1270 c 0,138,139
 1211 1386 1211 1386 1012 1386 c 0,140,141
 811 1386 811 1386 638 1267 c 0,142,143
 610 1248 610 1248 557 1198 c 0,144,145
 509 1149 509 1149 490 1120 c 0,146,147
 465 1084 465 1084 445 1048 c 0,148,149
 365 902 365 902 365 740 c 2,109,-1
EndSplineSet
EndChar

StartChar: guillemotleft
Encoding: 171 171 108
Width: 1350
GlyphClass: 2
Flags: W
LayerCount: 2
Fore
SplineSet
117 403 m 1,0,-1
 117 537 l 1,1,-1
 467 779 l 1,2,-1
 515 812 l 1,3,-1
 516 812 l 1,4,5
 521 806 521 806 574 729 c 2,6,-1
 626 654 l 1,7,-1
 626 653 l 1,8,-1
 360 470 l 1,9,-1
 626 286 l 1,10,11
 521 133 521 133 516 127 c 1,12,-1
 118 401 l 1,13,-1
 117 403 l 1,0,-1
667 403 m 1,14,-1
 667 537 l 1,15,-1
 1017 779 l 1,16,-1
 1065 812 l 1,17,-1
 1066 812 l 1,18,19
 1071 806 1071 806 1124 729 c 2,20,-1
 1176 654 l 1,21,-1
 1176 653 l 1,22,-1
 910 470 l 1,23,-1
 1176 286 l 1,24,25
 1071 133 1071 133 1066 127 c 1,26,-1
 668 401 l 1,27,-1
 667 403 l 1,14,-1
EndSplineSet
EndChar

StartChar: logicalnot
Encoding: 172 172 109
Width: 1053
GlyphClass: 2
Flags: W
LayerCount: 2
Fore
SplineSet
150 810 m 1,0,-1
 902 810 l 1,1,-1
 903 809 l 1,2,-1
 903 350 l 1,3,-1
 710 350 l 1,4,-1
 710 617 l 1,5,-1
 150 617 l 1,6,-1
 150 810 l 1,0,-1
EndSplineSet
EndChar

StartChar: registered
Encoding: 174 174 110
Width: 1303
GlyphClass: 2
Flags: W
LayerCount: 2
Fore
SplineSet
575 1191 m 1,0,-1
 575 989 l 1,1,-1
 670 989 l 2,2,3
 719 989 719 989 752 1023 c 0,4,5
 778 1052 778 1052 778 1091 c 2,6,-1
 778 1098 l 2,7,8
 778 1150 778 1150 729 1178 c 0,9,10
 702 1191 702 1191 671 1191 c 2,11,-1
 575 1191 l 1,0,-1
503 1263 m 1,12,-1
 674 1263 l 2,13,14
 717 1263 717 1263 759 1243 c 0,15,16
 773 1237 773 1237 788 1225 c 0,17,18
 795 1220 795 1220 808 1208 c 0,19,20
 828 1186 828 1186 838 1162 c 0,21,22
 851 1132 851 1132 851 1101 c 2,23,-1
 851 1088 l 2,24,25
 851 1048 851 1048 831 1010 c 0,26,27
 824 997 824 997 812 982 c 0,28,29
 799 967 799 967 787 957 c 0,30,31
 768 943 768 943 756 937 c 0,32,33
 749 933 749 933 744 932 c 1,34,35
 745 930 745 930 785 856 c 2,36,-1
 861 714 l 1,37,-1
 775 714 l 1,38,39
 773 718 773 718 711 836 c 2,40,-1
 670 917 l 1,41,-1
 577 917 l 1,42,-1
 575 916 l 1,43,-1
 575 714 l 1,44,-1
 503 714 l 1,45,-1
 503 1263 l 1,12,-1
651 1464 m 0,46,47
 799 1464 799 1464 924 1379 c 0,48,49
 947 1363 947 1363 978 1335 c 0,50,51
 1009 1304 1009 1304 1016 1295 c 0,52,53
 1039 1267 1039 1267 1052 1247 c 0,54,55
 1128 1126 1128 1126 1128 987 c 0,56,57
 1128 851 1128 851 1055 733 c 0,58,59
 1039 707 1039 707 1011 673 c 0,60,61
 981 641 981 641 961 624 c 0,62,63
 931 599 931 599 909 585 c 0,64,65
 789 510 789 510 651 510 c 256,66,67
 513 510 513 510 392 587 c 0,68,69
 366 604 366 604 334 632 c 0,70,71
 299 664 299 664 292 674 c 0,72,73
 260 713 260 713 245 738 c 0,74,75
 227 766 227 766 213 800 c 0,76,77
 175 891 175 891 175 981 c 2,78,-1
 175 994 l 2,79,80
 175 1084 175 1084 213 1177 c 0,81,82
 230 1213 230 1213 256 1254 c 0,83,84
 271 1276 271 1276 296 1305 c 0,85,86
 328 1339 328 1339 342 1349 c 0,87,88
 376 1378 376 1378 404 1394 c 0,89,90
 520 1464 520 1464 651 1464 c 0,46,47
255 988 m 2,91,-1
 255 985 l 2,92,93
 255 864 255 864 326 759 c 0,94,95
 339 740 339 740 361 716 c 0,96,97
 386 691 386 691 397 683 c 0,98,99
 424 661 424 661 450 645 c 0,100,101
 545 591 545 591 650 591 c 2,102,-1
 653 591 l 2,103,104
 768 591 768 591 868 655 c 0,105,106
 884 664 884 664 905 682 c 0,107,108
 915 689 915 689 945 718 c 1,109,-1
 956 733 l 2,110,111
 980 761 980 761 994 787 c 0,112,113
 1048 881 1048 881 1048 986 c 0,114,115
 1048 1112 1048 1112 974 1218 c 0,116,117
 960 1237 960 1237 933 1266 c 0,118,119
 900 1299 900 1299 878 1313 c 0,120,121
 773 1384 773 1384 651 1384 c 0,122,123
 528 1384 528 1384 422 1311 c 0,124,125
 405 1299 405 1299 373 1268 c 0,126,127
 343 1239 343 1239 331 1221 c 0,128,129
 316 1199 316 1199 304 1176 c 0,130,131
 255 1087 255 1087 255 988 c 2,91,-1
EndSplineSet
EndChar

StartChar: degree
Encoding: 176 176 112
Width: 989
GlyphClass: 2
Flags: W
LayerCount: 2
Fore
SplineSet
312 1086 m 0,0,1
 312 1028 312 1028 358 985 c 0,2,3
 397 953 397 953 443 953 c 0,4,5
 501 953 501 953 544 1001 c 0,6,7
 576 1038 576 1038 576 1086 c 0,8,9
 576 1149 576 1149 520 1192 c 0,10,11
 485 1217 485 1217 443 1217 c 0,12,13
 380 1217 380 1217 337 1162 c 0,14,15
 312 1127 312 1127 312 1086 c 0,0,1
436 1430 m 2,16,-1
 451 1430 l 2,17,18
 539 1430 539 1430 626 1378 c 0,19,20
 728 1315 728 1315 770 1197 c 0,21,22
 788 1140 788 1140 788 1086 c 0,23,24
 788 960 788 960 702 858 c 0,25,26
 671 825 671 825 653 812 c 0,27,28
 557 741 557 741 444 741 c 0,29,30
 320 741 320 741 219 824 c 0,31,32
 186 854 186 854 177 868 c 0,33,34
 161 886 161 886 146 909 c 0,35,36
 99 994 99 994 99 1078 c 2,37,-1
 99 1093 l 2,38,39
 99 1182 99 1182 153 1270 c 0,40,41
 215 1368 215 1368 329 1411 c 0,42,43
 387 1430 387 1430 436 1430 c 2,16,-1
EndSplineSet
EndChar

StartChar: plusminus
Encoding: 177 177 113
Width: 862
GlyphClass: 2
Flags: W
LayerCount: 2
Fore
SplineSet
76 0 m 1,0,-1
 785 0 l 1,1,-1
 786 -1 l 1,2,-1
 786 -192 l 1,3,-1
 785 -193 l 1,4,-1
 76 -193 l 1,5,-1
 76 0 l 1,0,-1
335 414 m 1,6,-1
 76 414 l 1,7,-1
 76 607 l 1,8,-1
 335 607 l 1,9,-1
 335 864 l 1,10,-1
 336 865 l 1,11,-1
 527 865 l 1,12,-1
 528 864 l 1,13,-1
 528 607 l 1,14,-1
 785 607 l 1,15,-1
 786 606 l 1,16,-1
 786 415 l 1,17,-1
 785 414 l 1,18,-1
 528 414 l 1,19,-1
 528 155 l 1,20,-1
 335 155 l 1,21,-1
 335 414 l 1,6,-1
EndSplineSet
EndChar

StartChar: acute
Encoding: 180 180 116
Width: 968
GlyphClass: 2
Flags: W
LayerCount: 2
Fore
SplineSet
726 1868 m 1,0,-1
 343 1633 l 1,1,-1
 342 1634 l 1,2,-1
 242 1796 l 1,3,-1
 242 1798 l 1,4,-1
 625 2032 l 1,5,-1
 726 1868 l 1,0,-1
EndSplineSet
EndChar

StartChar: mu
Encoding: 181 181 117
Width: 1175
GlyphClass: 2
Flags: W
LayerCount: 2
Fore
SplineSet
353 46 m 1,0,-1
 353 -400 l 1,1,-1
 352 -401 l 1,2,-1
 161 -401 l 1,3,-1
 160 -400 l 1,4,-1
 160 958 l 1,5,-1
 161 959 l 1,6,-1
 352 959 l 1,7,-1
 353 958 l 1,8,-1
 353 372 l 2,9,10
 354 251 354 251 455 212 c 0,11,12
 498 193 498 193 565 193 c 2,13,-1
 581 193 l 2,14,15
 703 193 703 193 754 231 c 1,16,17
 821 271 821 271 821 379 c 2,18,-1
 821 955 l 1,19,-1
 823 958 l 1,20,-1
 1011 958 l 1,21,-1
 1013 955 l 1,22,-1
 1013 8 l 1,23,-1
 1011 5 l 1,24,-1
 823 5 l 1,25,-1
 821 8 l 1,26,-1
 821 62 l 1,27,-1
 819 62 l 1,28,29
 768 34 768 34 686 10 c 0,30,31
 642 0 642 0 578 0 c 2,32,-1
 569 0 l 2,33,34
 444 0 444 0 353 46 c 1,0,-1
EndSplineSet
EndChar

StartChar: paragraph
Encoding: 182 182 118
Width: 1190
GlyphClass: 2
Flags: W
LayerCount: 2
Fore
SplineSet
734 101 m 1,0,-1
 734 1162 l 1,1,-1
 622 1162 l 1,2,-1
 622 101 l 1,3,-1
 621 100 l 1,4,-1
 429 100 l 1,5,-1
 428 101 l 1,6,-1
 428 664 l 1,7,8
 293 683 293 683 209 762 c 0,9,10
 107 856 107 856 107 1007 c 0,11,12
 107 1164 107 1164 214.5 1260 c 128,-1,13
 322 1356 322 1356 500 1356 c 2,14,-1
 943 1356 l 1,15,-1
 943 1355 l 1,16,-1
 1011 1355 l 1,17,-1
 1012 1354 l 1,18,-1
 1012 1163 l 1,19,-1
 1011 1162 l 1,20,-1
 928 1162 l 1,21,-1
 928 101 l 1,22,-1
 927 100 l 1,23,-1
 735 100 l 1,24,-1
 734 101 l 1,0,-1
EndSplineSet
EndChar

StartChar: periodcentered
Encoding: 183 183 119
Width: 736
GlyphClass: 2
Flags: W
LayerCount: 2
Fore
SplineSet
369 898 m 0,0,1
 429 898 429 898 470 846 c 0,2,3
 494 811 494 811 494 776 c 2,4,-1
 494 768 l 2,5,6
 494 720 494 720 455 680 c 0,7,8
 426 655 426 655 398 649 c 0,9,10
 383 646 383 646 375 646 c 2,11,-1
 361 646 l 2,12,13
 329 646 329 646 294 669 c 0,14,15
 260 694 260 694 247 735 c 0,16,17
 242 753 242 753 242 768 c 2,18,-1
 242 776 l 2,19,20
 242 823 242 823 280 863 c 0,21,22
 318 898 318 898 369 898 c 0,0,1
EndSplineSet
EndChar

StartChar: cedilla
Encoding: 184 184 120
Width: 896
GlyphClass: 2
Flags: W
LayerCount: 2
Fore
SplineSet
350 31 m 1,0,-1
 505 -1 l 1,1,-1
 505 -2 l 1,2,-1
 493 -64 l 1,3,4
 523 -69 523 -69 538 -74 c 0,5,6
 600 -100 600 -100 629 -157 c 0,7,8
 651 -202 651 -202 651 -245 c 2,9,-1
 651 -252 l 2,10,11
 651 -317 651 -317 605 -375 c 0,12,13
 583 -398 583 -398 572 -406 c 0,14,15
 508 -454 508 -454 435 -454 c 2,16,-1
 430 -454 l 2,17,18
 351 -454 351 -454 281 -397 c 0,19,20
 253 -370 253 -370 250 -364 c 2,21,-1
 245 -358 l 1,22,-1
 245 -357 l 1,23,-1
 372 -259 l 1,24,25
 399 -294 399 -294 432 -294 c 0,26,27
 455 -294 455 -294 475 -278 c 0,28,29
 491 -264 491 -264 491 -249 c 0,30,31
 491 -238 491 -238 484 -227 c 0,32,33
 476 -221 476 -221 461 -221 c 2,34,-1
 456 -221 l 2,35,36
 430 -221 430 -221 389 -237 c 2,37,-1
 286 -272 l 1,38,-1
 286 -271 l 1,39,-1
 349 31 l 1,40,-1
 350 31 l 1,0,-1
EndSplineSet
EndChar

StartChar: guillemotright
Encoding: 187 187 123
Width: 1350
GlyphClass: 2
Flags: W
LayerCount: 2
Fore
SplineSet
1232 401 m 1,0,-1
 834 127 l 1,1,2
 829 133 829 133 724 286 c 1,3,-1
 990 470 l 1,4,-1
 724 653 l 1,5,-1
 724 654 l 1,6,-1
 776 729 l 2,7,8
 829 806 829 806 834 812 c 1,9,-1
 835 812 l 1,10,-1
 883 779 l 1,11,-1
 1233 537 l 1,12,-1
 1233 403 l 1,13,-1
 1232 401 l 1,0,-1
682 401 m 1,14,-1
 284 127 l 1,15,16
 279 133 279 133 174 286 c 1,17,-1
 440 470 l 1,18,-1
 174 653 l 1,19,-1
 174 654 l 1,20,-1
 226 729 l 2,21,22
 279 806 279 806 284 812 c 1,23,-1
 285 812 l 1,24,-1
 333 779 l 1,25,-1
 683 537 l 1,26,-1
 683 403 l 1,27,-1
 682 401 l 1,14,-1
EndSplineSet
EndChar

StartChar: questiondown
Encoding: 191 191 127
Width: 1111
GlyphClass: 2
Flags: W
LayerCount: 2
Fore
SplineSet
545 1260 m 0,0,1
 488 1260 488 1260 448 1307 c 0,2,3
 420 1343 420 1343 420 1383 c 2,4,-1
 420 1389 l 2,5,6
 420 1440 420 1440 461 1480 c 0,7,8
 499 1512 499 1512 540 1512 c 2,9,-1
 553 1512 l 2,10,11
 584 1512 584 1512 619 1489 c 0,12,13
 654 1465 654 1465 668 1419 c 0,14,15
 672 1401 672 1401 672 1386 c 0,16,17
 672 1329 672 1329 625 1288 c 0,18,19
 590 1260 590 1260 545 1260 c 0,0,1
542 0 m 2,20,-1
 528 0 l 2,21,22
 441 0 441 0 350 41 c 0,23,24
 311 59 311 59 269 90 c 0,25,26
 247 107 247 107 222 132 c 0,27,28
 184 172 184 172 166 202 c 0,29,30
 94 316 94 316 94 448 c 0,31,32
 94 566 94 566 161 681 c 0,33,34
 179 711 179 711 207 744 c 0,35,36
 240 782 240 782 266 803 c 0,37,38
 302 831 302 831 382 887 c 0,39,40
 402 902 402 902 426 924 c 0,41,42
 438 939 438 939 444 949 c 0,43,44
 449 963 449 963 449 975 c 2,45,-1
 449 1206 l 1,46,-1
 450 1207 l 1,47,-1
 641 1207 l 1,48,-1
 642 1206 l 1,49,-1
 643 978 l 2,50,51
 643 843 643 843 515 746 c 0,52,53
 484 721 484 721 406 667 c 0,54,55
 363 635 363 635 335 595 c 0,56,57
 303 547 303 547 291 488 c 0,58,59
 287 464 287 464 287 448 c 0,60,61
 287 348 287 348 356 271 c 1,62,63
 433 193 433 193 536 193 c 0,64,65
 635 193 635 193 712 267 c 1,66,67
 785 345 785 345 785 448 c 2,68,-1
 785 482 l 1,69,-1
 978 482 l 1,70,-1
 978 439 l 2,71,72
 978 341 978 341 928 240 c 0,73,74
 911 206 911 206 881 167 c 0,75,76
 868 150 868 150 836 119 c 0,77,78
 808 93 808 93 787 79 c 0,79,80
 749 53 749 53 709 35 c 0,81,82
 624 0 624 0 542 0 c 2,20,-1
EndSplineSet
EndChar

StartChar: Agrave
Encoding: 192 192 128
Width: 1432
GlyphClass: 2
Flags: W
LayerCount: 2
Fore
SplineSet
578 2028 m 1,0,-1
 961 1794 l 1,1,-1
 961 1792 l 1,2,-1
 861 1630 l 1,3,-1
 860 1629 l 1,4,-1
 477 1864 l 1,5,-1
 578 2028 l 1,0,-1
449 509 m 1,6,-1
 985 509 l 1,7,-1
 718 1169 l 2,8,9
 715 1169 715 1169 608 899 c 2,10,-1
 449 509 l 1,6,-1
810 1464 m 2,11,12
 813 1464 813 1464 897 1249 c 2,13,-1
 1405 1 l 1,14,-1
 1403 0 l 1,15,-1
 1194 0 l 2,16,17
 1190 0 1190 0 1165 67 c 2,18,-1
 1064 315 l 1,19,-1
 369 315 l 1,20,-1
 242 0 l 1,21,-1
 35 0 l 1,22,-1
 35 1 l 1,23,-1
 541 1250 l 1,24,-1
 629 1464 l 1,25,-1
 810 1464 l 2,11,12
EndSplineSet
EndChar

StartChar: Aacute
Encoding: 193 193 129
Width: 1432
GlyphClass: 2
Flags: W
LayerCount: 2
Fore
SplineSet
477 1793 m 1,0,-1
 860 2028 l 1,1,-1
 861 2027 l 1,2,-1
 961 1865 l 1,3,-1
 961 1863 l 1,4,-1
 578 1629 l 1,5,-1
 477 1793 l 1,0,-1
449 509 m 1,6,-1
 985 509 l 1,7,-1
 718 1169 l 2,8,9
 715 1169 715 1169 608 899 c 2,10,-1
 449 509 l 1,6,-1
810 1464 m 2,11,12
 813 1464 813 1464 897 1249 c 2,13,-1
 1405 1 l 1,14,-1
 1403 0 l 1,15,-1
 1194 0 l 2,16,17
 1190 0 1190 0 1165 67 c 2,18,-1
 1064 315 l 1,19,-1
 369 315 l 1,20,-1
 242 0 l 1,21,-1
 35 0 l 1,22,-1
 35 1 l 1,23,-1
 541 1250 l 1,24,-1
 629 1464 l 1,25,-1
 810 1464 l 2,11,12
EndSplineSet
EndChar

StartChar: Acircumflex
Encoding: 194 194 130
Width: 1432
GlyphClass: 2
Flags: W
LayerCount: 2
Fore
SplineSet
663 2009 m 1,0,-1
 776 2009 l 1,1,2
 789 1995 789 1995 999 1758 c 1,3,-1
 855 1629 l 1,4,-1
 720 1781 l 1,5,-1
 585 1629 l 1,6,-1
 584 1629 l 1,7,-1
 440 1757 l 1,8,-1
 440 1758 l 1,9,-1
 663 2009 l 1,0,-1
449 509 m 1,10,-1
 985 509 l 1,11,-1
 718 1169 l 2,12,13
 715 1169 715 1169 608 899 c 2,14,-1
 449 509 l 1,10,-1
810 1464 m 2,15,16
 813 1464 813 1464 897 1249 c 2,17,-1
 1405 1 l 1,18,-1
 1403 0 l 1,19,-1
 1194 0 l 2,20,21
 1190 0 1190 0 1165 67 c 2,22,-1
 1064 315 l 1,23,-1
 369 315 l 1,24,-1
 242 0 l 1,25,-1
 35 0 l 1,26,-1
 35 1 l 1,27,-1
 541 1250 l 1,28,-1
 629 1464 l 1,29,-1
 810 1464 l 2,15,16
EndSplineSet
EndChar

StartChar: Atilde
Encoding: 195 195 131
Width: 1432
GlyphClass: 2
Flags: W
LayerCount: 2
Fore
SplineSet
1040 1728 m 1,0,1
 1007 1698 1007 1698 974 1678 c 0,2,3
 923 1649 923 1649 874 1649 c 0,4,5
 821 1649 821 1649 719 1706 c 128,-1,6
 617 1763 617 1763 565 1763 c 0,7,8
 521 1763 521 1763 472 1730 c 0,9,10
 440 1708 440 1708 400 1657 c 1,11,-1
 400 1839 l 1,12,13
 434 1880 434 1880 467 1899 c 0,14,15
 518 1930 518 1930 565 1930 c 0,16,17
 622 1930 622 1930 724 1871.5 c 128,-1,18
 826 1813 826 1813 874 1813 c 0,19,20
 918 1813 918 1813 967 1846 c 0,21,22
 1000 1869 1000 1869 1040 1921 c 1,23,-1
 1040 1728 l 1,0,1
449 509 m 1,24,-1
 985 509 l 1,25,-1
 718 1169 l 2,26,27
 715 1169 715 1169 608 899 c 2,28,-1
 449 509 l 1,24,-1
810 1464 m 2,29,30
 813 1464 813 1464 897 1249 c 2,31,-1
 1405 1 l 1,32,-1
 1403 0 l 1,33,-1
 1194 0 l 2,34,35
 1190 0 1190 0 1165 67 c 2,36,-1
 1064 315 l 1,37,-1
 369 315 l 1,38,-1
 242 0 l 1,39,-1
 35 0 l 1,40,-1
 35 1 l 1,41,-1
 541 1250 l 1,42,-1
 629 1464 l 1,43,-1
 810 1464 l 2,29,30
EndSplineSet
EndChar

StartChar: Adieresis
Encoding: 196 196 132
Width: 1432
GlyphClass: 2
Flags: W
LayerCount: 2
Fore
SplineSet
531 1911 m 0,0,1
 591 1911 591 1911 632 1859 c 0,2,3
 656 1824 656 1824 656 1789 c 2,4,-1
 656 1781 l 2,5,6
 656 1733 656 1733 617 1693 c 0,7,8
 588 1668 588 1668 560 1662 c 0,9,10
 545 1659 545 1659 537 1659 c 2,11,-1
 523 1659 l 2,12,13
 491 1659 491 1659 456 1682 c 0,14,15
 422 1707 422 1707 409 1748 c 0,16,17
 404 1766 404 1766 404 1781 c 2,18,-1
 404 1789 l 2,19,20
 404 1836 404 1836 442 1876 c 0,21,22
 480 1911 480 1911 531 1911 c 0,0,1
911 1911 m 0,23,24
 971 1911 971 1911 1012 1859 c 0,25,26
 1036 1824 1036 1824 1036 1789 c 2,27,-1
 1036 1781 l 2,28,29
 1036 1733 1036 1733 997 1693 c 0,30,31
 968 1668 968 1668 940 1662 c 0,32,33
 925 1659 925 1659 917 1659 c 2,34,-1
 903 1659 l 2,35,36
 871 1659 871 1659 836 1682 c 0,37,38
 802 1707 802 1707 789 1748 c 0,39,40
 784 1766 784 1766 784 1781 c 2,41,-1
 784 1789 l 2,42,43
 784 1836 784 1836 822 1876 c 0,44,45
 860 1911 860 1911 911 1911 c 0,23,24
449 509 m 1,46,-1
 985 509 l 1,47,-1
 718 1169 l 2,48,49
 715 1169 715 1169 608 899 c 2,50,-1
 449 509 l 1,46,-1
810 1464 m 2,51,52
 813 1464 813 1464 897 1249 c 2,53,-1
 1405 1 l 1,54,-1
 1403 0 l 1,55,-1
 1194 0 l 2,56,57
 1190 0 1190 0 1165 67 c 2,58,-1
 1064 315 l 1,59,-1
 369 315 l 1,60,-1
 242 0 l 1,61,-1
 35 0 l 1,62,-1
 35 1 l 1,63,-1
 541 1250 l 1,64,-1
 629 1464 l 1,65,-1
 810 1464 l 2,51,52
EndSplineSet
EndChar

StartChar: Aring
Encoding: 197 197 133
Width: 1432
GlyphClass: 2
Flags: W
LayerCount: 2
Fore
SplineSet
650 1628 m 2,0,-1
 650 1627 l 2,1,2
 650 1594 650 1594 678 1571 c 0,3,4
 697 1556 697 1556 719 1556 c 0,5,6
 753 1556 753 1556 776 1584 c 0,7,8
 790 1605 790 1605 790 1627 c 2,9,-1
 790 1629 l 2,10,11
 790 1656 790 1656 770 1676 c 0,12,13
 748 1697 748 1697 719 1697 c 0,14,15
 692 1697 692 1697 671 1678 c 0,16,17
 650 1656 650 1656 650 1628 c 2,0,-1
449 509 m 1,18,-1
 985 509 l 1,19,-1
 718 1169 l 2,20,21
 715 1169 715 1169 608 899 c 2,22,-1
 449 509 l 1,18,-1
629 1463 m 1,23,-1
 628 1463 l 1,24,25
 613 1472 613 1472 599 1483 c 0,26,27
 583 1498 583 1498 576 1508 c 0,28,29
 561 1527 561 1527 553 1541 c 0,30,31
 533 1583 533 1583 533 1621 c 2,32,-1
 533 1631 l 2,33,34
 533 1686 533 1686 569 1737 c 0,35,36
 576 1747 576 1747 594 1766 c 0,37,38
 651 1813 651 1813 718 1813 c 2,39,-1
 721 1813 l 2,40,41
 787 1813 787 1813 842 1768 c 0,42,43
 863 1747 863 1747 869 1739 c 0,44,45
 907 1687 907 1687 907 1627 c 0,46,47
 907 1551 907 1551 850 1493 c 2,48,-1
 841 1483 l 2,49,50
 827 1472 827 1472 812 1463 c 1,51,-1
 811 1463 l 1,52,53
 819 1449 819 1449 897 1249 c 2,54,-1
 1405 1 l 1,55,-1
 1403 0 l 1,56,-1
 1194 0 l 2,57,58
 1190 0 1190 0 1165 67 c 2,59,-1
 1064 315 l 1,60,-1
 369 315 l 1,61,-1
 242 0 l 1,62,-1
 35 0 l 1,63,-1
 35 1 l 1,64,-1
 541 1250 l 1,65,-1
 629 1463 l 1,23,-1
EndSplineSet
EndChar

StartChar: AE
Encoding: 198 198 134
Width: 1960
GlyphClass: 2
Flags: W
LayerCount: 2
Fore
SplineSet
1061 1127 m 1,0,-1
 698 609 l 1,1,-1
 698 608 l 1,2,-1
 1061 608 l 1,3,-1
 1064 611 l 1,4,-1
 1064 1127 l 1,5,-1
 1061 1127 l 1,0,-1
1064 1464 m 1,6,-1
 1849 1464 l 1,7,-1
 1852 1461 l 1,8,-1
 1852 1274 l 1,9,-1
 1849 1271 l 1,10,-1
 1255 1271 l 1,11,-1
 1255 830 l 1,12,-1
 1258 827 l 1,13,-1
 1726 827 l 1,14,-1
 1728 824 l 1,15,-1
 1728 638 l 1,16,-1
 1726 636 l 1,17,-1
 1255 636 l 1,18,-1
 1255 191 l 1,19,-1
 1849 191 l 1,20,-1
 1852 189 l 1,21,-1
 1852 3 l 1,22,-1
 1849 0 l 1,23,-1
 1066 0 l 1,24,-1
 1064 3 l 1,25,-1
 1064 413 l 1,26,-1
 1061 415 l 1,27,-1
 563 415 l 1,28,29
 556 409 556 409 371 143 c 0,30,31
 276 8 276 8 268 0 c 1,32,-1
 38 0 l 1,33,-1
 35 3 l 1,34,-1
 549 733 l 1,35,-1
 1064 1464 l 1,6,-1
EndSplineSet
EndChar

StartChar: Ccedilla
Encoding: 199 199 135
Width: 1186
GlyphClass: 2
Flags: W
LayerCount: 2
Fore
SplineSet
802 0 m 1,0,-1
 789 -64 l 1,1,2
 819 -69 819 -69 834 -74 c 0,3,4
 896 -100 896 -100 925 -157 c 0,5,6
 948 -202 948 -202 948 -245 c 2,7,-1
 948 -252 l 2,8,9
 948 -317 948 -317 901 -375 c 0,10,11
 880 -398 880 -398 868 -406 c 0,12,13
 804 -454 804 -454 731 -454 c 2,14,-1
 726 -454 l 2,15,16
 647 -454 647 -454 578 -397 c 0,17,18
 550 -370 550 -370 546 -364 c 2,19,-1
 541 -358 l 1,20,-1
 541 -357 l 1,21,-1
 668 -259 l 1,22,23
 696 -294 696 -294 729 -294 c 0,24,25
 751 -294 751 -294 771 -278 c 0,26,27
 787 -264 787 -264 787 -249 c 0,28,29
 787 -238 787 -238 780 -227 c 0,30,31
 772 -221 772 -221 755 -219 c 2,32,-1
 750 -219 l 2,33,34
 726 -221 726 -221 686 -233 c 2,35,-1
 582 -268 l 1,36,-1
 582 -267 l 1,37,-1
 642 16 l 1,38,39
 441 62 441 62 280 234 c 1,40,41
 97 455 97 455 97 729 c 2,42,-1
 97 735 l 2,43,44
 97 1012 97 1012 283 1232 c 1,45,46
 499 1464 499 1464 788 1464 c 2,47,-1
 790 1464 l 2,48,49
 1073 1464 1073 1464 1285 1244 c 1,50,51
 1360 1158 1360 1158 1391 1096 c 1,52,53
 1383 1089 1383 1089 1222 1003 c 1,54,55
 1195 1052 1195 1052 1141 1116 c 1,56,57
 986 1272 986 1272 790 1272 c 0,58,59
 591 1272 591 1272 437 1114 c 1,60,61
 289 947 289 947 289 733 c 0,62,63
 289 485 289 485 478 310 c 1,64,65
 621 194 621 194 781 194 c 2,66,-1
 802 194 l 2,67,68
 978 194 978 194 1131 339 c 1,69,70
 1196 411 1196 411 1223 464 c 1,71,-1
 1392 375 l 1,72,-1
 1392 371 l 1,73,74
 1358 308 1358 308 1302 238 c 1,75,76
 1088 5 1088 5 802 0 c 1,0,-1
EndSplineSet
EndChar

StartChar: Egrave
Encoding: 200 200 136
Width: 1068
GlyphClass: 2
Flags: W
LayerCount: 2
Fore
SplineSet
425 2028 m 1,0,-1
 808 1794 l 1,1,-1
 808 1792 l 1,2,-1
 708 1630 l 1,3,-1
 707 1629 l 1,4,-1
 324 1864 l 1,5,-1
 425 2028 l 1,0,-1
173 1464 m 1,6,-1
 959 1464 l 1,7,-1
 960 1463 l 1,8,-1
 960 1271 l 1,9,-1
 365 1271 l 1,10,-1
 365 828 l 1,11,-1
 836 828 l 1,12,-1
 837 827 l 1,13,-1
 837 637 l 1,14,-1
 836 636 l 1,15,-1
 365 636 l 1,16,-1
 365 193 l 1,17,-1
 960 193 l 1,18,-1
 960 1 l 1,19,-1
 959 0 l 1,20,-1
 173 0 l 1,21,-1
 172 1 l 1,22,-1
 172 1463 l 1,23,-1
 173 1464 l 1,6,-1
EndSplineSet
EndChar

StartChar: Eacute
Encoding: 201 201 137
Width: 1068
GlyphClass: 2
Flags: W
LayerCount: 2
Fore
SplineSet
808 1864 m 1,0,-1
 425 1629 l 1,1,-1
 424 1630 l 1,2,-1
 324 1792 l 1,3,-1
 324 1794 l 1,4,-1
 707 2028 l 1,5,-1
 808 1864 l 1,0,-1
173 1464 m 1,6,-1
 959 1464 l 1,7,-1
 960 1463 l 1,8,-1
 960 1271 l 1,9,-1
 365 1271 l 1,10,-1
 365 828 l 1,11,-1
 836 828 l 1,12,-1
 837 827 l 1,13,-1
 837 637 l 1,14,-1
 836 636 l 1,15,-1
 365 636 l 1,16,-1
 365 193 l 1,17,-1
 960 193 l 1,18,-1
 960 1 l 1,19,-1
 959 0 l 1,20,-1
 173 0 l 1,21,-1
 172 1 l 1,22,-1
 172 1463 l 1,23,-1
 173 1464 l 1,6,-1
EndSplineSet
EndChar

StartChar: Ecircumflex
Encoding: 202 202 138
Width: 1151
GlyphClass: 2
Flags: W
LayerCount: 2
Fore
SplineSet
173 1464 m 1,0,-1
 959 1464 l 1,1,-1
 960 1463 l 1,2,-1
 960 1271 l 1,3,-1
 365 1271 l 1,4,-1
 365 828 l 1,5,-1
 836 828 l 1,6,-1
 837 827 l 1,7,-1
 837 637 l 1,8,-1
 836 636 l 1,9,-1
 365 636 l 1,10,-1
 365 193 l 1,11,-1
 960 193 l 1,12,-1
 960 1 l 1,13,-1
 959 0 l 1,14,-1
 173 0 l 1,15,-1
 172 1 l 1,16,-1
 172 1463 l 1,17,-1
 173 1464 l 1,0,-1
510 2009 m 1,18,-1
 623 2009 l 1,19,20
 636 1995 636 1995 846 1758 c 1,21,-1
 702 1629 l 1,22,-1
 567 1781 l 1,23,-1
 432 1629 l 1,24,-1
 431 1629 l 1,25,-1
 287 1757 l 1,26,-1
 287 1758 l 1,27,-1
 510 2009 l 1,18,-1
EndSplineSet
EndChar

StartChar: Edieresis
Encoding: 203 203 139
Width: 1151
GlyphClass: 2
Flags: W
LayerCount: 2
Fore
SplineSet
173 1464 m 1,0,-1
 959 1464 l 1,1,-1
 960 1463 l 1,2,-1
 960 1271 l 1,3,-1
 365 1271 l 1,4,-1
 365 828 l 1,5,-1
 836 828 l 1,6,-1
 837 827 l 1,7,-1
 837 637 l 1,8,-1
 836 636 l 1,9,-1
 365 636 l 1,10,-1
 365 193 l 1,11,-1
 960 193 l 1,12,-1
 960 1 l 1,13,-1
 959 0 l 1,14,-1
 173 0 l 1,15,-1
 172 1 l 1,16,-1
 172 1463 l 1,17,-1
 173 1464 l 1,0,-1
377 1911 m 0,18,19
 437 1911 437 1911 478 1859 c 0,20,21
 502 1824 502 1824 502 1789 c 2,22,-1
 502 1781 l 2,23,24
 502 1733 502 1733 463 1693 c 0,25,26
 434 1668 434 1668 406 1662 c 0,27,28
 391 1659 391 1659 383 1659 c 2,29,-1
 369 1659 l 2,30,31
 337 1659 337 1659 302 1682 c 0,32,33
 268 1707 268 1707 255 1748 c 0,34,35
 250 1766 250 1766 250 1781 c 2,36,-1
 250 1789 l 2,37,38
 250 1836 250 1836 288 1876 c 0,39,40
 326 1911 326 1911 377 1911 c 0,18,19
757 1911 m 0,41,42
 817 1911 817 1911 858 1859 c 0,43,44
 882 1824 882 1824 882 1789 c 2,45,-1
 882 1781 l 2,46,47
 882 1733 882 1733 843 1693 c 0,48,49
 814 1668 814 1668 786 1662 c 0,50,51
 771 1659 771 1659 763 1659 c 2,52,-1
 749 1659 l 2,53,54
 717 1659 717 1659 682 1682 c 0,55,56
 648 1707 648 1707 635 1748 c 0,57,58
 630 1766 630 1766 630 1781 c 2,59,-1
 630 1789 l 2,60,61
 630 1836 630 1836 668 1876 c 0,62,63
 706 1911 706 1911 757 1911 c 0,41,42
EndSplineSet
EndChar

StartChar: Igrave
Encoding: 204 204 140
Width: 537
GlyphClass: 2
Flags: W
LayerCount: 2
Fore
SplineSet
173 1464 m 1,0,-1
 364 1464 l 1,1,-1
 365 1463 l 1,2,-1
 365 1 l 1,3,-1
 364 0 l 1,4,-1
 173 0 l 1,5,-1
 172 1 l 1,6,-1
 172 1463 l 1,7,-1
 173 1464 l 1,0,-1
127 2028 m 1,8,-1
 510 1794 l 1,9,-1
 510 1792 l 1,10,-1
 410 1630 l 1,11,-1
 409 1629 l 1,12,-1
 26 1864 l 1,13,-1
 127 2028 l 1,8,-1
EndSplineSet
EndChar

StartChar: Iacute
Encoding: 205 205 141
Width: 537
GlyphClass: 2
Flags: W
LayerCount: 2
Fore
SplineSet
173 1464 m 1,0,-1
 364 1464 l 1,1,-1
 365 1463 l 1,2,-1
 365 1 l 1,3,-1
 364 0 l 1,4,-1
 173 0 l 1,5,-1
 172 1 l 1,6,-1
 172 1463 l 1,7,-1
 173 1464 l 1,0,-1
510 1864 m 1,8,-1
 127 1629 l 1,9,-1
 126 1630 l 1,10,-1
 26 1792 l 1,11,-1
 26 1794 l 1,12,-1
 409 2028 l 1,13,-1
 510 1864 l 1,8,-1
EndSplineSet
EndChar

StartChar: Icircumflex
Encoding: 206 206 142
Width: 537
GlyphClass: 2
Flags: W
LayerCount: 2
Fore
SplineSet
173 1464 m 1,0,-1
 364 1464 l 1,1,-1
 365 1463 l 1,2,-1
 365 1 l 1,3,-1
 364 0 l 1,4,-1
 173 0 l 1,5,-1
 172 1 l 1,6,-1
 172 1463 l 1,7,-1
 173 1464 l 1,0,-1
212 2009 m 1,8,-1
 325 2009 l 1,9,10
 338 1995 338 1995 548 1758 c 1,11,-1
 404 1629 l 1,12,-1
 269 1781 l 1,13,-1
 134 1629 l 1,14,-1
 133 1629 l 1,15,-1
 -11 1757 l 1,16,-1
 -11 1758 l 1,17,-1
 212 2009 l 1,8,-1
EndSplineSet
EndChar

StartChar: Idieresis
Encoding: 207 207 143
Width: 537
GlyphClass: 2
Flags: W
LayerCount: 2
Fore
SplineSet
173 1464 m 1,0,-1
 364 1464 l 1,1,-1
 365 1463 l 1,2,-1
 365 1 l 1,3,-1
 364 0 l 1,4,-1
 173 0 l 1,5,-1
 172 1 l 1,6,-1
 172 1463 l 1,7,-1
 173 1464 l 1,0,-1
99 1911 m 0,8,9
 159 1911 159 1911 200 1859 c 0,10,11
 224 1824 224 1824 224 1789 c 2,12,-1
 224 1781 l 2,13,14
 224 1733 224 1733 185 1693 c 0,15,16
 156 1668 156 1668 128 1662 c 0,17,18
 113 1659 113 1659 105 1659 c 2,19,-1
 91 1659 l 2,20,21
 59 1659 59 1659 24 1682 c 0,22,23
 -10 1707 -10 1707 -23 1748 c 0,24,25
 -28 1766 -28 1766 -28 1781 c 2,26,-1
 -28 1789 l 2,27,28
 -28 1836 -28 1836 10 1876 c 0,29,30
 48 1911 48 1911 99 1911 c 0,8,9
439 1911 m 0,31,32
 499 1911 499 1911 540 1859 c 0,33,34
 564 1824 564 1824 564 1789 c 2,35,-1
 564 1781 l 2,36,37
 564 1733 564 1733 525 1693 c 0,38,39
 496 1668 496 1668 468 1662 c 0,40,41
 453 1659 453 1659 445 1659 c 2,42,-1
 431 1659 l 2,43,44
 399 1659 399 1659 364 1682 c 0,45,46
 330 1707 330 1707 317 1748 c 0,47,48
 312 1766 312 1766 312 1781 c 2,49,-1
 312 1789 l 2,50,51
 312 1836 312 1836 350 1876 c 0,52,53
 388 1911 388 1911 439 1911 c 0,31,32
EndSplineSet
EndChar

StartChar: Eth
Encoding: 208 208 144
Width: 1450
GlyphClass: 2
Flags: W
LayerCount: 2
Fore
SplineSet
433 829 m 1,0,-1
 631 829 l 1,1,-1
 631 634 l 1,2,-1
 433 634 l 1,3,-1
 433 193 l 1,4,-1
 609 193 l 2,5,6
 865 193 865 193 1034 381 c 1,7,8
 1165 538 1165 538 1165 731 c 0,9,10
 1165 927 1165 927 1031 1084 c 1,11,12
 952 1167 952 1167 908 1188 c 1,13,14
 869 1216 869 1216 784 1246 c 0,15,16
 709 1270 709 1270 588 1270 c 2,17,-1
 435 1270 l 1,18,-1
 433 1268 l 1,19,-1
 433 829 l 1,0,-1
240 634 m 1,20,-1
 112 634 l 1,21,-1
 112 829 l 1,22,-1
 240 829 l 1,23,-1
 240 1460 l 1,24,-1
 243 1463 l 1,25,-1
 624 1463 l 2,26,27
 888 1463 888 1463 1103 1285 c 1,28,29
 1186 1207 1186 1207 1209 1172 c 0,30,31
 1357 971 1357 971 1357 737 c 2,32,-1
 1357 726 l 2,33,34
 1357 434 1357 434 1135 206 c 1,35,36
 1013 96 1013 96 896 52 c 0,37,38
 762 0 762 0 633 0 c 2,39,-1
 243 0 l 1,40,-1
 240 3 l 1,41,-1
 240 634 l 1,20,-1
EndSplineSet
EndChar

StartChar: Ntilde
Encoding: 209 209 145
Width: 1516
GlyphClass: 2
Flags: W
LayerCount: 2
Fore
SplineSet
1078 1728 m 1,0,1
 1044 1698 1044 1698 1011 1678 c 0,2,3
 960 1649 960 1649 911 1649 c 0,4,5
 858 1649 858 1649 756 1706 c 128,-1,6
 654 1763 654 1763 602 1763 c 0,7,8
 559 1763 559 1763 509 1730 c 0,9,10
 477 1708 477 1708 438 1657 c 1,11,-1
 438 1839 l 1,12,13
 471 1880 471 1880 504 1899 c 0,14,15
 555 1930 555 1930 602 1930 c 0,16,17
 659 1930 659 1930 761 1871.5 c 128,-1,18
 863 1813 863 1813 911 1813 c 0,19,20
 955 1813 955 1813 1004 1846 c 0,21,22
 1037 1869 1037 1869 1078 1921 c 1,23,-1
 1078 1728 l 1,0,1
175 1464 m 1,24,-1
 383 1464 l 1,25,-1
 1085 418 l 1,26,-1
 1149 321 l 1,27,-1
 1150 321 l 1,28,-1
 1150 1461 l 1,29,-1
 1153 1464 l 1,30,-1
 1341 1464 l 1,31,-1
 1344 1461 l 1,32,-1
 1344 3 l 1,33,-1
 1341 0 l 1,34,-1
 1133 0 l 1,35,36
 1079 76 1079 76 734 596 c 1,37,-1
 364 1144 l 1,38,-1
 364 3 l 1,39,-1
 362 0 l 1,40,-1
 175 0 l 1,41,-1
 172 3 l 1,42,-1
 172 1461 l 1,43,-1
 175 1464 l 1,24,-1
EndSplineSet
EndChar

StartChar: Ograve
Encoding: 210 210 146
Width: 1597
GlyphClass: 2
Flags: W
LayerCount: 2
Fore
SplineSet
662 2028 m 1,0,-1
 1045 1794 l 1,1,-1
 1045 1792 l 1,2,-1
 945 1630 l 1,3,-1
 944 1629 l 1,4,-1
 561 1864 l 1,5,-1
 662 2028 l 1,0,-1
801 1464 m 2,6,-1
 804 1464 l 2,7,8
 1094 1464 1094 1464 1313 1237 c 1,9,10
 1507 1015 1507 1015 1507 732 c 0,11,12
 1507 422 1507 422 1278 191 c 1,13,14
 1065 0 1065 0 804 0 c 0,15,16
 542 0 542 0 332 187 c 1,17,18
 239 283 239 283 212 335 c 1,19,20
 99 518 99 518 99 731 c 2,21,-1
 99 735 l 2,22,23
 99 1045 99 1045 331 1277 c 1,24,-1
 398 1332 l 1,25,26
 585 1464 585 1464 801 1464 c 2,6,-1
292 733 m 0,27,28
 292 496 292 496 472 322 c 1,29,30
 620 194 620 194 804 194 c 0,31,32
 1044 194 1044 194 1210 406 c 1,33,34
 1314 558 1314 558 1314 724 c 2,35,-1
 1314 737 l 2,36,37
 1314 942 1314 942 1171 1107 c 1,38,39
 1011 1272 1011 1272 804 1272 c 0,40,41
 574 1272 574 1272 409 1075 c 1,42,43
 292 917 292 917 292 733 c 0,27,28
EndSplineSet
EndChar

StartChar: Oacute
Encoding: 211 211 147
Width: 1597
GlyphClass: 2
Flags: W
LayerCount: 2
Fore
SplineSet
1045 1864 m 1,0,-1
 662 1629 l 1,1,-1
 661 1630 l 1,2,-1
 561 1792 l 1,3,-1
 561 1794 l 1,4,-1
 944 2028 l 1,5,-1
 1045 1864 l 1,0,-1
801 1464 m 2,6,-1
 804 1464 l 2,7,8
 1094 1464 1094 1464 1313 1237 c 1,9,10
 1507 1015 1507 1015 1507 732 c 0,11,12
 1507 422 1507 422 1278 191 c 1,13,14
 1065 0 1065 0 804 0 c 0,15,16
 542 0 542 0 332 187 c 1,17,18
 239 283 239 283 212 335 c 1,19,20
 99 518 99 518 99 731 c 2,21,-1
 99 735 l 2,22,23
 99 1045 99 1045 331 1277 c 1,24,-1
 398 1332 l 1,25,26
 585 1464 585 1464 801 1464 c 2,6,-1
292 733 m 0,27,28
 292 496 292 496 472 322 c 1,29,30
 620 194 620 194 804 194 c 0,31,32
 1044 194 1044 194 1210 406 c 1,33,34
 1314 558 1314 558 1314 724 c 2,35,-1
 1314 737 l 2,36,37
 1314 942 1314 942 1171 1107 c 1,38,39
 1011 1272 1011 1272 804 1272 c 0,40,41
 574 1272 574 1272 409 1075 c 1,42,43
 292 917 292 917 292 733 c 0,27,28
EndSplineSet
EndChar

StartChar: Ocircumflex
Encoding: 212 212 148
Width: 1597
GlyphClass: 2
Flags: W
LayerCount: 2
Fore
SplineSet
746 2009 m 1,0,-1
 859 2009 l 1,1,2
 872 1995 872 1995 1082 1758 c 1,3,-1
 938 1629 l 1,4,-1
 803 1781 l 1,5,-1
 668 1629 l 1,6,-1
 667 1629 l 1,7,-1
 523 1757 l 1,8,-1
 523 1758 l 1,9,-1
 746 2009 l 1,0,-1
801 1464 m 2,10,-1
 804 1464 l 2,11,12
 1094 1464 1094 1464 1313 1237 c 1,13,14
 1507 1015 1507 1015 1507 732 c 0,15,16
 1507 422 1507 422 1278 191 c 1,17,18
 1065 0 1065 0 804 0 c 0,19,20
 542 0 542 0 332 187 c 1,21,22
 239 283 239 283 212 335 c 1,23,24
 99 518 99 518 99 731 c 2,25,-1
 99 735 l 2,26,27
 99 1045 99 1045 331 1277 c 1,28,-1
 398 1332 l 1,29,30
 585 1464 585 1464 801 1464 c 2,10,-1
292 733 m 0,31,32
 292 496 292 496 472 322 c 1,33,34
 620 194 620 194 804 194 c 0,35,36
 1044 194 1044 194 1210 406 c 1,37,38
 1314 558 1314 558 1314 724 c 2,39,-1
 1314 737 l 2,40,41
 1314 942 1314 942 1171 1107 c 1,42,43
 1011 1272 1011 1272 804 1272 c 0,44,45
 574 1272 574 1272 409 1075 c 1,46,47
 292 917 292 917 292 733 c 0,31,32
EndSplineSet
EndChar

StartChar: Otilde
Encoding: 213 213 149
Width: 1597
GlyphClass: 2
Flags: W
LayerCount: 2
Fore
SplineSet
1123 1728 m 1,0,1
 1089 1698 1089 1698 1056 1678 c 0,2,3
 1005 1649 1005 1649 956 1649 c 0,4,5
 903 1649 903 1649 801 1706 c 128,-1,6
 699 1763 699 1763 647 1763 c 0,7,8
 604 1763 604 1763 554 1730 c 0,9,10
 522 1708 522 1708 483 1657 c 1,11,-1
 483 1839 l 1,12,13
 516 1880 516 1880 549 1899 c 0,14,15
 600 1930 600 1930 647 1930 c 0,16,17
 704 1930 704 1930 806 1871.5 c 128,-1,18
 908 1813 908 1813 956 1813 c 0,19,20
 1000 1813 1000 1813 1049 1846 c 0,21,22
 1082 1869 1082 1869 1123 1921 c 1,23,-1
 1123 1728 l 1,0,1
801 1464 m 2,24,-1
 804 1464 l 2,25,26
 1094 1464 1094 1464 1313 1237 c 1,27,28
 1507 1015 1507 1015 1507 732 c 0,29,30
 1507 422 1507 422 1278 191 c 1,31,32
 1065 0 1065 0 804 0 c 0,33,34
 542 0 542 0 332 187 c 1,35,36
 239 283 239 283 212 335 c 1,37,38
 99 518 99 518 99 731 c 2,39,-1
 99 735 l 2,40,41
 99 1045 99 1045 331 1277 c 1,42,-1
 398 1332 l 1,43,44
 585 1464 585 1464 801 1464 c 2,24,-1
292 733 m 0,45,46
 292 496 292 496 472 322 c 1,47,48
 620 194 620 194 804 194 c 0,49,50
 1044 194 1044 194 1210 406 c 1,51,52
 1314 558 1314 558 1314 724 c 2,53,-1
 1314 737 l 2,54,55
 1314 942 1314 942 1171 1107 c 1,56,57
 1011 1272 1011 1272 804 1272 c 0,58,59
 574 1272 574 1272 409 1075 c 1,60,61
 292 917 292 917 292 733 c 0,45,46
EndSplineSet
EndChar

StartChar: Odieresis
Encoding: 214 214 150
Width: 1597
GlyphClass: 2
Flags: W
LayerCount: 2
Fore
SplineSet
612 1911 m 0,0,1
 672 1911 672 1911 713 1859 c 0,2,3
 737 1824 737 1824 737 1789 c 2,4,-1
 737 1781 l 2,5,6
 737 1733 737 1733 698 1693 c 0,7,8
 669 1668 669 1668 641 1662 c 0,9,10
 626 1659 626 1659 618 1659 c 2,11,-1
 604 1659 l 2,12,13
 572 1659 572 1659 537 1682 c 0,14,15
 503 1707 503 1707 490 1748 c 0,16,17
 485 1766 485 1766 485 1781 c 2,18,-1
 485 1789 l 2,19,20
 485 1836 485 1836 523 1876 c 0,21,22
 561 1911 561 1911 612 1911 c 0,0,1
992 1911 m 0,23,24
 1052 1911 1052 1911 1093 1859 c 0,25,26
 1117 1824 1117 1824 1117 1789 c 2,27,-1
 1117 1781 l 2,28,29
 1117 1733 1117 1733 1078 1693 c 0,30,31
 1049 1668 1049 1668 1021 1662 c 0,32,33
 1006 1659 1006 1659 998 1659 c 2,34,-1
 984 1659 l 2,35,36
 952 1659 952 1659 917 1682 c 0,37,38
 883 1707 883 1707 870 1748 c 0,39,40
 865 1766 865 1766 865 1781 c 2,41,-1
 865 1789 l 2,42,43
 865 1836 865 1836 903 1876 c 0,44,45
 941 1911 941 1911 992 1911 c 0,23,24
801 1464 m 2,46,-1
 804 1464 l 2,47,48
 1094 1464 1094 1464 1313 1237 c 1,49,50
 1507 1015 1507 1015 1507 732 c 0,51,52
 1507 422 1507 422 1278 191 c 1,53,54
 1065 0 1065 0 804 0 c 0,55,56
 542 0 542 0 332 187 c 1,57,58
 239 283 239 283 212 335 c 1,59,60
 99 518 99 518 99 731 c 2,61,-1
 99 735 l 2,62,63
 99 1045 99 1045 331 1277 c 1,64,-1
 398 1332 l 1,65,66
 585 1464 585 1464 801 1464 c 2,46,-1
291 733 m 0,67,68
 291 496 291 496 471 322 c 1,69,70
 619 194 619 194 804 194 c 0,71,72
 1044 194 1044 194 1209 406 c 1,73,74
 1313 558 1313 558 1313 724 c 2,75,-1
 1313 737 l 2,76,77
 1313 942 1313 942 1170 1107 c 1,78,79
 1010 1272 1010 1272 804 1272 c 0,80,81
 573 1272 573 1272 408 1075 c 1,82,83
 291 917 291 917 291 733 c 0,67,68
EndSplineSet
EndChar

StartChar: multiply
Encoding: 215 215 151
Width: 833
GlyphClass: 2
Flags: W
LayerCount: 2
Fore
SplineSet
416 349 m 1,0,-1
 232 165 l 1,1,-1
 96 301 l 1,2,-1
 280 485 l 1,3,-1
 96 669 l 1,4,-1
 96 670 l 1,5,-1
 231 805 l 1,6,-1
 232 805 l 1,7,-1
 416 621 l 1,8,-1
 600 805 l 1,9,-1
 602 805 l 1,10,-1
 737 670 l 1,11,-1
 737 669 l 1,12,-1
 553 485 l 1,13,-1
 737 301 l 1,14,-1
 600 165 l 1,15,-1
 416 349 l 1,0,-1
EndSplineSet
EndChar

StartChar: Oslash
Encoding: 216 216 152
Width: 1212
GlyphClass: 2
Flags: W
LayerCount: 2
Fore
SplineSet
1033 1214 m 1,0,1
 927 1272 927 1272 804 1272 c 0,2,3
 573 1272 573 1272 408 1075 c 1,4,5
 291 917 291 917 291 733 c 0,6,7
 291 496 291 496 471 322 c 0,8,9
 476 318 476 318 480 314 c 1,10,-1
 1033 1214 l 1,0,1
1179 1096 m 1,11,-1
 641 221 l 1,12,13
 719 194 719 194 804 194 c 0,14,15
 1044 194 1044 194 1209 406 c 1,16,17
 1313 558 1313 558 1313 724 c 2,18,-1
 1313 737 l 2,19,20
 1313 935 1313 935 1179 1096 c 1,11,-1
1134 1378 m 1,21,-1
 1246 1560 l 1,22,-1
 1247 1561 l 1,23,-1
 1406 1467 l 1,24,-1
 1406 1466 l 1,25,-1
 1283 1266 l 1,26,27
 1298 1252 1298 1252 1313 1237 c 0,28,29
 1507 1015 1507 1015 1507 732 c 0,30,31
 1507 422 1507 422 1278 191 c 1,32,33
 1065 0 1065 0 804 0 c 0,34,35
 664 0 664 0 538 54 c 1,36,-1
 442 -103 l 1,37,-1
 441 -103 l 1,38,-1
 282 -10 l 1,39,-1
 282 -8 l 1,40,-1
 378 149 l 1,41,42
 355 167 355 167 332 187 c 0,43,44
 239 283 239 283 212 335 c 1,45,46
 99 518 99 518 99 731 c 2,47,-1
 99 735 l 2,48,49
 99 1045 99 1045 331 1277 c 1,50,-1
 398 1332 l 1,51,52
 585 1464 585 1464 801 1464 c 2,53,-1
 804 1464 l 2,54,55
 983 1464 983 1464 1134 1378 c 1,21,-1
EndSplineSet
EndChar

StartChar: Ugrave
Encoding: 217 217 153
Width: 1485
GlyphClass: 2
Flags: W
LayerCount: 2
Fore
SplineSet
602 2028 m 1,0,-1
 985 1794 l 1,1,-1
 985 1792 l 1,2,-1
 885 1630 l 1,3,-1
 884 1629 l 1,4,-1
 501 1864 l 1,5,-1
 602 2028 l 1,0,-1
173 1464 m 1,6,-1
 360 1464 l 1,7,-1
 362 1461 l 1,8,-1
 362 570 l 2,9,10
 362 409 362 409 417 332 c 1,11,12
 467 245 467 245 585 205 c 1,13,14
 630 194 630 194 671 194 c 2,15,-1
 814 194 l 2,16,17
 985 194 985 194 1079 349 c 1,18,19
 1122 432 1122 432 1122 543 c 2,20,-1
 1122 1461 l 1,21,-1
 1125 1464 l 1,22,-1
 1313 1464 l 1,23,-1
 1316 1461 l 1,24,-1
 1316 593 l 2,25,26
 1316 419 1316 419 1285 341 c 0,27,28
 1224 168 1224 168 1085 78 c 0,29,30
 964 0 964 0 791 0 c 2,31,-1
 695 0 l 2,32,33
 467 0 467 0 328 137 c 0,34,35
 267 198 267 198 235 259 c 0,36,37
 170 387 170 387 170 532 c 2,38,-1
 170 1461 l 1,39,-1
 173 1464 l 1,6,-1
EndSplineSet
EndChar

StartChar: Uacute
Encoding: 218 218 154
Width: 1485
GlyphClass: 2
Flags: W
LayerCount: 2
Fore
SplineSet
985 1864 m 1,0,-1
 602 1629 l 1,1,-1
 601 1630 l 1,2,-1
 501 1792 l 1,3,-1
 501 1794 l 1,4,-1
 884 2028 l 1,5,-1
 985 1864 l 1,0,-1
173 1464 m 1,6,-1
 360 1464 l 1,7,-1
 362 1461 l 1,8,-1
 362 570 l 2,9,10
 362 409 362 409 417 332 c 1,11,12
 467 245 467 245 585 205 c 1,13,14
 630 194 630 194 671 194 c 2,15,-1
 814 194 l 2,16,17
 985 194 985 194 1079 349 c 1,18,19
 1122 432 1122 432 1122 543 c 2,20,-1
 1122 1461 l 1,21,-1
 1125 1464 l 1,22,-1
 1313 1464 l 1,23,-1
 1316 1461 l 1,24,-1
 1316 593 l 2,25,26
 1316 419 1316 419 1285 341 c 0,27,28
 1224 168 1224 168 1085 78 c 0,29,30
 964 0 964 0 791 0 c 2,31,-1
 695 0 l 2,32,33
 467 0 467 0 328 137 c 0,34,35
 267 198 267 198 235 259 c 0,36,37
 170 387 170 387 170 532 c 2,38,-1
 170 1461 l 1,39,-1
 173 1464 l 1,6,-1
EndSplineSet
EndChar

StartChar: Ucircumflex
Encoding: 219 219 155
Width: 1485
GlyphClass: 2
Flags: W
LayerCount: 2
Fore
SplineSet
687 2009 m 1,0,-1
 800 2009 l 1,1,2
 813 1995 813 1995 1023 1758 c 1,3,-1
 879 1629 l 1,4,-1
 744 1781 l 1,5,-1
 609 1629 l 1,6,-1
 608 1629 l 1,7,-1
 464 1757 l 1,8,-1
 464 1758 l 1,9,-1
 687 2009 l 1,0,-1
173 1464 m 1,10,-1
 360 1464 l 1,11,-1
 362 1461 l 1,12,-1
 362 570 l 2,13,14
 362 409 362 409 417 332 c 1,15,16
 467 245 467 245 585 205 c 1,17,18
 630 194 630 194 671 194 c 2,19,-1
 814 194 l 2,20,21
 985 194 985 194 1079 349 c 1,22,23
 1122 432 1122 432 1122 543 c 2,24,-1
 1122 1461 l 1,25,-1
 1125 1464 l 1,26,-1
 1313 1464 l 1,27,-1
 1316 1461 l 1,28,-1
 1316 593 l 2,29,30
 1316 419 1316 419 1285 341 c 0,31,32
 1224 168 1224 168 1085 78 c 0,33,34
 964 0 964 0 791 0 c 2,35,-1
 695 0 l 2,36,37
 467 0 467 0 328 137 c 0,38,39
 267 198 267 198 235 259 c 0,40,41
 170 387 170 387 170 532 c 2,42,-1
 170 1461 l 1,43,-1
 173 1464 l 1,10,-1
EndSplineSet
EndChar

StartChar: Udieresis
Encoding: 220 220 156
Width: 1360
GlyphClass: 2
Flags: W
LayerCount: 2
Fore
SplineSet
556 1911 m 0,0,1
 616 1911 616 1911 657 1859 c 0,2,3
 681 1824 681 1824 681 1789 c 2,4,-1
 681 1781 l 2,5,6
 681 1733 681 1733 642 1693 c 0,7,8
 613 1668 613 1668 585 1662 c 0,9,10
 570 1659 570 1659 562 1659 c 2,11,-1
 548 1659 l 2,12,13
 516 1659 516 1659 481 1682 c 0,14,15
 447 1707 447 1707 434 1748 c 0,16,17
 429 1766 429 1766 429 1781 c 2,18,-1
 429 1789 l 2,19,20
 429 1836 429 1836 467 1876 c 0,21,22
 505 1911 505 1911 556 1911 c 0,0,1
936 1911 m 0,23,24
 996 1911 996 1911 1037 1859 c 0,25,26
 1061 1824 1061 1824 1061 1789 c 2,27,-1
 1061 1781 l 2,28,29
 1061 1733 1061 1733 1022 1693 c 0,30,31
 993 1668 993 1668 965 1662 c 0,32,33
 950 1659 950 1659 942 1659 c 2,34,-1
 928 1659 l 2,35,36
 896 1659 896 1659 861 1682 c 0,37,38
 827 1707 827 1707 814 1748 c 0,39,40
 809 1766 809 1766 809 1781 c 2,41,-1
 809 1789 l 2,42,43
 809 1836 809 1836 847 1876 c 0,44,45
 885 1911 885 1911 936 1911 c 0,23,24
173 1464 m 1,46,-1
 360 1464 l 1,47,-1
 362 1461 l 1,48,-1
 362 570 l 2,49,50
 362 409 362 409 417 332 c 1,51,52
 467 245 467 245 585 205 c 1,53,54
 630 194 630 194 671 194 c 2,55,-1
 814 194 l 2,56,57
 985 194 985 194 1079 349 c 1,58,59
 1122 432 1122 432 1122 543 c 2,60,-1
 1122 1461 l 1,61,-1
 1125 1464 l 1,62,-1
 1313 1464 l 1,63,-1
 1316 1461 l 1,64,-1
 1316 593 l 2,65,66
 1316 419 1316 419 1285 341 c 0,67,68
 1224 168 1224 168 1085 78 c 0,69,70
 964 0 964 0 791 0 c 2,71,-1
 695 0 l 2,72,73
 467 0 467 0 328 137 c 0,74,75
 267 198 267 198 235 259 c 0,76,77
 170 387 170 387 170 532 c 2,78,-1
 170 1461 l 1,79,-1
 173 1464 l 1,46,-1
EndSplineSet
EndChar

StartChar: Yacute
Encoding: 221 221 157
Width: 1360
GlyphClass: 2
Flags: W
LayerCount: 2
Fore
SplineSet
924 1864 m 1,0,-1
 541 1629 l 1,1,-1
 540 1630 l 1,2,-1
 440 1792 l 1,3,-1
 440 1794 l 1,4,-1
 823 2028 l 1,5,-1
 924 1864 l 1,0,-1
30 1464 m 1,6,-1
 275 1464 l 1,7,8
 286 1453 286 1453 477 1184 c 2,9,-1
 683 898 l 1,10,11
 1068 1439 1068 1439 1089 1464 c 1,12,-1
 1334 1464 l 1,13,-1
 1334 1463 l 1,14,-1
 784 706 l 1,15,-1
 784 3 l 1,16,-1
 781 0 l 1,17,-1
 583 0 l 1,18,-1
 580 3 l 1,19,-1
 580 704 l 2,20,21
 580 710 580 710 515 798 c 2,22,-1
 30 1463 l 1,23,-1
 30 1464 l 1,6,-1
EndSplineSet
EndChar

StartChar: Thorn
Encoding: 222 222 158
Width: 1368
GlyphClass: 2
Flags: W
LayerCount: 2
Fore
SplineSet
346 222 m 1,0,-1
 346 1 l 1,1,-1
 345 0 l 1,2,-1
 154 0 l 1,3,-1
 153 1 l 1,4,-1
 153 1463 l 1,5,-1
 154 1464 l 1,6,-1
 345 1464 l 1,7,-1
 346 1463 l 1,8,-1
 346 1243 l 1,9,-1
 785 1243 l 2,10,11
 941 1243 941 1243 1065 1177 c 0,12,13
 1097 1159 1097 1159 1131 1132 c 0,14,15
 1143 1123 1143 1123 1173 1091 c 0,16,17
 1279 970 1279 970 1279 801 c 2,18,-1
 1279 665 l 2,19,20
 1279 492 1279 492 1170 371 c 0,21,22
 1139 339 1139 339 1121 325 c 0,23,24
 1084 298 1084 298 1059 285 c 256,25,26
 1034 272 1034 272 1003 260 c 0,27,28
 900 222 900 222 786 222 c 2,29,-1
 346 222 l 1,0,-1
346 1050 m 1,30,-1
 346 415 l 1,31,-1
 777 415 l 2,32,33
 954 415 954 415 1035 510 c 0,34,35
 1054 535 1054 535 1062 552 c 0,36,37
 1086 599 1086 599 1086 676 c 2,38,-1
 1086 789 l 2,39,40
 1086 871 1086 871 1058 921 c 0,41,42
 1022 991 1022 991 931 1026 c 0,43,44
 865 1050 865 1050 774 1050 c 2,45,-1
 346 1050 l 1,30,-1
EndSplineSet
EndChar

StartChar: germandbls
Encoding: 223 223 159
Width: 1360
GlyphClass: 2
Flags: W
LayerCount: 2
Fore
SplineSet
586 1464 m 0,0,1
 763 1464 763 1464 891 1392 c 1,2,3
 1033 1300 1033 1300 1033 1152 c 2,4,-1
 1033 1144 l 2,5,6
 1033 1020 1033 1020 924 881 c 1,7,8
 858 789 858 789 858 747 c 0,9,10
 858 701 858 701 998 633 c 1,11,12
 1266 480 1266 480 1266 286 c 0,13,14
 1266 141 1266 141 1120 25 c 1,15,16
 992 -66 992 -66 848 -66 c 0,17,18
 632 -66 632 -66 481 134 c 0,19,20
 456 168 456 168 456 174 c 1,21,-1
 617 274 l 1,22,-1
 646 235 l 1,23,24
 733 127 733 127 848 127 c 0,25,26
 955 127 955 127 1038 208 c 1,27,28
 1073 253 1073 253 1073 286 c 0,29,30
 1073 381 1073 381 839 499 c 1,31,32
 665 601 665 601 665 751 c 0,33,34
 665 855 665 855 772 1000 c 0,35,36
 840 1086 840 1086 840 1145 c 2,37,-1
 840 1149 l 2,38,39
 840 1250 840 1250 624 1270 c 1,40,-1
 584 1271 l 1,41,42
 416 1271 416 1271 360 1153 c 0,43,44
 346 1120 346 1120 346 1105 c 2,45,-1
 346 3 l 1,46,-1
 343 0 l 1,47,-1
 156 0 l 1,48,-1
 153 3 l 1,49,-1
 153 1114 l 2,50,51
 153 1186 153 1186 216 1290 c 1,52,53
 340 1464 340 1464 586 1464 c 0,0,1
EndSplineSet
EndChar

StartChar: agrave
Encoding: 224 224 160
Width: 1211
GlyphClass: 2
Flags: W
LayerCount: 2
Fore
SplineSet
435 1528 m 1,0,-1
 818 1294 l 1,1,-1
 818 1292 l 1,2,-1
 718 1130 l 1,3,-1
 717 1129 l 1,4,-1
 334 1364 l 1,5,-1
 435 1528 l 1,0,-1
581 973 m 0,6,7
 748 973 748 973 867 846 c 1,8,-1
 867 956 l 1,9,-1
 870 958 l 1,10,-1
 1059 958 l 1,11,-1
 1061 956 l 1,12,-1
 1061 2 l 1,13,-1
 1059 0 l 1,14,-1
 870 0 l 1,15,-1
 867 2 l 1,16,-1
 867 99 l 1,17,18
 755 -24 755 -24 579 -24 c 2,19,-1
 578 -24 l 2,20,21
 359 -24 359 -24 206 153 c 1,22,23
 92 296 92 296 92 474 c 2,24,-1
 92 475 l 2,25,26
 92 695 92 695 262 855 c 1,27,28
 403 973 403 973 581 973 c 0,6,7
285 475 m 0,29,30
 285 317 285 317 421 216 c 1,31,32
 497 170 497 170 565 170 c 2,33,-1
 587 170 l 2,34,35
 683 170 683 170 773 248 c 1,36,37
 867 344 867 344 867 474 c 2,38,-1
 867 475 l 2,39,40
 867 635 867 635 731 733 c 1,41,42
 656 779 656 779 583 779 c 2,43,-1
 567 779 l 2,44,45
 447 779 447 779 350 668 c 1,46,47
 285 576 285 576 285 475 c 0,29,30
EndSplineSet
EndChar

StartChar: aacute
Encoding: 225 225 161
Width: 1211
GlyphClass: 2
Flags: W
LayerCount: 2
Fore
SplineSet
818 1364 m 1,0,-1
 435 1129 l 1,1,-1
 434 1130 l 1,2,-1
 334 1292 l 1,3,-1
 334 1294 l 1,4,-1
 717 1528 l 1,5,-1
 818 1364 l 1,0,-1
581 973 m 0,6,7
 748 973 748 973 867 846 c 1,8,-1
 867 956 l 1,9,-1
 870 958 l 1,10,-1
 1059 958 l 1,11,-1
 1061 956 l 1,12,-1
 1061 2 l 1,13,-1
 1059 0 l 1,14,-1
 870 0 l 1,15,-1
 867 2 l 1,16,-1
 867 99 l 1,17,18
 755 -24 755 -24 579 -24 c 2,19,-1
 578 -24 l 2,20,21
 359 -24 359 -24 206 153 c 1,22,23
 92 296 92 296 92 474 c 2,24,-1
 92 475 l 2,25,26
 92 695 92 695 262 855 c 1,27,28
 403 973 403 973 581 973 c 0,6,7
285 475 m 0,29,30
 285 317 285 317 421 216 c 1,31,32
 497 170 497 170 565 170 c 2,33,-1
 587 170 l 2,34,35
 683 170 683 170 773 248 c 1,36,37
 867 344 867 344 867 474 c 2,38,-1
 867 475 l 2,39,40
 867 635 867 635 731 733 c 1,41,42
 656 779 656 779 583 779 c 2,43,-1
 567 779 l 2,44,45
 447 779 447 779 350 668 c 1,46,47
 285 576 285 576 285 475 c 0,29,30
EndSplineSet
EndChar

StartChar: acircumflex
Encoding: 226 226 162
Width: 1211
GlyphClass: 2
Flags: W
LayerCount: 2
Fore
SplineSet
519 1509 m 1,0,-1
 632 1509 l 1,1,2
 645 1495 645 1495 855 1258 c 1,3,-1
 711 1129 l 1,4,-1
 576 1281 l 1,5,-1
 441 1129 l 1,6,-1
 440 1129 l 1,7,-1
 296 1257 l 1,8,-1
 296 1258 l 1,9,-1
 519 1509 l 1,0,-1
581 973 m 0,10,11
 748 973 748 973 867 846 c 1,12,-1
 867 956 l 1,13,-1
 870 958 l 1,14,-1
 1059 958 l 1,15,-1
 1061 956 l 1,16,-1
 1061 2 l 1,17,-1
 1059 0 l 1,18,-1
 870 0 l 1,19,-1
 867 2 l 1,20,-1
 867 99 l 1,21,22
 755 -24 755 -24 579 -24 c 2,23,-1
 578 -24 l 2,24,25
 359 -24 359 -24 206 153 c 1,26,27
 92 296 92 296 92 474 c 2,28,-1
 92 475 l 2,29,30
 92 695 92 695 262 855 c 1,31,32
 403 973 403 973 581 973 c 0,10,11
285 475 m 0,33,34
 285 317 285 317 421 216 c 1,35,36
 497 170 497 170 565 170 c 2,37,-1
 587 170 l 2,38,39
 683 170 683 170 773 248 c 1,40,41
 867 344 867 344 867 474 c 2,42,-1
 867 475 l 2,43,44
 867 635 867 635 731 733 c 1,45,46
 656 779 656 779 583 779 c 2,47,-1
 567 779 l 2,48,49
 447 779 447 779 350 668 c 1,50,51
 285 576 285 576 285 475 c 0,33,34
EndSplineSet
EndChar

StartChar: atilde
Encoding: 227 227 163
Width: 1211
GlyphClass: 2
Flags: W
LayerCount: 2
Fore
SplineSet
896 1228 m 1,0,1
 863 1198 863 1198 830 1178 c 0,2,3
 779 1149 779 1149 730 1149 c 0,4,5
 677 1149 677 1149 575 1206 c 128,-1,6
 473 1263 473 1263 421 1263 c 0,7,8
 377 1263 377 1263 328 1230 c 0,9,10
 296 1208 296 1208 256 1157 c 1,11,-1
 256 1339 l 1,12,13
 290 1380 290 1380 323 1399 c 0,14,15
 374 1430 374 1430 421 1430 c 0,16,17
 478 1430 478 1430 580 1371.5 c 128,-1,18
 682 1313 682 1313 730 1313 c 0,19,20
 774 1313 774 1313 823 1346 c 0,21,22
 856 1369 856 1369 896 1421 c 1,23,-1
 896 1228 l 1,0,1
581 973 m 0,24,25
 748 973 748 973 867 846 c 1,26,-1
 867 956 l 1,27,-1
 870 958 l 1,28,-1
 1059 958 l 1,29,-1
 1061 956 l 1,30,-1
 1061 2 l 1,31,-1
 1059 0 l 1,32,-1
 870 0 l 1,33,-1
 867 2 l 1,34,-1
 867 99 l 1,35,36
 755 -24 755 -24 579 -24 c 2,37,-1
 578 -24 l 2,38,39
 359 -24 359 -24 206 153 c 1,40,41
 92 296 92 296 92 474 c 2,42,-1
 92 475 l 2,43,44
 92 695 92 695 262 855 c 1,45,46
 403 973 403 973 581 973 c 0,24,25
285 475 m 0,47,48
 285 317 285 317 421 216 c 1,49,50
 497 170 497 170 565 170 c 2,51,-1
 587 170 l 2,52,53
 683 170 683 170 773 248 c 1,54,55
 867 344 867 344 867 474 c 2,56,-1
 867 475 l 2,57,58
 867 635 867 635 731 733 c 1,59,60
 656 779 656 779 583 779 c 2,61,-1
 567 779 l 2,62,63
 447 779 447 779 350 668 c 1,64,65
 285 576 285 576 285 475 c 0,47,48
EndSplineSet
EndChar

StartChar: adieresis
Encoding: 228 228 164
Width: 1211
GlyphClass: 2
Flags: W
LayerCount: 2
Fore
SplineSet
387 1411 m 0,0,1
 447 1411 447 1411 488 1359 c 0,2,3
 512 1324 512 1324 512 1289 c 2,4,-1
 512 1281 l 2,5,6
 512 1233 512 1233 473 1193 c 0,7,8
 444 1168 444 1168 416 1162 c 0,9,10
 401 1159 401 1159 393 1159 c 2,11,-1
 379 1159 l 2,12,13
 347 1159 347 1159 312 1182 c 0,14,15
 278 1207 278 1207 265 1248 c 0,16,17
 260 1266 260 1266 260 1281 c 2,18,-1
 260 1289 l 2,19,20
 260 1336 260 1336 298 1376 c 0,21,22
 336 1411 336 1411 387 1411 c 0,0,1
767 1411 m 0,23,24
 827 1411 827 1411 868 1359 c 0,25,26
 892 1324 892 1324 892 1289 c 2,27,-1
 892 1281 l 2,28,29
 892 1233 892 1233 853 1193 c 0,30,31
 824 1168 824 1168 796 1162 c 0,32,33
 781 1159 781 1159 773 1159 c 2,34,-1
 759 1159 l 2,35,36
 727 1159 727 1159 692 1182 c 0,37,38
 658 1207 658 1207 645 1248 c 0,39,40
 640 1266 640 1266 640 1281 c 2,41,-1
 640 1289 l 2,42,43
 640 1336 640 1336 678 1376 c 0,44,45
 716 1411 716 1411 767 1411 c 0,23,24
581 973 m 0,46,47
 748 973 748 973 867 846 c 1,48,-1
 867 956 l 1,49,-1
 870 958 l 1,50,-1
 1059 958 l 1,51,-1
 1061 956 l 1,52,-1
 1061 2 l 1,53,-1
 1059 0 l 1,54,-1
 870 0 l 1,55,-1
 867 2 l 1,56,-1
 867 99 l 1,57,58
 755 -24 755 -24 579 -24 c 2,59,-1
 578 -24 l 2,60,61
 359 -24 359 -24 206 153 c 1,62,63
 92 296 92 296 92 474 c 2,64,-1
 92 475 l 2,65,66
 92 695 92 695 262 855 c 1,67,68
 403 973 403 973 581 973 c 0,46,47
285 475 m 0,69,70
 285 317 285 317 421 216 c 1,71,72
 497 170 497 170 565 170 c 2,73,-1
 587 170 l 2,74,75
 683 170 683 170 773 248 c 1,76,77
 867 344 867 344 867 474 c 2,78,-1
 867 475 l 2,79,80
 867 635 867 635 731 733 c 1,81,82
 656 779 656 779 583 779 c 2,83,-1
 567 779 l 2,84,85
 447 779 447 779 350 668 c 1,86,87
 285 576 285 576 285 475 c 0,69,70
EndSplineSet
EndChar

StartChar: aring
Encoding: 229 229 165
Width: 1211
GlyphClass: 2
Flags: W
LayerCount: 2
Fore
SplineSet
511 1295 m 2,0,-1
 511 1294 l 2,1,2
 511 1263 511 1263 538 1242 c 0,3,4
 555 1228 555 1228 576 1228 c 0,5,6
 608 1228 608 1228 629 1254 c 0,7,8
 643 1273 643 1273 643 1294 c 2,9,-1
 643 1296 l 2,10,11
 643 1321 643 1321 624 1340 c 0,12,13
 603 1360 603 1360 576 1360 c 0,14,15
 551 1360 551 1360 531 1342 c 0,16,17
 511 1321 511 1321 511 1295 c 2,0,-1
575 1468 m 2,18,-1
 578 1468 l 2,19,20
 640 1468 640 1468 691 1426 c 0,21,22
 711 1406 711 1406 716 1399 c 0,23,24
 752 1350 752 1350 752 1294 c 0,25,26
 752 1223 752 1223 699 1169 c 2,27,-1
 690 1159 l 1,28,29
 640 1119 640 1119 576 1119 c 0,30,31
 514 1119 514 1119 464 1159 c 0,32,33
 449 1173 449 1173 442 1183 c 0,34,35
 428 1200 428 1200 421 1214 c 0,36,37
 402 1253 402 1253 402 1288 c 2,38,-1
 402 1298 l 2,39,40
 402 1349 402 1349 436 1397 c 0,41,42
 442 1406 442 1406 459 1424 c 0,43,44
 512 1468 512 1468 575 1468 c 2,18,-1
581 973 m 0,45,46
 748 973 748 973 867 846 c 1,47,-1
 867 956 l 1,48,-1
 870 958 l 1,49,-1
 1059 958 l 1,50,-1
 1061 956 l 1,51,-1
 1061 2 l 1,52,-1
 1059 0 l 1,53,-1
 870 0 l 1,54,-1
 867 2 l 1,55,-1
 867 99 l 1,56,57
 755 -24 755 -24 579 -24 c 2,58,-1
 578 -24 l 2,59,60
 359 -24 359 -24 206 153 c 1,61,62
 92 296 92 296 92 474 c 2,63,-1
 92 475 l 2,64,65
 92 695 92 695 262 855 c 1,66,67
 403 973 403 973 581 973 c 0,45,46
285 475 m 0,68,69
 285 317 285 317 421 216 c 1,70,71
 497 170 497 170 565 170 c 2,72,-1
 587 170 l 2,73,74
 683 170 683 170 773 248 c 1,75,76
 867 344 867 344 867 474 c 2,77,-1
 867 475 l 2,78,79
 867 635 867 635 731 733 c 1,80,81
 656 779 656 779 583 779 c 2,82,-1
 567 779 l 2,83,84
 447 779 447 779 350 668 c 1,85,86
 285 576 285 576 285 475 c 0,68,69
EndSplineSet
EndChar

StartChar: ae
Encoding: 230 230 166
Width: 1906
GlyphClass: 2
Flags: W
LayerCount: 2
Fore
SplineSet
285 475 m 0,0,1
 285 317 285 317 421 216 c 1,2,3
 497 170 497 170 565 170 c 2,4,-1
 587 170 l 2,5,6
 683 170 683 170 773 248 c 1,7,8
 867 344 867 344 867 474 c 2,9,-1
 867 475 l 2,10,11
 867 635 867 635 731 733 c 1,12,13
 656 779 656 779 583 779 c 2,14,-1
 567 779 l 2,15,16
 447 779 447 779 350 668 c 1,17,18
 285 576 285 576 285 475 c 0,0,1
1123 598 m 1,19,-1
 1608 598 l 1,20,-1
 1608 599 l 1,21,22
 1591 650 1591 650 1530 715 c 1,23,24
 1454 780 1454 780 1364 780 c 0,25,26
 1227 780 1227 780 1139 635 c 1,27,-1
 1123 598 l 1,19,-1
1061 102 m 1,28,-1
 1061 2 l 1,29,-1
 1059 0 l 1,30,-1
 870 0 l 1,31,-1
 867 2 l 1,32,-1
 867 99 l 1,33,34
 755 -24 755 -24 579 -24 c 2,35,-1
 578 -24 l 2,36,37
 359 -24 359 -24 206 153 c 1,38,39
 92 296 92 296 92 474 c 2,40,-1
 92 475 l 2,41,42
 92 695 92 695 262 855 c 1,43,44
 403 973 403 973 581 973 c 0,45,46
 748 973 748 973 867 846 c 1,47,-1
 867 956 l 1,48,-1
 870 958 l 1,49,-1
 1059 958 l 1,50,-1
 1061 956 l 1,51,-1
 1061 848 l 1,52,53
 1073 860 1073 860 1086 872 c 0,54,55
 1218 973 1218 973 1351 973 c 2,56,-1
 1380 973 l 2,57,58
 1526 973 1526 973 1661 856 c 1,59,60
 1727 791 1727 791 1752 744 c 0,61,62
 1825 615 1825 615 1825 474 c 2,63,-1
 1825 444 l 2,64,65
 1825 416 1825 416 1821 416 c 2,66,-1
 1105 416 l 1,67,68
 1128 309 1128 309 1181 256 c 0,69,70
 1262 169 1262 169 1365 169 c 0,71,72
 1495 169 1495 169 1583 300 c 1,73,74
 1600 333 1600 333 1603 334 c 0,75,76
 1775 256 1775 256 1777 254 c 0,77,78
 1763 219 1763 219 1714 149 c 1,79,80
 1567 -24 1567 -24 1367 -24 c 2,81,-1
 1363 -24 l 2,82,83
 1192 -24 1192 -24 1061 102 c 1,28,-1
EndSplineSet
EndChar

StartChar: ccedilla
Encoding: 231 231 167
Width: 1043
GlyphClass: 2
Flags: W
LayerCount: 2
Fore
SplineSet
627 -21 m 1,0,-1
 618 -64 l 1,1,2
 648 -69 648 -69 663 -74 c 0,3,4
 725 -100 725 -100 754 -157 c 0,5,6
 776 -202 776 -202 776 -245 c 2,7,-1
 776 -252 l 2,8,9
 776 -317 776 -317 730 -375 c 0,10,11
 708 -398 708 -398 697 -406 c 0,12,13
 633 -454 633 -454 560 -454 c 2,14,-1
 555 -454 l 2,15,16
 476 -454 476 -454 406 -397 c 0,17,18
 378 -370 378 -370 375 -364 c 2,19,-1
 370 -358 l 1,20,-1
 370 -357 l 1,21,-1
 497 -259 l 1,22,23
 524 -294 524 -294 557 -294 c 0,24,25
 580 -294 580 -294 600 -278 c 0,26,27
 616 -264 616 -264 616 -249 c 0,28,29
 616 -238 616 -238 609 -227 c 0,30,31
 601 -221 601 -221 586 -221 c 2,32,-1
 581 -221 l 2,33,34
 555 -221 555 -221 514 -237 c 2,35,-1
 411 -272 l 1,36,-1
 411 -271 l 1,37,-1
 465 -12 l 1,38,39
 385 8 385 8 309 57 c 0,40,41
 285 74 285 74 265 90 c 0,42,43
 228 124 228 124 210 146 c 0,44,45
 170 195 170 195 153 228 c 0,46,47
 134 260 134 260 116 313 c 0,48,49
 90 394 90 394 90 466 c 2,50,-1
 90 482 l 2,51,52
 90 594 90 594 145 707 c 0,53,54
 162 738 162 738 184 771 c 0,55,56
 201 794 201 794 235 831 c 0,57,58
 275 869 275 869 304 889 c 0,59,60
 429 973 429 973 574 973 c 2,61,-1
 576 973 l 2,62,63
 726 973 726 973 856 881 c 0,64,65
 880 863 880 863 910 834 c 0,66,67
 947 796 947 796 959 777 c 0,68,69
 974 757 974 757 974 755 c 2,70,-1
 814 649 l 1,71,-1
 813 649 l 1,72,73
 802 667 802 667 774 696 c 0,74,75
 686 780 686 780 574 780 c 0,76,77
 467 780 467 780 380 702 c 0,78,79
 348 670 348 670 341 656 c 0,80,81
 283 574 283 574 283 474 c 0,82,83
 283 366 283 366 352 277 c 0,84,85
 374 251 374 251 398 231 c 0,86,87
 478 169 478 169 575 169 c 0,88,89
 663 169 663 169 739 223 c 0,90,91
 756 234 756 234 786 264 c 0,92,93
 803 284 803 284 815 303 c 1,94,-1
 816 303 l 1,95,-1
 977 197 l 1,96,97
 960 170 960 170 931 137 c 0,98,99
 897 100 897 100 883 90 c 0,100,101
 850 63 850 63 826 48 c 0,102,103
 730 -10 730 -10 627 -21 c 1,0,-1
EndSplineSet
EndChar

StartChar: egrave
Encoding: 232 232 168
Width: 1066
GlyphClass: 2
Flags: W
LayerCount: 2
Fore
SplineSet
413 1528 m 1,0,-1
 796 1294 l 1,1,-1
 796 1292 l 1,2,-1
 696 1130 l 1,3,-1
 695 1129 l 1,4,-1
 312 1364 l 1,5,-1
 413 1528 l 1,0,-1
283 598 m 1,6,-1
 768 598 l 1,7,-1
 768 599 l 1,8,9
 751 650 751 650 690 715 c 1,10,11
 614 780 614 780 524 780 c 0,12,13
 387 780 387 780 299 635 c 1,14,-1
 283 598 l 1,6,-1
511 973 m 2,15,-1
 540 973 l 2,16,17
 686 973 686 973 821 856 c 1,18,19
 887 791 887 791 912 744 c 0,20,21
 985 615 985 615 985 474 c 2,22,-1
 985 444 l 2,23,24
 985 416 985 416 981 416 c 2,25,-1
 265 416 l 1,26,27
 288 309 288 309 341 256 c 0,28,29
 422 169 422 169 525 169 c 0,30,31
 655 169 655 169 743 300 c 1,32,33
 760 333 760 333 763 334 c 0,34,35
 935 256 935 256 937 254 c 0,36,37
 923 219 923 219 874 149 c 1,38,39
 727 -24 727 -24 527 -24 c 2,40,-1
 523 -24 l 2,41,42
 317 -24 317 -24 169 159 c 1,43,44
 67 302 67 302 67 472 c 2,45,-1
 67 476 l 2,46,47
 67 710 67 710 246 872 c 1,48,49
 378 973 378 973 511 973 c 2,15,-1
EndSplineSet
EndChar

StartChar: eacute
Encoding: 233 233 169
Width: 1066
GlyphClass: 2
Flags: W
LayerCount: 2
Fore
SplineSet
796 1364 m 1,0,-1
 413 1129 l 1,1,-1
 412 1130 l 1,2,-1
 312 1292 l 1,3,-1
 312 1294 l 1,4,-1
 695 1528 l 1,5,-1
 796 1364 l 1,0,-1
283 598 m 1,6,-1
 768 598 l 1,7,-1
 768 599 l 1,8,9
 751 650 751 650 690 715 c 1,10,11
 614 780 614 780 524 780 c 0,12,13
 387 780 387 780 299 635 c 1,14,-1
 283 598 l 1,6,-1
511 973 m 2,15,-1
 540 973 l 2,16,17
 686 973 686 973 821 856 c 1,18,19
 887 791 887 791 912 744 c 0,20,21
 985 615 985 615 985 474 c 2,22,-1
 985 444 l 2,23,24
 985 416 985 416 981 416 c 2,25,-1
 265 416 l 1,26,27
 288 309 288 309 341 256 c 0,28,29
 422 169 422 169 525 169 c 0,30,31
 655 169 655 169 743 300 c 1,32,33
 760 333 760 333 763 334 c 0,34,35
 935 256 935 256 937 254 c 0,36,37
 923 219 923 219 874 149 c 1,38,39
 727 -24 727 -24 527 -24 c 2,40,-1
 523 -24 l 2,41,42
 317 -24 317 -24 169 159 c 1,43,44
 67 302 67 302 67 472 c 2,45,-1
 67 476 l 2,46,47
 67 710 67 710 246 872 c 1,48,49
 378 973 378 973 511 973 c 2,15,-1
EndSplineSet
EndChar

StartChar: ecircumflex
Encoding: 234 234 170
Width: 1066
GlyphClass: 2
Flags: W
LayerCount: 2
Fore
SplineSet
497 1509 m 1,0,-1
 610 1509 l 1,1,2
 623 1495 623 1495 833 1258 c 1,3,-1
 689 1129 l 1,4,-1
 554 1281 l 1,5,-1
 419 1129 l 1,6,-1
 418 1129 l 1,7,-1
 274 1257 l 1,8,-1
 274 1258 l 1,9,-1
 497 1509 l 1,0,-1
283 598 m 1,10,-1
 768 598 l 1,11,-1
 768 599 l 1,12,13
 751 650 751 650 690 715 c 1,14,15
 614 780 614 780 524 780 c 0,16,17
 387 780 387 780 299 635 c 1,18,-1
 283 598 l 1,10,-1
511 973 m 2,19,-1
 540 973 l 2,20,21
 686 973 686 973 821 856 c 1,22,23
 887 791 887 791 912 744 c 0,24,25
 985 615 985 615 985 474 c 2,26,-1
 985 444 l 2,27,28
 985 416 985 416 981 416 c 2,29,-1
 265 416 l 1,30,31
 288 309 288 309 341 256 c 0,32,33
 422 169 422 169 525 169 c 0,34,35
 655 169 655 169 743 300 c 1,36,37
 760 333 760 333 763 334 c 0,38,39
 935 256 935 256 937 254 c 0,40,41
 923 219 923 219 874 149 c 1,42,43
 727 -24 727 -24 527 -24 c 2,44,-1
 523 -24 l 2,45,46
 317 -24 317 -24 169 159 c 1,47,48
 67 302 67 302 67 472 c 2,49,-1
 67 476 l 2,50,51
 67 710 67 710 246 872 c 1,52,53
 378 973 378 973 511 973 c 2,19,-1
EndSplineSet
EndChar

StartChar: edieresis
Encoding: 235 235 171
Width: 1066
GlyphClass: 2
Flags: W
LayerCount: 2
Fore
SplineSet
364 1411 m 0,0,1
 424 1411 424 1411 465 1359 c 0,2,3
 489 1324 489 1324 489 1289 c 2,4,-1
 489 1281 l 2,5,6
 489 1233 489 1233 450 1193 c 0,7,8
 421 1168 421 1168 393 1162 c 0,9,10
 378 1159 378 1159 370 1159 c 2,11,-1
 356 1159 l 2,12,13
 324 1159 324 1159 289 1182 c 0,14,15
 255 1207 255 1207 242 1248 c 0,16,17
 237 1266 237 1266 237 1281 c 2,18,-1
 237 1289 l 2,19,20
 237 1336 237 1336 275 1376 c 0,21,22
 313 1411 313 1411 364 1411 c 0,0,1
744 1411 m 0,23,24
 804 1411 804 1411 845 1359 c 0,25,26
 869 1324 869 1324 869 1289 c 2,27,-1
 869 1281 l 2,28,29
 869 1233 869 1233 830 1193 c 0,30,31
 801 1168 801 1168 773 1162 c 0,32,33
 758 1159 758 1159 750 1159 c 2,34,-1
 736 1159 l 2,35,36
 704 1159 704 1159 669 1182 c 0,37,38
 635 1207 635 1207 622 1248 c 0,39,40
 617 1266 617 1266 617 1281 c 2,41,-1
 617 1289 l 2,42,43
 617 1336 617 1336 655 1376 c 0,44,45
 693 1411 693 1411 744 1411 c 0,23,24
283 598 m 1,46,-1
 768 598 l 1,47,-1
 768 599 l 1,48,49
 751 650 751 650 690 715 c 1,50,51
 614 780 614 780 524 780 c 0,52,53
 387 780 387 780 299 635 c 1,54,-1
 283 598 l 1,46,-1
511 973 m 2,55,-1
 540 973 l 2,56,57
 686 973 686 973 821 856 c 1,58,59
 887 791 887 791 912 744 c 0,60,61
 985 615 985 615 985 474 c 2,62,-1
 985 444 l 2,63,64
 985 416 985 416 981 416 c 2,65,-1
 265 416 l 1,66,67
 288 309 288 309 341 256 c 0,68,69
 422 169 422 169 525 169 c 0,70,71
 655 169 655 169 743 300 c 1,72,73
 760 333 760 333 763 334 c 0,74,75
 935 256 935 256 937 254 c 0,76,77
 923 219 923 219 874 149 c 1,78,79
 727 -24 727 -24 527 -24 c 2,80,-1
 523 -24 l 2,81,82
 317 -24 317 -24 169 159 c 1,83,84
 67 302 67 302 67 472 c 2,85,-1
 67 476 l 2,86,87
 67 710 67 710 246 872 c 1,88,89
 378 973 378 973 511 973 c 2,55,-1
EndSplineSet
EndChar

StartChar: igrave
Encoding: 236 236 172
Width: 518
GlyphClass: 2
Flags: W
LayerCount: 2
Fore
SplineSet
356 958 m 1,0,-1
 356 1 l 1,1,-1
 355 0 l 1,2,-1
 163 0 l 1,3,-1
 162 1 l 1,4,-1
 162 958 l 1,5,-1
 356 958 l 1,0,-1
118 1528 m 1,6,-1
 501 1294 l 1,7,-1
 501 1292 l 1,8,-1
 401 1130 l 1,9,-1
 400 1129 l 1,10,-1
 17 1364 l 1,11,-1
 118 1528 l 1,6,-1
EndSplineSet
EndChar

StartChar: iacute
Encoding: 237 237 173
Width: 514
GlyphClass: 2
Flags: W
LayerCount: 2
Fore
SplineSet
356 958 m 1,0,-1
 356 1 l 1,1,-1
 355 0 l 1,2,-1
 163 0 l 1,3,-1
 162 1 l 1,4,-1
 162 958 l 1,5,-1
 356 958 l 1,0,-1
501 1364 m 1,6,-1
 118 1129 l 1,7,-1
 117 1130 l 1,8,-1
 17 1292 l 1,9,-1
 17 1294 l 1,10,-1
 400 1528 l 1,11,-1
 501 1364 l 1,6,-1
EndSplineSet
EndChar

StartChar: icircumflex
Encoding: 238 238 174
Width: 518
GlyphClass: 2
Flags: W
LayerCount: 2
Fore
SplineSet
356 958 m 1,0,-1
 356 1 l 1,1,-1
 355 0 l 1,2,-1
 163 0 l 1,3,-1
 162 1 l 1,4,-1
 162 958 l 1,5,-1
 356 958 l 1,0,-1
202 1509 m 1,6,-1
 315 1509 l 1,7,8
 328 1495 328 1495 538 1258 c 1,9,-1
 394 1129 l 1,10,-1
 259 1281 l 1,11,-1
 124 1129 l 1,12,-1
 123 1129 l 1,13,-1
 -21 1257 l 1,14,-1
 -21 1258 l 1,15,-1
 202 1509 l 1,6,-1
EndSplineSet
EndChar

StartChar: idieresis
Encoding: 239 239 175
Width: 518
GlyphClass: 2
Flags: W
LayerCount: 2
Fore
SplineSet
356 958 m 1,0,-1
 356 1 l 1,1,-1
 355 0 l 1,2,-1
 163 0 l 1,3,-1
 162 1 l 1,4,-1
 162 958 l 1,5,-1
 356 958 l 1,0,-1
90 1411 m 0,6,7
 150 1411 150 1411 191 1359 c 0,8,9
 215 1324 215 1324 215 1289 c 2,10,-1
 215 1281 l 2,11,12
 215 1233 215 1233 176 1193 c 0,13,14
 147 1168 147 1168 119 1162 c 0,15,16
 104 1159 104 1159 96 1159 c 2,17,-1
 82 1159 l 2,18,19
 50 1159 50 1159 15 1182 c 0,20,21
 -19 1207 -19 1207 -32 1248 c 0,22,23
 -37 1266 -37 1266 -37 1281 c 2,24,-1
 -37 1289 l 2,25,26
 -37 1336 -37 1336 1 1376 c 0,27,28
 39 1411 39 1411 90 1411 c 0,6,7
430 1411 m 0,29,30
 490 1411 490 1411 531 1359 c 0,31,32
 555 1324 555 1324 555 1289 c 2,33,-1
 555 1281 l 2,34,35
 555 1233 555 1233 516 1193 c 0,36,37
 487 1168 487 1168 459 1162 c 0,38,39
 444 1159 444 1159 436 1159 c 2,40,-1
 422 1159 l 2,41,42
 390 1159 390 1159 355 1182 c 0,43,44
 321 1207 321 1207 308 1248 c 0,45,46
 303 1266 303 1266 303 1281 c 2,47,-1
 303 1289 l 2,48,49
 303 1336 303 1336 341 1376 c 0,50,51
 379 1411 379 1411 430 1411 c 0,29,30
EndSplineSet
EndChar

StartChar: ntilde
Encoding: 241 241 177
Width: 1154
GlyphClass: 2
Flags: W
LayerCount: 2
Fore
SplineSet
900 1228 m 1,0,1
 867 1198 867 1198 834 1178 c 0,2,3
 783 1149 783 1149 734 1149 c 0,4,5
 681 1149 681 1149 579 1206 c 128,-1,6
 477 1263 477 1263 425 1263 c 0,7,8
 381 1263 381 1263 332 1230 c 0,9,10
 300 1208 300 1208 260 1157 c 1,11,-1
 260 1339 l 1,12,13
 294 1380 294 1380 327 1399 c 0,14,15
 378 1430 378 1430 425 1430 c 0,16,17
 482 1430 482 1430 584 1371.5 c 128,-1,18
 686 1313 686 1313 734 1313 c 0,19,20
 778 1313 778 1313 827 1346 c 0,21,22
 860 1369 860 1369 900 1421 c 1,23,-1
 900 1228 l 1,0,1
588 958 m 2,24,-1
 597 958 l 2,25,26
 855 958 855 958 967 763 c 1,27,28
 1006 686 1006 686 1006 582 c 2,29,-1
 1006 3 l 1,30,-1
 1004 0 l 1,31,-1
 816 0 l 1,32,-1
 814 3 l 1,33,-1
 814 584 l 2,34,35
 814 707 814 707 711 746 c 0,36,37
 668 765 668 765 601 765 c 2,38,-1
 585 765 l 2,39,40
 463 765 463 765 412 727 c 1,41,42
 346 687 346 687 346 579 c 2,43,-1
 346 3 l 1,44,-1
 343 0 l 1,45,-1
 156 0 l 1,46,-1
 153 3 l 1,47,-1
 153 950 l 1,48,-1
 156 953 l 1,49,-1
 343 953 l 1,50,-1
 346 950 l 1,51,-1
 346 896 l 1,52,-1
 347 896 l 1,53,54
 398 924 398 924 481 948 c 0,55,56
 524 958 524 958 588 958 c 2,24,-1
EndSplineSet
EndChar

StartChar: ograve
Encoding: 242 242 178
Width: 1150
GlyphClass: 2
Flags: W
LayerCount: 2
Fore
SplineSet
434 1528 m 1,0,-1
 817 1294 l 1,1,-1
 817 1292 l 1,2,-1
 717 1130 l 1,3,-1
 716 1129 l 1,4,-1
 333 1364 l 1,5,-1
 434 1528 l 1,0,-1
283 473 m 0,6,7
 283 364 283 364 354 275 c 0,8,9
 385 240 385 240 402 229 c 0,10,11
 481 169 481 169 574 169 c 0,12,13
 688 169 688 169 776 255 c 0,14,15
 811 292 811 292 825 319 c 0,16,17
 866 393 866 393 866 472 c 2,18,-1
 866 475 l 2,19,20
 866 590 866 590 787 682 c 0,21,22
 753 718 753 718 741 723 c 0,23,24
 724 737 724 737 709 745 c 0,25,26
 644 780 644 780 574 780 c 0,27,28
 468 780 468 780 380 701 c 0,29,30
 349 670 349 670 341 655 c 0,31,32
 283 574 283 574 283 473 c 0,6,7
574 973 m 0,33,34
 737 973 737 973 872 868 c 0,35,36
 891 854 891 854 926 818 c 0,37,38
 995 741 995 741 1024 660 c 0,39,40
 1059 570 1059 570 1059 473 c 0,41,42
 1059 347 1059 347 998 231 c 0,43,44
 977 193 977 193 941 148 c 0,45,46
 902 103 902 103 878 85 c 0,47,48
 851 63 851 63 827 48 c 0,49,50
 708 -24 708 -24 579 -24 c 2,51,-1
 570 -24 l 2,52,53
 434 -24 434 -24 309 56 c 0,54,55
 285 74 285 74 266 90 c 0,56,57
 227 123 227 123 210 146 c 0,58,59
 189 170 189 170 171 198 c 0,60,61
 151 230 151 230 137 260 c 0,62,63
 90 364 90 364 90 467 c 2,64,-1
 90 482 l 2,65,66
 90 594 90 594 146 707 c 0,67,68
 162 738 162 738 184 770 c 0,69,70
 201 794 201 794 235 831 c 1,71,72
 284 876 284 876 305 889 c 0,73,74
 428 973 428 973 574 973 c 0,33,34
EndSplineSet
EndChar

StartChar: oacute
Encoding: 243 243 179
Width: 1150
GlyphClass: 2
Flags: W
LayerCount: 2
Fore
SplineSet
817 1364 m 1,0,-1
 434 1129 l 1,1,-1
 433 1130 l 1,2,-1
 333 1292 l 1,3,-1
 333 1294 l 1,4,-1
 716 1528 l 1,5,-1
 817 1364 l 1,0,-1
283 473 m 0,6,7
 283 364 283 364 354 275 c 0,8,9
 385 240 385 240 402 229 c 0,10,11
 481 169 481 169 574 169 c 0,12,13
 688 169 688 169 776 255 c 0,14,15
 811 292 811 292 825 319 c 0,16,17
 866 393 866 393 866 472 c 2,18,-1
 866 475 l 2,19,20
 866 590 866 590 787 682 c 0,21,22
 753 718 753 718 741 723 c 0,23,24
 724 737 724 737 709 745 c 0,25,26
 644 780 644 780 574 780 c 0,27,28
 468 780 468 780 380 701 c 0,29,30
 349 670 349 670 341 655 c 0,31,32
 283 574 283 574 283 473 c 0,6,7
574 973 m 0,33,34
 737 973 737 973 872 868 c 0,35,36
 891 854 891 854 926 818 c 0,37,38
 995 741 995 741 1024 660 c 0,39,40
 1059 570 1059 570 1059 473 c 0,41,42
 1059 347 1059 347 998 231 c 0,43,44
 977 193 977 193 941 148 c 0,45,46
 902 103 902 103 878 85 c 0,47,48
 851 63 851 63 827 48 c 0,49,50
 708 -24 708 -24 579 -24 c 2,51,-1
 570 -24 l 2,52,53
 434 -24 434 -24 309 56 c 0,54,55
 285 74 285 74 266 90 c 0,56,57
 227 123 227 123 210 146 c 0,58,59
 189 170 189 170 171 198 c 0,60,61
 151 230 151 230 137 260 c 0,62,63
 90 364 90 364 90 467 c 2,64,-1
 90 482 l 2,65,66
 90 594 90 594 146 707 c 0,67,68
 162 738 162 738 184 770 c 0,69,70
 201 794 201 794 235 831 c 1,71,72
 284 876 284 876 305 889 c 0,73,74
 428 973 428 973 574 973 c 0,33,34
EndSplineSet
EndChar

StartChar: ocircumflex
Encoding: 244 244 180
Width: 1150
GlyphClass: 2
Flags: W
LayerCount: 2
Fore
SplineSet
518 1509 m 1,0,-1
 631 1509 l 1,1,2
 644 1495 644 1495 854 1258 c 1,3,-1
 710 1129 l 1,4,-1
 575 1281 l 1,5,-1
 440 1129 l 1,6,-1
 439 1129 l 1,7,-1
 295 1257 l 1,8,-1
 295 1258 l 1,9,-1
 518 1509 l 1,0,-1
283 473 m 0,10,11
 283 364 283 364 354 275 c 0,12,13
 385 240 385 240 402 229 c 0,14,15
 481 169 481 169 574 169 c 0,16,17
 688 169 688 169 776 255 c 0,18,19
 811 292 811 292 825 319 c 0,20,21
 866 393 866 393 866 472 c 2,22,-1
 866 475 l 2,23,24
 866 590 866 590 787 682 c 0,25,26
 753 718 753 718 741 723 c 0,27,28
 724 737 724 737 709 745 c 0,29,30
 644 780 644 780 574 780 c 0,31,32
 468 780 468 780 380 701 c 0,33,34
 349 670 349 670 341 655 c 0,35,36
 283 574 283 574 283 473 c 0,10,11
574 973 m 0,37,38
 737 973 737 973 872 868 c 0,39,40
 891 854 891 854 926 818 c 0,41,42
 995 741 995 741 1024 660 c 0,43,44
 1059 570 1059 570 1059 473 c 0,45,46
 1059 347 1059 347 998 231 c 0,47,48
 977 193 977 193 941 148 c 0,49,50
 902 103 902 103 878 85 c 0,51,52
 851 63 851 63 827 48 c 0,53,54
 708 -24 708 -24 579 -24 c 2,55,-1
 570 -24 l 2,56,57
 434 -24 434 -24 309 56 c 0,58,59
 285 74 285 74 266 90 c 0,60,61
 227 123 227 123 210 146 c 0,62,63
 189 170 189 170 171 198 c 0,64,65
 151 230 151 230 137 260 c 0,66,67
 90 364 90 364 90 467 c 2,68,-1
 90 482 l 2,69,70
 90 594 90 594 146 707 c 0,71,72
 162 738 162 738 184 770 c 0,73,74
 201 794 201 794 235 831 c 1,75,76
 284 876 284 876 305 889 c 0,77,78
 428 973 428 973 574 973 c 0,37,38
EndSplineSet
EndChar

StartChar: otilde
Encoding: 245 245 181
Width: 1150
GlyphClass: 2
Flags: W
LayerCount: 2
Fore
SplineSet
895 1228 m 1,0,1
 862 1198 862 1198 829 1178 c 0,2,3
 778 1149 778 1149 729 1149 c 0,4,5
 676 1149 676 1149 574 1206 c 128,-1,6
 472 1263 472 1263 420 1263 c 0,7,8
 376 1263 376 1263 327 1230 c 0,9,10
 295 1208 295 1208 255 1157 c 1,11,-1
 255 1339 l 1,12,13
 289 1380 289 1380 322 1399 c 0,14,15
 373 1430 373 1430 420 1430 c 0,16,17
 477 1430 477 1430 579 1371.5 c 128,-1,18
 681 1313 681 1313 729 1313 c 0,19,20
 773 1313 773 1313 822 1346 c 0,21,22
 855 1369 855 1369 895 1421 c 1,23,-1
 895 1228 l 1,0,1
283 473 m 0,24,25
 283 364 283 364 354 275 c 0,26,27
 385 240 385 240 402 229 c 0,28,29
 481 169 481 169 574 169 c 0,30,31
 688 169 688 169 776 255 c 0,32,33
 811 292 811 292 825 319 c 0,34,35
 866 393 866 393 866 472 c 2,36,-1
 866 475 l 2,37,38
 866 590 866 590 787 682 c 0,39,40
 753 718 753 718 741 723 c 0,41,42
 724 737 724 737 709 745 c 0,43,44
 644 780 644 780 574 780 c 0,45,46
 468 780 468 780 380 701 c 0,47,48
 349 670 349 670 341 655 c 0,49,50
 283 574 283 574 283 473 c 0,24,25
574 973 m 0,51,52
 737 973 737 973 872 868 c 0,53,54
 891 854 891 854 926 818 c 0,55,56
 995 741 995 741 1024 660 c 0,57,58
 1059 570 1059 570 1059 473 c 0,59,60
 1059 347 1059 347 998 231 c 0,61,62
 977 193 977 193 941 148 c 0,63,64
 902 103 902 103 878 85 c 0,65,66
 851 63 851 63 827 48 c 0,67,68
 708 -24 708 -24 579 -24 c 2,69,-1
 570 -24 l 2,70,71
 434 -24 434 -24 309 56 c 0,72,73
 285 74 285 74 266 90 c 0,74,75
 227 123 227 123 210 146 c 0,76,77
 189 170 189 170 171 198 c 0,78,79
 151 230 151 230 137 260 c 0,80,81
 90 364 90 364 90 467 c 2,82,-1
 90 482 l 2,83,84
 90 594 90 594 146 707 c 0,85,86
 162 738 162 738 184 770 c 0,87,88
 201 794 201 794 235 831 c 1,89,90
 284 876 284 876 305 889 c 0,91,92
 428 973 428 973 574 973 c 0,51,52
EndSplineSet
EndChar

StartChar: odieresis
Encoding: 246 246 182
Width: 1150
GlyphClass: 2
Flags: W
LayerCount: 2
Fore
SplineSet
386 1411 m 0,0,1
 446 1411 446 1411 487 1359 c 0,2,3
 511 1324 511 1324 511 1289 c 2,4,-1
 511 1281 l 2,5,6
 511 1233 511 1233 472 1193 c 0,7,8
 443 1168 443 1168 415 1162 c 0,9,10
 400 1159 400 1159 392 1159 c 2,11,-1
 378 1159 l 2,12,13
 346 1159 346 1159 311 1182 c 0,14,15
 277 1207 277 1207 264 1248 c 0,16,17
 259 1266 259 1266 259 1281 c 2,18,-1
 259 1289 l 2,19,20
 259 1336 259 1336 297 1376 c 0,21,22
 335 1411 335 1411 386 1411 c 0,0,1
766 1411 m 0,23,24
 826 1411 826 1411 867 1359 c 0,25,26
 891 1324 891 1324 891 1289 c 2,27,-1
 891 1281 l 2,28,29
 891 1233 891 1233 852 1193 c 0,30,31
 823 1168 823 1168 795 1162 c 0,32,33
 780 1159 780 1159 772 1159 c 2,34,-1
 758 1159 l 2,35,36
 726 1159 726 1159 691 1182 c 0,37,38
 657 1207 657 1207 644 1248 c 0,39,40
 639 1266 639 1266 639 1281 c 2,41,-1
 639 1289 l 2,42,43
 639 1336 639 1336 677 1376 c 0,44,45
 715 1411 715 1411 766 1411 c 0,23,24
283 473 m 0,46,47
 283 364 283 364 354 275 c 0,48,49
 385 240 385 240 402 229 c 0,50,51
 481 169 481 169 574 169 c 0,52,53
 688 169 688 169 776 255 c 0,54,55
 811 292 811 292 825 319 c 0,56,57
 866 393 866 393 866 472 c 2,58,-1
 866 475 l 2,59,60
 866 590 866 590 787 682 c 0,61,62
 753 718 753 718 741 723 c 0,63,64
 724 737 724 737 709 745 c 0,65,66
 644 780 644 780 574 780 c 0,67,68
 468 780 468 780 380 701 c 0,69,70
 349 670 349 670 341 655 c 0,71,72
 283 574 283 574 283 473 c 0,46,47
574 973 m 0,73,74
 737 973 737 973 872 868 c 0,75,76
 891 854 891 854 926 818 c 0,77,78
 995 741 995 741 1024 660 c 0,79,80
 1059 570 1059 570 1059 473 c 0,81,82
 1059 347 1059 347 998 231 c 0,83,84
 977 193 977 193 941 148 c 0,85,86
 902 103 902 103 878 85 c 0,87,88
 851 63 851 63 827 48 c 0,89,90
 708 -24 708 -24 579 -24 c 2,91,-1
 570 -24 l 2,92,93
 434 -24 434 -24 309 56 c 0,94,95
 285 74 285 74 266 90 c 0,96,97
 227 123 227 123 210 146 c 0,98,99
 189 170 189 170 171 198 c 0,100,101
 151 230 151 230 137 260 c 0,102,103
 90 364 90 364 90 467 c 2,104,-1
 90 482 l 2,105,106
 90 594 90 594 146 707 c 0,107,108
 162 738 162 738 184 770 c 0,109,110
 201 794 201 794 235 831 c 1,111,112
 284 876 284 876 305 889 c 0,113,114
 428 973 428 973 574 973 c 0,73,74
EndSplineSet
EndChar

StartChar: divide
Encoding: 247 247 183
Width: 902
GlyphClass: 2
Flags: W
LayerCount: 2
Fore
SplineSet
448 940 m 2,0,-1
 456 940 l 2,1,2
 502 940 502 940 542 903 c 1,3,4
 578 864 578 864 578 818 c 2,5,-1
 578 811 l 2,6,7
 578 761 578 761 537 720 c 1,8,9
 498 688 498 688 456 688 c 2,10,-1
 448 688 l 2,11,12
 398 688 398 688 357 731 c 0,13,14
 326 769 326 769 326 814 c 0,15,16
 326 863 326 863 361 902 c 1,17,18
 401 940 401 940 448 940 c 2,0,-1
448 333 m 2,19,-1
 456 333 l 2,20,21
 502 333 502 333 542 296 c 1,22,23
 578 257 578 257 578 211 c 2,24,-1
 578 204 l 2,25,26
 578 154 578 154 537 113 c 1,27,28
 498 81 498 81 456 81 c 2,29,-1
 448 81 l 2,30,31
 398 81 398 81 357 124 c 0,32,33
 326 162 326 162 326 207 c 0,34,35
 326 256 326 256 361 295 c 1,36,37
 401 333 401 333 448 333 c 2,19,-1
96 607 m 1,38,-1
 805 607 l 1,39,-1
 806 606 l 1,40,-1
 806 415 l 1,41,-1
 805 414 l 1,42,-1
 96 414 l 1,43,-1
 96 607 l 1,38,-1
EndSplineSet
EndChar

StartChar: oslash
Encoding: 248 248 184
Width: 1157
GlyphClass: 2
Flags: W
LayerCount: 2
Fore
SplineSet
702 749 m 1,0,1
 640 780 640 780 574 780 c 0,2,3
 468 780 468 780 380 701 c 0,4,5
 349 670 349 670 341 655 c 0,6,7
 283 574 283 574 283 473 c 0,8,9
 283 410 283 410 307 354 c 1,10,-1
 702 749 l 1,0,1
836 609 m 1,11,-1
 434 207 l 1,12,13
 500 169 500 169 574 169 c 0,14,15
 688 169 688 169 776 255 c 0,16,17
 811 292 811 292 825 319 c 0,18,19
 866 393 866 393 866 472 c 2,20,-1
 866 475 l 2,21,22
 866 546 866 546 836 609 c 1,11,-1
842 889 m 1,23,-1
 945 992 l 1,24,-1
 947 992 l 1,25,-1
 1083 857 l 1,26,-1
 1082 855 l 1,27,-1
 978 751 l 1,28,29
 1007 706 1007 706 1024 660 c 0,30,31
 1059 570 1059 570 1059 473 c 0,32,33
 1059 347 1059 347 998 231 c 0,34,35
 977 193 977 193 941 148 c 0,36,37
 902 103 902 103 878 85 c 0,38,39
 851 63 851 63 827 48 c 0,40,41
 708 -24 708 -24 579 -24 c 2,42,-1
 570 -24 l 2,43,44
 434 -24 434 -24 309 56 c 0,45,46
 301 62 301 62 294 67 c 1,47,-1
 190 -37 l 1,48,-1
 189 -37 l 1,49,-1
 53 99 l 1,50,-1
 53 100 l 1,51,-1
 163 210 l 1,52,53
 148 236 148 236 137 260 c 0,54,55
 90 364 90 364 90 467 c 2,56,-1
 90 482 l 2,57,58
 90 594 90 594 146 707 c 0,59,60
 162 738 162 738 184 770 c 0,61,62
 201 794 201 794 235 831 c 1,63,64
 284 876 284 876 305 889 c 0,65,66
 428 973 428 973 574 973 c 0,67,68
 719 973 719 973 842 889 c 1,23,-1
EndSplineSet
EndChar

StartChar: ugrave
Encoding: 249 249 185
Width: 1152
GlyphClass: 2
Flags: W
LayerCount: 2
Fore
SplineSet
433 1528 m 1,0,-1
 816 1294 l 1,1,-1
 816 1292 l 1,2,-1
 716 1130 l 1,3,-1
 715 1129 l 1,4,-1
 332 1364 l 1,5,-1
 433 1528 l 1,0,-1
566 0 m 2,6,-1
 557 0 l 2,7,8
 299 0 299 0 187 195 c 1,9,10
 148 272 148 272 148 376 c 2,11,-1
 148 955 l 1,12,-1
 151 958 l 1,13,-1
 338 958 l 1,14,-1
 341 955 l 1,15,-1
 341 374 l 2,16,17
 341 251 341 251 443 212 c 0,18,19
 486 193 486 193 553 193 c 2,20,-1
 569 193 l 2,21,22
 691 193 691 193 742 231 c 1,23,24
 809 271 809 271 809 379 c 2,25,-1
 809 955 l 1,26,-1
 811 958 l 1,27,-1
 999 958 l 1,28,-1
 1001 955 l 1,29,-1
 1001 8 l 1,30,-1
 999 5 l 1,31,-1
 811 5 l 1,32,-1
 809 8 l 1,33,-1
 809 72 l 1,34,-1
 807 72 l 1,35,36
 756 34 756 34 674 10 c 0,37,38
 630 0 630 0 566 0 c 2,6,-1
EndSplineSet
EndChar

StartChar: uacute
Encoding: 250 250 186
Width: 1153
GlyphClass: 2
Flags: W
LayerCount: 2
Fore
SplineSet
816 1364 m 1,0,-1
 433 1129 l 1,1,-1
 432 1130 l 1,2,-1
 332 1292 l 1,3,-1
 332 1294 l 1,4,-1
 715 1528 l 1,5,-1
 816 1364 l 1,0,-1
566 0 m 2,6,-1
 557 0 l 2,7,8
 299 0 299 0 187 195 c 1,9,10
 148 272 148 272 148 376 c 2,11,-1
 148 955 l 1,12,-1
 151 958 l 1,13,-1
 338 958 l 1,14,-1
 341 955 l 1,15,-1
 341 374 l 2,16,17
 341 251 341 251 443 212 c 0,18,19
 486 193 486 193 553 193 c 2,20,-1
 569 193 l 2,21,22
 691 193 691 193 742 231 c 1,23,24
 809 271 809 271 809 379 c 2,25,-1
 809 955 l 1,26,-1
 811 958 l 1,27,-1
 999 958 l 1,28,-1
 1001 955 l 1,29,-1
 1001 8 l 1,30,-1
 999 5 l 1,31,-1
 811 5 l 1,32,-1
 809 8 l 1,33,-1
 809 72 l 1,34,-1
 807 72 l 1,35,36
 756 34 756 34 674 10 c 0,37,38
 630 0 630 0 566 0 c 2,6,-1
EndSplineSet
EndChar

StartChar: ucircumflex
Encoding: 251 251 187
Width: 1151
GlyphClass: 2
Flags: W
LayerCount: 2
Fore
SplineSet
518 1509 m 1,0,-1
 631 1509 l 1,1,2
 644 1495 644 1495 854 1258 c 1,3,-1
 710 1129 l 1,4,-1
 575 1281 l 1,5,-1
 440 1129 l 1,6,-1
 439 1129 l 1,7,-1
 295 1257 l 1,8,-1
 295 1258 l 1,9,-1
 518 1509 l 1,0,-1
566 0 m 2,10,-1
 557 0 l 2,11,12
 299 0 299 0 187 195 c 1,13,14
 148 272 148 272 148 376 c 2,15,-1
 148 955 l 1,16,-1
 151 958 l 1,17,-1
 338 958 l 1,18,-1
 341 955 l 1,19,-1
 341 374 l 2,20,21
 341 251 341 251 443 212 c 0,22,23
 486 193 486 193 553 193 c 2,24,-1
 569 193 l 2,25,26
 691 193 691 193 742 231 c 1,27,28
 809 271 809 271 809 379 c 2,29,-1
 809 955 l 1,30,-1
 811 958 l 1,31,-1
 999 958 l 1,32,-1
 1001 955 l 1,33,-1
 1001 8 l 1,34,-1
 999 5 l 1,35,-1
 811 5 l 1,36,-1
 809 8 l 1,37,-1
 809 72 l 1,38,-1
 807 72 l 1,39,40
 756 34 756 34 674 10 c 0,41,42
 630 0 630 0 566 0 c 2,10,-1
EndSplineSet
EndChar

StartChar: udieresis
Encoding: 252 252 188
Width: 1153
GlyphClass: 2
Flags: W
LayerCount: 2
Fore
SplineSet
386 1411 m 0,0,1
 446 1411 446 1411 487 1359 c 0,2,3
 511 1324 511 1324 511 1289 c 2,4,-1
 511 1281 l 2,5,6
 511 1233 511 1233 472 1193 c 0,7,8
 443 1168 443 1168 415 1162 c 0,9,10
 400 1159 400 1159 392 1159 c 2,11,-1
 378 1159 l 2,12,13
 346 1159 346 1159 311 1182 c 0,14,15
 277 1207 277 1207 264 1248 c 0,16,17
 259 1266 259 1266 259 1281 c 2,18,-1
 259 1289 l 2,19,20
 259 1336 259 1336 297 1376 c 0,21,22
 335 1411 335 1411 386 1411 c 0,0,1
766 1411 m 0,23,24
 826 1411 826 1411 867 1359 c 0,25,26
 891 1324 891 1324 891 1289 c 2,27,-1
 891 1281 l 2,28,29
 891 1233 891 1233 852 1193 c 0,30,31
 823 1168 823 1168 795 1162 c 0,32,33
 780 1159 780 1159 772 1159 c 2,34,-1
 758 1159 l 2,35,36
 726 1159 726 1159 691 1182 c 0,37,38
 657 1207 657 1207 644 1248 c 0,39,40
 639 1266 639 1266 639 1281 c 2,41,-1
 639 1289 l 2,42,43
 639 1336 639 1336 677 1376 c 0,44,45
 715 1411 715 1411 766 1411 c 0,23,24
566 0 m 2,46,-1
 557 0 l 2,47,48
 299 0 299 0 187 195 c 1,49,50
 148 272 148 272 148 376 c 2,51,-1
 148 955 l 1,52,-1
 151 958 l 1,53,-1
 338 958 l 1,54,-1
 341 955 l 1,55,-1
 341 374 l 2,56,57
 341 251 341 251 443 212 c 0,58,59
 486 193 486 193 553 193 c 2,60,-1
 569 193 l 2,61,62
 691 193 691 193 742 231 c 1,63,64
 809 271 809 271 809 379 c 2,65,-1
 809 955 l 1,66,-1
 811 958 l 1,67,-1
 999 958 l 1,68,-1
 1001 955 l 1,69,-1
 1001 8 l 1,70,-1
 999 5 l 1,71,-1
 811 5 l 1,72,-1
 809 8 l 1,73,-1
 809 72 l 1,74,-1
 807 72 l 1,75,76
 756 34 756 34 674 10 c 0,77,78
 630 0 630 0 566 0 c 2,46,-1
EndSplineSet
EndChar

StartChar: yacute
Encoding: 253 253 189
Width: 1119
GlyphClass: 2
Flags: W
LayerCount: 2
Fore
SplineSet
801 1364 m 1,0,-1
 418 1129 l 1,1,-1
 417 1130 l 1,2,-1
 317 1292 l 1,3,-1
 317 1294 l 1,4,-1
 700 1528 l 1,5,-1
 801 1364 l 1,0,-1
255 958 m 2,6,7
 256 957 256 957 264 938 c 2,8,-1
 406 601 l 1,9,-1
 559 242 l 1,10,11
 562 248 562 248 602 342 c 2,12,-1
 735 645 l 1,13,-1
 873 958 l 1,14,-1
 1084 958 l 1,15,-1
 870 469 l 1,16,-1
 691 60 l 1,17,-1
 506 -363 l 1,18,-1
 476 -431 l 1,19,-1
 265 -431 l 1,20,-1
 264 -430 l 1,21,-1
 454 0 l 1,22,-1
 258 448 l 1,23,-1
 58 902 l 1,24,-1
 34 958 l 1,25,-1
 255 958 l 2,6,7
EndSplineSet
EndChar

StartChar: thorn
Encoding: 254 254 190
Width: 1185
GlyphClass: 2
Flags: W
LayerCount: 2
Fore
SplineSet
328 849 m 1,0,1
 364 887 364 887 373 892 c 0,2,3
 403 915 403 915 425 927 c 0,4,5
 456 944 456 944 487 953 c 0,6,7
 510 960 510 960 567 970 c 0,8,9
 585 971 585 971 610 972 c 0,10,11
 755 972 755 972 870 901 c 0,12,13
 901 883 901 883 945 843 c 0,14,15
 982 806 982 806 992 792 c 0,16,17
 1016 761 1016 761 1035 731 c 0,18,19
 1103 611 1103 611 1103 472 c 0,20,21
 1103 307 1103 307 1001 167 c 0,22,23
 988 148 988 148 949 107 c 1,24,-1
 931 92 l 2,25,26
 791 -25 791 -25 618 -25 c 0,27,28
 492 -25 492 -25 390 47 c 0,29,30
 371 60 371 60 338 91 c 2,31,-1
 328 102 l 1,32,-1
 328 -400 l 1,33,-1
 136 -400 l 1,34,-1
 135 -399 l 1,35,-1
 135 1463 l 1,36,-1
 136 1464 l 1,37,-1
 327 1464 l 1,38,-1
 328 1463 l 1,39,-1
 328 849 l 1,0,1
328 453 m 2,40,41
 328 425 328 425 343 372 c 0,42,43
 355 339 355 339 369 313 c 0,44,45
 384 291 384 291 412 259 c 0,46,47
 443 228 443 228 455 221 c 0,48,49
 479 205 479 205 497 195 c 0,50,51
 560 168 560 168 610 168 c 2,52,-1
 623 168 l 2,53,54
 712 168 712 168 791 228 c 0,55,56
 805 238 805 238 831 265 c 0,57,58
 879 321 879 321 896 381 c 0,59,60
 910 427 910 427 910 474 c 0,61,62
 910 588 910 588 835 678 c 0,63,64
 803 712 803 712 796 716 c 0,65,66
 716 779 716 779 619 779 c 2,67,-1
 611 779 l 2,68,69
 558 779 558 779 495 751 c 0,70,71
 464 737 464 737 426 703 c 0,72,73
 390 667 390 667 382 652 c 0,74,75
 367 629 367 629 358 611 c 0,76,77
 349 592 349 592 338 561 c 1,78,79
 328 515 328 515 328 493 c 2,80,-1
 328 453 l 2,40,41
EndSplineSet
EndChar

StartChar: ydieresis
Encoding: 255 255 191
Width: 1119
GlyphClass: 2
Flags: W
LayerCount: 2
Fore
SplineSet
370 1411 m 0,0,1
 430 1411 430 1411 471 1359 c 0,2,3
 495 1324 495 1324 495 1289 c 2,4,-1
 495 1281 l 2,5,6
 495 1233 495 1233 456 1193 c 0,7,8
 427 1168 427 1168 399 1162 c 0,9,10
 384 1159 384 1159 376 1159 c 2,11,-1
 362 1159 l 2,12,13
 330 1159 330 1159 295 1182 c 0,14,15
 261 1207 261 1207 248 1248 c 0,16,17
 243 1266 243 1266 243 1281 c 2,18,-1
 243 1289 l 2,19,20
 243 1336 243 1336 281 1376 c 0,21,22
 319 1411 319 1411 370 1411 c 0,0,1
750 1411 m 0,23,24
 810 1411 810 1411 851 1359 c 0,25,26
 875 1324 875 1324 875 1289 c 2,27,-1
 875 1281 l 2,28,29
 875 1233 875 1233 836 1193 c 0,30,31
 807 1168 807 1168 779 1162 c 0,32,33
 764 1159 764 1159 756 1159 c 2,34,-1
 742 1159 l 2,35,36
 710 1159 710 1159 675 1182 c 0,37,38
 641 1207 641 1207 628 1248 c 0,39,40
 623 1266 623 1266 623 1281 c 2,41,-1
 623 1289 l 2,42,43
 623 1336 623 1336 661 1376 c 0,44,45
 699 1411 699 1411 750 1411 c 0,23,24
255 958 m 2,46,47
 256 957 256 957 264 938 c 2,48,-1
 406 601 l 1,49,-1
 559 242 l 1,50,51
 562 248 562 248 602 342 c 2,52,-1
 735 645 l 1,53,-1
 873 958 l 1,54,-1
 1084 958 l 1,55,-1
 870 469 l 1,56,-1
 691 60 l 1,57,-1
 506 -363 l 1,58,-1
 476 -431 l 1,59,-1
 265 -431 l 1,60,-1
 264 -430 l 1,61,-1
 454 0 l 1,62,-1
 258 448 l 1,63,-1
 58 902 l 1,64,-1
 34 958 l 1,65,-1
 255 958 l 2,46,47
EndSplineSet
EndChar

StartChar: circumflex
Encoding: 65540 -1 193
Width: 821
GlyphClass: 2
Flags: W
LayerCount: 2
Fore
SplineSet
592 2009 m 1,0,-1
 705 2009 l 1,1,2
 718 1995 718 1995 928 1758 c 1,3,-1
 784 1629 l 1,4,-1
 649 1781 l 1,5,-1
 514 1629 l 1,6,-1
 513 1629 l 1,7,-1
 369 1757 l 1,8,-1
 369 1758 l 1,9,-1
 592 2009 l 1,0,-1
EndSplineSet
EndChar

StartChar: caron
Encoding: 65541 -1 194
Width: 821
GlyphClass: 2
Flags: W
LayerCount: 2
Fore
SplineSet
705 1629 m 1,0,-1
 592 1629 l 1,1,2
 579 1643 579 1643 369 1880 c 1,3,-1
 513 2009 l 1,4,-1
 648 1857 l 1,5,-1
 783 2009 l 1,6,-1
 784 2009 l 1,7,-1
 928 1881 l 1,8,-1
 928 1880 l 1,9,-1
 705 1629 l 1,0,-1
EndSplineSet
EndChar

StartChar: uni02C9
Encoding: 65542 -1 195
Width: 1150
GlyphClass: 2
Flags: W
LayerCount: 2
Fore
SplineSet
242 1814 m 1,0,-1
 907 1814 l 1,1,-1
 908 1813 l 1,2,-1
 908 1622 l 1,3,-1
 907 1621 l 1,4,-1
 242 1621 l 1,5,-1
 242 1814 l 1,0,-1
EndSplineSet
EndChar

StartChar: dotaccent
Encoding: 65544 -1 197
Width: 1068
GlyphClass: 2
Flags: W
LayerCount: 2
Fore
SplineSet
459 1814 m 0,0,1
 519 1814 519 1814 560 1762 c 0,2,3
 584 1727 584 1727 584 1692 c 2,4,-1
 584 1684 l 2,5,6
 584 1636 584 1636 545 1596 c 0,7,8
 516 1571 516 1571 488 1565 c 0,9,10
 473 1562 473 1562 465 1562 c 2,11,-1
 451 1562 l 2,12,13
 419 1562 419 1562 384 1585 c 0,14,15
 350 1610 350 1610 337 1651 c 0,16,17
 332 1669 332 1669 332 1684 c 2,18,-1
 332 1692 l 2,19,20
 332 1739 332 1739 370 1779 c 0,21,22
 408 1814 408 1814 459 1814 c 0,0,1
EndSplineSet
EndChar

StartChar: ring
Encoding: 65545 -1 198
Width: 442
GlyphClass: 2
Flags: W
LayerCount: 2
Fore
SplineSet
579 1629 m 2,0,-1
 579 1628 l 2,1,2
 579 1595 579 1595 607 1572 c 0,3,4
 626 1557 626 1557 648 1557 c 0,5,6
 682 1557 682 1557 705 1585 c 0,7,8
 719 1606 719 1606 719 1628 c 2,9,-1
 719 1630 l 2,10,11
 719 1657 719 1657 699 1677 c 0,12,13
 677 1698 677 1698 648 1698 c 0,14,15
 621 1698 621 1698 600 1679 c 0,16,17
 579 1657 579 1657 579 1629 c 2,0,-1
647 1814 m 2,18,-1
 650 1814 l 2,19,20
 716 1814 716 1814 771 1769 c 0,21,22
 792 1748 792 1748 798 1740 c 0,23,24
 836 1688 836 1688 836 1628 c 0,25,26
 836 1552 836 1552 779 1494 c 2,27,-1
 770 1484 l 1,28,29
 716 1441 716 1441 648 1441 c 0,30,31
 582 1441 582 1441 528 1484 c 0,32,33
 512 1499 512 1499 505 1509 c 0,34,35
 490 1528 490 1528 482 1542 c 0,36,37
 462 1584 462 1584 462 1622 c 2,38,-1
 462 1632 l 2,39,40
 462 1687 462 1687 498 1738 c 0,41,42
 505 1748 505 1748 523 1767 c 0,43,44
 580 1814 580 1814 647 1814 c 2,18,-1
EndSplineSet
EndChar

StartChar: tilde
Encoding: 65547 -1 200
Width: 1124
GlyphClass: 2
Flags: W
LayerCount: 2
Fore
SplineSet
882 1769 m 1,0,1
 848 1739 848 1739 815 1719 c 0,2,3
 764 1690 764 1690 715 1690 c 0,4,5
 663 1690 663 1690 561 1747 c 128,-1,6
 459 1804 459 1804 407 1804 c 0,7,8
 363 1804 363 1804 314 1771 c 0,9,10
 281 1749 281 1749 242 1698 c 1,11,-1
 242 1880 l 1,12,13
 276 1921 276 1921 309 1940 c 0,14,15
 360 1971 360 1971 407 1971 c 0,16,17
 463 1971 463 1971 565 1912.5 c 128,-1,18
 667 1854 667 1854 715 1854 c 0,19,20
 760 1854 760 1854 809 1887 c 0,21,22
 842 1910 842 1910 882 1962 c 1,23,-1
 882 1769 l 1,0,1
EndSplineSet
EndChar

StartChar: endash
Encoding: 65549 -1 202
Width: 990
GlyphClass: 2
Flags: W
LayerCount: 2
Fore
SplineSet
70 606 m 1,0,-1
 918 606 l 1,1,-1
 920 605 l 1,2,-1
 920 414 l 1,3,-1
 918 413 l 1,4,-1
 70 413 l 1,5,-1
 70 606 l 1,0,-1
EndSplineSet
EndChar

StartChar: emdash
Encoding: 65550 -1 203
Width: 1350
GlyphClass: 2
Flags: W
LayerCount: 2
Fore
SplineSet
100 568 m 1,0,-1
 1247 568 l 1,1,-1
 1250 567 l 1,2,-1
 1250 376 l 1,3,-1
 1247 375 l 1,4,-1
 100 375 l 1,5,-1
 100 568 l 1,0,-1
EndSplineSet
EndChar

StartChar: quoteleft
Encoding: 65551 -1 204
Width: 624
GlyphClass: 2
Flags: W
LayerCount: 2
Fore
SplineSet
265 1186 m 0,0,1
 202 1186 202 1186 162 1242 c 0,2,3
 139 1277 139 1277 139 1335 c 0,4,5
 139 1491 139 1491 324 1656 c 0,6,7
 375 1702 375 1702 390 1709 c 1,8,-1
 441 1643 l 1,9,10
 313 1524 313 1524 313 1431 c 1,11,12
 358 1412 358 1412 379 1369 c 0,13,14
 394 1343 394 1343 394 1312 c 0,15,16
 394 1249 394 1249 337 1208 c 0,17,18
 305 1186 305 1186 265 1186 c 0,0,1
EndSplineSet
EndChar

StartChar: quoteright
Encoding: 65552 -1 205
Width: 624
GlyphClass: 2
Flags: W
LayerCount: 2
Fore
SplineSet
359 1709 m 0,0,1
 422 1709 422 1709 462 1653 c 0,2,3
 485 1618 485 1618 485 1560 c 0,4,5
 485 1404 485 1404 300 1239 c 0,6,7
 249 1193 249 1193 234 1186 c 1,8,-1
 183 1252 l 1,9,10
 311 1371 311 1371 311 1464 c 1,11,12
 266 1483 266 1483 245 1526 c 0,13,14
 230 1552 230 1552 230 1583 c 0,15,16
 230 1646 230 1646 287 1687 c 0,17,18
 319 1709 319 1709 359 1709 c 0,0,1
EndSplineSet
EndChar

StartChar: quotesinglbase
Encoding: 65553 -1 206
Width: 598
GlyphClass: 2
Flags: W
LayerCount: 2
Fore
SplineSet
279 245 m 0,0,1
 342 245 342 245 382 189 c 0,2,3
 405 154 405 154 405 96 c 0,4,5
 405 -60 405 -60 220 -225 c 0,6,7
 169 -271 169 -271 154 -278 c 1,8,-1
 103 -212 l 1,9,10
 231 -93 231 -93 231 0 c 1,11,12
 186 19 186 19 165 62 c 0,13,14
 150 88 150 88 150 119 c 0,15,16
 150 182 150 182 207 223 c 0,17,18
 239 245 239 245 279 245 c 0,0,1
EndSplineSet
EndChar

StartChar: quotedblleft
Encoding: 65554 -1 207
Width: 1136
GlyphClass: 2
Flags: W
LayerCount: 2
Fore
SplineSet
705 1186 m 0,0,1
 642 1186 642 1186 602 1242 c 0,2,3
 579 1277 579 1277 579 1334 c 0,4,5
 579 1491 579 1491 764 1656 c 0,6,7
 815 1701 815 1701 830 1709 c 1,8,-1
 881 1643 l 1,9,10
 753 1524 753 1524 753 1431 c 1,11,12
 799 1412 799 1412 819 1369 c 0,13,14
 834 1343 834 1343 834 1312 c 0,15,16
 834 1249 834 1249 777 1207 c 0,17,18
 745 1186 745 1186 705 1186 c 0,0,1
305 1186 m 0,19,20
 242 1186 242 1186 202 1242 c 0,21,22
 179 1277 179 1277 179 1334 c 0,23,24
 179 1491 179 1491 364 1656 c 0,25,26
 415 1701 415 1701 430 1709 c 1,27,-1
 481 1643 l 1,28,29
 353 1524 353 1524 353 1431 c 1,30,31
 399 1412 399 1412 419 1369 c 0,32,33
 434 1343 434 1343 434 1312 c 0,34,35
 434 1249 434 1249 377 1207 c 0,36,37
 345 1186 345 1186 305 1186 c 0,19,20
EndSplineSet
EndChar

StartChar: quotedblright
Encoding: 65555 -1 208
Width: 1136
GlyphClass: 2
Flags: W
LayerCount: 2
Fore
SplineSet
431 1709 m 0,0,1
 494 1709 494 1709 534 1653 c 0,2,3
 557 1618 557 1618 557 1560 c 0,4,5
 557 1404 557 1404 372 1239 c 0,6,7
 321 1193 321 1193 306 1186 c 1,8,-1
 255 1252 l 1,9,10
 383 1371 383 1371 383 1464 c 1,11,12
 338 1483 338 1483 317 1526 c 0,13,14
 302 1552 302 1552 302 1583 c 0,15,16
 302 1646 302 1646 359 1687 c 0,17,18
 391 1709 391 1709 431 1709 c 0,0,1
831 1709 m 0,19,20
 894 1709 894 1709 934 1653 c 0,21,22
 957 1618 957 1618 957 1560 c 0,23,24
 957 1404 957 1404 772 1239 c 0,25,26
 721 1193 721 1193 706 1186 c 1,27,-1
 655 1252 l 1,28,29
 783 1371 783 1371 783 1464 c 1,30,31
 738 1483 738 1483 717 1526 c 0,32,33
 702 1552 702 1552 702 1583 c 0,34,35
 702 1646 702 1646 759 1687 c 0,36,37
 791 1709 791 1709 831 1709 c 0,19,20
EndSplineSet
EndChar

StartChar: quotedblbase
Encoding: 65556 -1 209
Width: 998
GlyphClass: 2
Flags: W
LayerCount: 2
Fore
SplineSet
279 245 m 0,0,1
 342 245 342 245 382 189 c 0,2,3
 405 154 405 154 405 96 c 0,4,5
 405 -60 405 -60 220 -225 c 0,6,7
 169 -271 169 -271 154 -278 c 1,8,-1
 103 -212 l 1,9,10
 231 -93 231 -93 231 0 c 1,11,12
 186 19 186 19 165 62 c 0,13,14
 150 88 150 88 150 119 c 0,15,16
 150 182 150 182 207 223 c 0,17,18
 239 245 239 245 279 245 c 0,0,1
679 245 m 0,19,20
 742 245 742 245 782 189 c 0,21,22
 805 154 805 154 805 96 c 0,23,24
 805 -60 805 -60 620 -225 c 0,25,26
 569 -271 569 -271 554 -278 c 1,27,-1
 503 -212 l 1,28,29
 631 -93 631 -93 631 0 c 1,30,31
 586 19 586 19 565 62 c 0,32,33
 550 88 550 88 550 119 c 0,34,35
 550 182 550 182 607 223 c 0,36,37
 639 245 639 245 679 245 c 0,19,20
EndSplineSet
EndChar

StartChar: dagger
Encoding: 65557 -1 210
Width: 885
GlyphClass: 2
Flags: W
LayerCount: 2
Fore
SplineSet
347 835 m 1,0,-1
 347 1065 l 1,1,-1
 540 1065 l 1,2,-1
 540 835 l 1,3,-1
 767 835 l 1,4,-1
 769 834 l 1,5,-1
 769 643 l 1,6,-1
 767 642 l 1,7,-1
 540 642 l 1,8,-1
 540 2 l 1,9,-1
 539 0 l 1,10,-1
 348 0 l 1,11,-1
 347 2 l 1,12,-1
 347 642 l 1,13,-1
 119 642 l 1,14,-1
 119 835 l 1,15,-1
 347 835 l 1,0,-1
EndSplineSet
EndChar

StartChar: daggerdbl
Encoding: 65558 -1 211
Width: 885
GlyphClass: 2
Flags: W
LayerCount: 2
Fore
SplineSet
347 835 m 1,0,-1
 347 1065 l 1,1,-1
 540 1065 l 1,2,-1
 540 835 l 1,3,-1
 767 835 l 1,4,-1
 769 834 l 1,5,-1
 769 643 l 1,6,-1
 767 642 l 1,7,-1
 540 642 l 1,8,-1
 540 422 l 1,9,-1
 767 422 l 1,10,-1
 769 421 l 1,11,-1
 769 230 l 1,12,-1
 767 229 l 1,13,-1
 540 229 l 1,14,-1
 540 2 l 1,15,-1
 539 0 l 1,16,-1
 348 0 l 1,17,-1
 347 2 l 1,18,-1
 347 229 l 1,19,-1
 119 229 l 1,20,-1
 119 422 l 1,21,-1
 347 422 l 1,22,-1
 347 642 l 1,23,-1
 119 642 l 1,24,-1
 119 835 l 1,25,-1
 347 835 l 1,0,-1
EndSplineSet
EndChar

StartChar: bullet
Encoding: 65559 -1 212
Width: 950
GlyphClass: 2
Flags: W
LayerCount: 2
Fore
SplineSet
300 958 m 0,0,1
 300 888 300 888 356 836 c 0,2,3
 403 797 403 797 459 797 c 0,4,5
 529 797 529 797 581 855 c 0,6,7
 620 900 620 900 620 958 c 0,8,9
 620 1035 620 1035 552 1087 c 0,10,11
 510 1117 510 1117 459 1117 c 0,12,13
 382 1117 382 1117 330 1050 c 0,14,15
 300 1008 300 1008 300 958 c 0,0,1
EndSplineSet
EndChar

StartChar: ellipsis
Encoding: 65560 -1 213
Width: 1304
GlyphClass: 2
Flags: W
LayerCount: 2
Fore
SplineSet
227 252 m 0,0,1
 287 252 287 252 328 200 c 0,2,3
 352 165 352 165 352 130 c 2,4,-1
 352 122 l 2,5,6
 352 74 352 74 313 34 c 0,7,8
 284 9 284 9 256 3 c 0,9,10
 241 0 241 0 233 0 c 2,11,-1
 219 0 l 2,12,13
 187 0 187 0 152 23 c 0,14,15
 118 48 118 48 105 89 c 0,16,17
 100 107 100 107 100 122 c 2,18,-1
 100 130 l 2,19,20
 100 177 100 177 138 217 c 0,21,22
 176 252 176 252 227 252 c 0,0,1
653 252 m 0,23,24
 713 252 713 252 754 200 c 0,25,26
 778 165 778 165 778 130 c 2,27,-1
 778 122 l 2,28,29
 778 74 778 74 739 34 c 0,30,31
 710 9 710 9 682 3 c 0,32,33
 667 0 667 0 659 0 c 2,34,-1
 645 0 l 2,35,36
 613 0 613 0 578 23 c 0,37,38
 544 48 544 48 531 89 c 0,39,40
 526 107 526 107 526 122 c 2,41,-1
 526 130 l 2,42,43
 526 177 526 177 564 217 c 0,44,45
 602 252 602 252 653 252 c 0,23,24
1079 253 m 0,46,47
 1139 253 1139 253 1180 201 c 0,48,49
 1204 166 1204 166 1204 131 c 2,50,-1
 1204 123 l 2,51,52
 1204 75 1204 75 1165 35 c 0,53,54
 1136 10 1136 10 1108 4 c 0,55,56
 1093 1 1093 1 1085 1 c 2,57,-1
 1071 1 l 2,58,59
 1039 1 1039 1 1004 24 c 0,60,61
 970 49 970 49 957 90 c 0,62,63
 952 108 952 108 952 123 c 2,64,-1
 952 131 l 2,65,66
 952 178 952 178 990 218 c 0,67,68
 1028 253 1028 253 1079 253 c 0,46,47
EndSplineSet
EndChar

StartChar: guilsinglleft
Encoding: 65561 -1 214
Width: 679
GlyphClass: 2
Flags: W
LayerCount: 2
Fore
SplineSet
69 403 m 1,0,-1
 69 537 l 1,1,-1
 419 779 l 1,2,-1
 467 812 l 1,3,-1
 468 812 l 1,4,5
 473 806 473 806 526 729 c 2,6,-1
 578 654 l 1,7,-1
 578 653 l 1,8,-1
 312 470 l 1,9,-1
 578 286 l 1,10,11
 473 133 473 133 468 127 c 1,12,-1
 70 401 l 1,13,-1
 69 403 l 1,0,-1
EndSplineSet
EndChar

StartChar: guilsinglright
Encoding: 65562 -1 215
Width: 679
GlyphClass: 2
Flags: W
LayerCount: 2
Fore
SplineSet
609 401 m 1,0,-1
 211 127 l 1,1,2
 206 133 206 133 101 286 c 1,3,-1
 367 470 l 1,4,-1
 101 653 l 1,5,-1
 101 654 l 1,6,-1
 153 729 l 2,7,8
 206 806 206 806 211 812 c 1,9,-1
 212 812 l 1,10,-1
 260 779 l 1,11,-1
 610 537 l 1,12,-1
 610 403 l 1,13,-1
 609 401 l 1,0,-1
EndSplineSet
EndChar

StartChar: fraction
Encoding: 65563 -1 216
Width: 297
GlyphClass: 2
Flags: W
LayerCount: 2
Fore
SplineSet
455 1374 m 1,0,-1
 647 1374 l 1,1,-1
 647 1373 l 1,2,-1
 -106 -49 l 1,3,-1
 -108 -50 l 1,4,-1
 -300 -50 l 1,5,-1
 -300 -49 l 1,6,-1
 453 1373 l 1,7,-1
 455 1374 l 1,0,-1
EndSplineSet
EndChar

StartChar: franc
Encoding: 65564 -1 217
Width: 1031
GlyphClass: 2
Flags: W
LayerCount: 2
Fore
SplineSet
391 315 m 1,0,-1
 391 1 l 1,1,-1
 390 0 l 1,2,-1
 199 0 l 1,3,-1
 198 1 l 1,4,-1
 198 315 l 1,5,-1
 80 315 l 1,6,-1
 80 508 l 1,7,-1
 198 508 l 1,8,-1
 198 1463 l 1,9,-1
 199 1464 l 1,10,-1
 985 1464 l 1,11,-1
 986 1463 l 1,12,-1
 986 1272 l 1,13,-1
 985 1271 l 1,14,-1
 391 1271 l 1,15,-1
 391 828 l 1,16,-1
 874 828 l 1,17,-1
 874 636 l 1,18,-1
 391 636 l 1,19,-1
 391 508 l 1,20,-1
 585 508 l 1,21,-1
 585 316 l 1,22,-1
 584 315 l 1,23,-1
 391 315 l 1,0,-1
EndSplineSet
EndChar

StartChar: lira
Encoding: 65565 -1 218
Width: 1297
GlyphClass: 2
Flags: W
LayerCount: 2
Fore
SplineSet
702 1424 m 2,0,-1
 718 1424 l 2,1,2
 817 1424 817 1424 923 1373 c 0,3,4
 956 1356 956 1356 994 1328 c 0,5,6
 1007 1317 1007 1317 1019 1305 c 1,7,-1
 886 1166 l 1,8,-1
 885 1166 l 1,9,10
 842 1204 842 1204 778 1222 c 0,11,12
 744 1231 744 1231 711 1231 c 2,13,-1
 710 1231 l 2,14,15
 612 1231 612 1231 528 1157 c 1,16,17
 488 1116 488 1116 488 1052 c 2,18,-1
 488 1046 l 2,19,20
 488 989 488 989 521 915 c 1,21,-1
 901 915 l 1,22,-1
 901 723 l 1,23,-1
 900 722 l 1,24,-1
 605 722 l 1,25,26
 616 678 616 678 616 662 c 1,27,-1
 900 662 l 1,28,-1
 901 661 l 1,29,-1
 901 470 l 1,30,-1
 900 469 l 1,31,-1
 582 469 l 1,32,33
 571 443 571 443 550 406 c 0,34,35
 524 363 524 363 483 310 c 1,36,-1
 474 300 l 1,37,38
 507 296 507 296 530 290 c 0,39,40
 562 281 562 281 591 269 c 0,41,42
 623 254 623 254 657 228 c 0,43,44
 710 182 710 182 736 169 c 0,45,46
 785 142 785 142 834 142 c 0,47,48
 936 142 936 142 1059 267 c 1,49,-1
 1197 131 l 1,50,-1
 1197 130 l 1,51,52
 1155 88 1155 88 1129 68 c 0,53,54
 1084 32 1084 32 1045 10 c 0,55,56
 938 -51 938 -51 839 -51 c 2,57,-1
 827 -51 l 2,58,59
 718 -51 718 -51 605 22 c 0,60,61
 578 41 578 41 538 76 c 1,62,63
 494 108 494 108 434 108 c 2,64,-1
 432 108 l 2,65,66
 328 108 328 108 188 25 c 1,67,-1
 169 13 l 1,68,-1
 53 167 l 1,69,-1
 128 229 l 2,70,71
 179 271 179 271 247 338 c 0,72,73
 312 405 312 405 338 440 c 2,74,-1
 359 468 l 1,75,-1
 359 469 l 1,76,-1
 207 469 l 1,77,-1
 206 470 l 1,78,-1
 206 661 l 1,79,-1
 207 662 l 1,80,-1
 421 662 l 1,81,82
 421 672 421 672 402 718 c 2,83,-1
 400 722 l 1,84,-1
 207 722 l 1,85,-1
 206 723 l 1,86,-1
 206 915 l 1,87,-1
 314 915 l 1,88,89
 293 985 293 985 293 1051 c 0,90,91
 293 1192 293 1192 388 1292 c 0,92,93
 421 1322 421 1322 445 1338 c 0,94,95
 486 1366 486 1366 528 1385 c 0,96,97
 618 1424 618 1424 702 1424 c 2,0,-1
EndSplineSet
EndChar

StartChar: peseta
Encoding: 65566 -1 219
Width: 2834
GlyphClass: 2
Flags: W
LayerCount: 2
Fore
SplineSet
1396 1464 m 1,0,-1
 1588 1464 l 1,1,-1
 1589 1463 l 1,2,-1
 1589 959 l 1,3,-1
 1837 959 l 1,4,-1
 1838 958 l 1,5,-1
 1838 766 l 1,6,-1
 1837 765 l 1,7,-1
 1589 765 l 1,8,-1
 1589 282 l 2,9,10
 1589 226 1589 226 1627 207 c 0,11,12
 1653 193 1653 193 1681 193 c 0,13,14
 1720 193 1720 193 1792 219 c 1,15,-1
 1800 223 l 1,16,-1
 1872 42 l 1,17,18
 1848 32 1848 32 1794 16 c 0,19,20
 1730 0 1730 0 1682 0 c 2,21,-1
 1680 0 l 2,22,23
 1585 0 1585 0 1502 58 c 0,24,25
 1488 68 1488 68 1465 90 c 1,26,-1
 1448 112 l 2,27,28
 1432 133 1432 133 1423 153 c 0,29,30
 1396 214 1396 214 1396 275 c 2,31,-1
 1396 765 l 1,32,-1
 1254 765 l 1,33,-1
 1253 766 l 1,34,-1
 1253 958 l 1,35,-1
 1254 959 l 1,36,-1
 1396 959 l 1,37,-1
 1396 1464 l 1,0,-1
2350 1008 m 0,38,39
 2533 1008 2533 1008 2661 894 c 0,40,41
 2690 866 2690 866 2702 850 c 2,42,-1
 2714 831 l 2,43,44
 2712 828 2712 828 2660 797 c 0,45,46
 2609 766 2609 766 2551 728 c 1,47,48
 2533 750 2533 750 2515 763 c 0,49,50
 2448 814 2448 814 2352 814 c 2,51,-1
 2348 814 l 2,52,53
 2243 814 2243 814 2180 764 c 0,54,55
 2145 734 2145 734 2145 699 c 0,56,57
 2145 677 2145 677 2164 665 c 0,58,59
 2183 649 2183 649 2238 630 c 0,60,61
 2314 605 2314 605 2474 577 c 0,62,63
 2526 565 2526 565 2563 549 c 0,64,65
 2598 535 2598 535 2633 511 c 0,66,67
 2649 500 2649 500 2678 471 c 0,68,69
 2751 391 2751 391 2751 291 c 2,70,-1
 2751 288 l 2,71,72
 2751 186 2751 186 2675 97 c 0,73,74
 2643 64 2643 64 2629 56 c 0,75,76
 2589 28 2589 28 2563 17 c 0,77,78
 2461 -30 2461 -30 2346 -30 c 2,79,-1
 2339 -30 l 2,80,81
 2189 -30 2189 -30 2065 49 c 0,82,83
 2038 67 2038 67 2007 96 c 0,84,85
 1978 124 1978 124 1967 140 c 0,86,87
 1947 165 1947 165 1932 192 c 1,88,-1
 2099 288 l 1,89,-1
 2100 288 l 1,90,-1
 2108 274 l 2,91,92
 2119 257 2119 257 2143 234 c 0,93,94
 2188 192 2188 192 2255 174 c 0,95,96
 2299 164 2299 164 2343 164 c 0,97,98
 2431 164 2431 164 2500 203 c 0,99,100
 2513 210 2513 210 2532 228 c 0,101,102
 2558 259 2558 259 2558 290 c 0,103,104
 2558 345 2558 345 2473 377 c 0,105,106
 2445 387 2445 387 2370 399 c 0,107,108
 2209 430 2209 430 2130 464 c 0,109,110
 2096 478 2096 478 2063 500 c 0,111,112
 1987 549 1987 549 1963 625 c 0,113,114
 1951 659 1951 659 1951 697 c 2,115,-1
 1951 703 l 2,116,117
 1951 798 1951 798 2022 881 c 0,118,119
 2052 912 2052 912 2065 921 c 0,120,121
 2099 946 2099 946 2129 961 c 0,122,123
 2229 1008 2229 1008 2350 1008 c 0,38,39
175 1464 m 1,124,-1
 657 1464 l 2,125,126
 889 1464 889 1464 1051 1290 c 1,127,128
 1166 1150 1166 1150 1166 982 c 0,129,130
 1166 764 1166 764 981 609 c 1,131,132
 836 500 836 500 654 500 c 2,133,-1
 364 500 l 1,134,-1
 364 3 l 1,135,-1
 362 0 l 1,136,-1
 175 0 l 1,137,-1
 172 3 l 1,138,-1
 172 1461 l 1,139,-1
 175 1464 l 1,124,-1
364 1269 m 1,140,-1
 364 694 l 1,141,-1
 666 694 l 2,142,143
 810 694 810 694 914 813 c 1,144,145
 972 893 972 893 972 976 c 2,146,-1
 972 989 l 2,147,148
 972 1120 972 1120 846 1214 c 0,149,150
 768 1272 768 1272 629 1272 c 2,151,-1
 367 1272 l 1,152,-1
 364 1269 l 1,140,-1
EndSplineSet
EndChar

StartChar: Euro
Encoding: 65567 -1 220
Width: 1424
GlyphClass: 2
Flags: W
LayerCount: 2
Fore
SplineSet
839 1367 m 0,0,1
 1042 1367 1042 1367 1221 1262 c 0,2,3
 1260 1239 1260 1239 1304 1204 c 0,4,5
 1312 1198 1312 1198 1324 1188 c 0,6,7
 1324 1187 1324 1187 1197 1042 c 1,8,9
 1139 1090 1139 1090 1088 1115 c 0,10,11
 969 1173 969 1173 845 1173 c 2,12,-1
 832 1173 l 2,13,14
 691 1173 691 1173 559 1099 c 1,15,16
 416 1013 416 1013 349 868 c 1,17,-1
 1224 868 l 1,18,-1
 1225 867 l 1,19,-1
 1225 675 l 1,20,-1
 1224 674 l 1,21,-1
 307 674 l 1,22,23
 307 652 307 652 310 630 c 1,24,-1
 1224 630 l 1,25,-1
 1225 629 l 1,26,-1
 1225 437 l 1,27,-1
 1224 436 l 1,28,-1
 370 436 l 1,29,30
 459 282 459 282 630 212 c 0,31,32
 731 172 731 172 834 172 c 2,33,-1
 843 172 l 2,34,35
 986 172 986 172 1117 246 c 0,36,37
 1147 264 1147 264 1178 288 c 2,38,-1
 1197 303 l 1,39,40
 1308 176 1308 176 1324 157 c 1,41,42
 1268 110 1268 110 1236 92 c 0,43,44
 1174 52 1174 52 1099 25 c 0,45,46
 972 -22 972 -22 838 -22 c 0,47,48
 630 -22 630 -22 448 87 c 0,49,50
 408 112 408 112 357 154 c 0,51,52
 335 172 335 172 303 204 c 0,53,54
 254 258 254 258 228 298 c 0,55,56
 190 355 190 355 164 418 c 0,57,58
 158 436 158 436 157 436 c 2,59,-1
 54 436 l 1,60,-1
 53 437 l 1,61,-1
 53 629 l 1,62,-1
 54 630 l 1,63,-1
 115 630 l 1,64,65
 114 650 114 650 114 669 c 2,66,-1
 114 674 l 1,67,-1
 54 674 l 1,68,-1
 53 675 l 1,69,-1
 53 867 l 1,70,-1
 54 868 l 1,71,-1
 143 868 l 1,72,73
 158 916 158 916 178 959 c 0,74,75
 205 1016 205 1016 250 1078 c 0,76,77
 272 1108 272 1108 313 1151 c 0,78,79
 366 1201 366 1201 390 1218 c 0,80,81
 441 1256 441 1256 489 1281 c 0,82,83
 654 1367 654 1367 839 1367 c 0,0,1
EndSplineSet
EndChar

StartChar: afii61352
Encoding: 65568 -1 221
Width: 2532
GlyphClass: 2
Flags: W
LayerCount: 2
Fore
SplineSet
1556 196 m 1,0,-1
 2356 196 l 1,1,-1
 2358 195 l 1,2,-1
 2358 4 l 1,3,-1
 2356 3 l 1,4,-1
 1556 3 l 1,5,-1
 1556 196 l 1,0,-1
1666 833 m 0,6,7
 1666 724 1666 724 1737 635 c 0,8,9
 1768 600 1768 600 1785 589 c 0,10,11
 1864 529 1864 529 1957 529 c 0,12,13
 2071 529 2071 529 2159 615 c 0,14,15
 2194 652 2194 652 2208 679 c 0,16,17
 2249 753 2249 753 2249 832 c 2,18,-1
 2249 835 l 2,19,20
 2249 950 2249 950 2170 1042 c 0,21,22
 2136 1078 2136 1078 2124 1083 c 0,23,24
 2107 1097 2107 1097 2092 1105 c 0,25,26
 2027 1140 2027 1140 1957 1140 c 0,27,28
 1851 1140 1851 1140 1763 1061 c 0,29,30
 1732 1030 1732 1030 1724 1015 c 0,31,32
 1666 934 1666 934 1666 833 c 0,6,7
1957 1333 m 0,33,34
 2120 1333 2120 1333 2255 1228 c 0,35,36
 2274 1214 2274 1214 2309 1178 c 0,37,38
 2378 1101 2378 1101 2407 1020 c 0,39,40
 2442 930 2442 930 2442 833 c 0,41,42
 2442 707 2442 707 2381 591 c 0,43,44
 2360 553 2360 553 2324 508 c 0,45,46
 2285 463 2285 463 2261 445 c 0,47,48
 2234 423 2234 423 2210 408 c 0,49,50
 2091 336 2091 336 1962 336 c 2,51,-1
 1953 336 l 2,52,53
 1817 336 1817 336 1692 416 c 0,54,55
 1668 434 1668 434 1649 450 c 0,56,57
 1610 483 1610 483 1593 506 c 0,58,59
 1572 530 1572 530 1554 558 c 0,60,61
 1534 590 1534 590 1520 620 c 0,62,63
 1473 724 1473 724 1473 827 c 2,64,-1
 1473 842 l 2,65,66
 1473 954 1473 954 1529 1067 c 0,67,68
 1545 1098 1545 1098 1567 1130 c 0,69,70
 1584 1154 1584 1154 1618 1191 c 1,71,72
 1667 1236 1667 1236 1688 1249 c 0,73,74
 1811 1333 1811 1333 1957 1333 c 0,33,34
175 1464 m 1,75,-1
 383 1464 l 1,76,-1
 1085 418 l 1,77,-1
 1149 321 l 1,78,-1
 1150 321 l 1,79,-1
 1150 1461 l 1,80,-1
 1153 1464 l 1,81,-1
 1341 1464 l 1,82,-1
 1344 1461 l 1,83,-1
 1344 3 l 1,84,-1
 1341 0 l 1,85,-1
 1133 0 l 1,86,87
 1079 76 1079 76 734 596 c 1,88,-1
 364 1144 l 1,89,-1
 364 3 l 1,90,-1
 362 0 l 1,91,-1
 175 0 l 1,92,-1
 172 3 l 1,93,-1
 172 1461 l 1,94,-1
 175 1464 l 1,75,-1
EndSplineSet
EndChar

StartChar: trademark
Encoding: 65569 -1 222
Width: 2628
GlyphClass: 2
Flags: W
LayerCount: 2
Fore
SplineSet
1115 300 m 1,0,-1
 1115 1463 l 1,1,-1
 1116 1464 l 1,2,-1
 1336 1464 l 1,3,-1
 1570 1076 l 1,4,-1
 1772 742 l 1,5,-1
 1785 720 l 1,6,-1
 1786 720 l 1,7,-1
 2012 1094 l 1,8,-1
 2235 1464 l 1,9,-1
 2455 1464 l 1,10,-1
 2456 1463 l 1,11,-1
 2456 300 l 1,12,-1
 2253 300 l 1,13,-1
 2253 1118 l 1,14,15
 2245 1106 2245 1106 2075 824 c 0,16,17
 1895 528 1895 528 1888 515 c 2,18,-1
 1858 467 l 1,19,-1
 1713 467 l 2,20,21
 1712 468 1712 468 1634 597 c 2,22,-1
 1405 976 l 2,23,24
 1396 992 1396 992 1319 1118 c 1,25,-1
 1319 300 l 1,26,-1
 1115 300 l 1,0,-1
404 300 m 1,27,-1
 404 1271 l 1,28,-1
 16 1271 l 1,29,-1
 15 1272 l 1,30,-1
 15 1463 l 1,31,-1
 16 1464 l 1,32,-1
 986 1464 l 1,33,-1
 987 1463 l 1,34,-1
 987 1272 l 1,35,-1
 986 1271 l 1,36,-1
 598 1271 l 1,37,-1
 598 300 l 1,38,-1
 404 300 l 1,27,-1
EndSplineSet
EndChar

StartChar: approxequal
Encoding: 65578 -1 231
Width: 758
GlyphClass: 2
Flags: W
LayerCount: 2
Fore
SplineSet
701 561 m 1,0,1
 667 531 667 531 634 511 c 0,2,3
 583 482 583 482 534 482 c 0,4,5
 482 482 482 482 380 539 c 128,-1,6
 278 596 278 596 226 596 c 0,7,8
 182 596 182 596 133 563 c 0,9,10
 100 541 100 541 61 490 c 1,11,-1
 61 672 l 1,12,13
 95 713 95 713 128 732 c 0,14,15
 179 763 179 763 226 763 c 0,16,17
 282 763 282 763 384 704.5 c 128,-1,18
 486 646 486 646 534 646 c 0,19,20
 579 646 579 646 628 679 c 0,21,22
 661 702 661 702 701 754 c 1,23,-1
 701 561 l 1,0,1
701 271 m 1,24,25
 667 241 667 241 634 221 c 0,26,27
 583 192 583 192 534 192 c 0,28,29
 482 192 482 192 380 249 c 128,-1,30
 278 306 278 306 226 306 c 0,31,32
 182 306 182 306 133 273 c 0,33,34
 100 251 100 251 61 200 c 1,35,-1
 61 382 l 1,36,37
 95 423 95 423 128 442 c 0,38,39
 179 473 179 473 226 473 c 0,40,41
 282 473 282 473 384 414.5 c 128,-1,42
 486 356 486 356 534 356 c 0,43,44
 579 356 579 356 628 389 c 0,45,46
 661 412 661 412 701 464 c 1,47,-1
 701 271 l 1,24,25
EndSplineSet
EndChar

